<svg width="634" height="268" viewBox="0 0 634 268" fill="none" xmlns="http://www.w3.org/2000/svg">
<rect width="634" height="268" rx="14" fill="#101010"/>
<path d="M26.8267 46H24.4972L29.7315 31.4545H32.267L37.5014 46H35.1719L31.0597 34.0966H30.946L26.8267 46ZM27.2173 40.304H34.7741V42.1506H27.2173V40.304ZM39.4315 46V35.0909H41.555V39.6648H42.5778L46.1786 35.0909H48.8065L44.5806 40.3963L48.8562 46H46.2212L42.9329 41.6392H41.555V46H39.4315ZM49.8949 36.9233V35.0909H59.0994V36.9233H55.5412V46H53.4673V36.9233H49.8949ZM63.4265 43.0241L68.2347 35.0909H70.5217V46H68.4407V38.0597L63.6538 46H61.3455V35.0909H63.4265V43.0241ZM73.3768 46V35.0909H77.9009C79.132 35.0909 80.1074 35.3537 80.8271 35.8793C81.5468 36.4001 81.9066 37.108 81.9066 38.0028C81.9066 38.642 81.703 39.1487 81.2958 39.5227C80.8886 39.8968 80.3488 40.1477 79.6765 40.2756C80.1642 40.3324 80.6116 40.4792 81.0188 40.7159C81.426 40.9479 81.7527 41.2604 81.9989 41.6534C82.2499 42.0464 82.3754 42.5152 82.3754 43.0597C82.3754 43.6373 82.2262 44.1487 81.9279 44.5938C81.6296 45.0341 81.1964 45.3797 80.6282 45.6307C80.0647 45.8769 79.3853 46 78.5898 46H73.3768ZM75.3725 44.2244H78.5898C79.1154 44.2244 79.5273 44.099 79.8256 43.848C80.1239 43.5971 80.2731 43.2562 80.2731 42.8253C80.2731 42.3187 80.1239 41.9209 79.8256 41.6321C79.5273 41.3385 79.1154 41.1918 78.5898 41.1918H75.3725V44.2244ZM75.3725 39.6364H77.9222C78.32 39.6364 78.6609 39.5795 78.945 39.4659C79.2338 39.3523 79.454 39.1913 79.6055 38.983C79.7617 38.7699 79.8398 38.5189 79.8398 38.2301C79.8398 37.8087 79.667 37.4796 79.3214 37.2429C78.9757 37.0062 78.5022 36.8878 77.9009 36.8878H75.3725V39.6364ZM92.0984 39.6293V41.4688H86.1893V39.6293H92.0984ZM86.7859 35.0909V46H84.7049V35.0909H86.7859ZM93.5827 35.0909V46H91.5089V35.0909H93.5827ZM101.019 46.2202C99.9961 46.2202 99.1036 45.9858 98.3413 45.517C97.579 45.0483 96.9871 44.3925 96.5657 43.5497C96.1443 42.7069 95.9336 41.7221 95.9336 40.5952C95.9336 39.4635 96.1443 38.474 96.5657 37.6264C96.9871 36.7789 97.579 36.1207 98.3413 35.652C99.1036 35.1832 99.9961 34.9489 101.019 34.9489C102.042 34.9489 102.934 35.1832 103.696 35.652C104.459 36.1207 105.051 36.7789 105.472 37.6264C105.893 38.474 106.104 39.4635 106.104 40.5952C106.104 41.7221 105.893 42.7069 105.472 43.5497C105.051 44.3925 104.459 45.0483 103.696 45.517C102.934 45.9858 102.042 46.2202 101.019 46.2202ZM101.026 44.4375C101.689 44.4375 102.238 44.2623 102.674 43.9119C103.109 43.5616 103.431 43.0952 103.64 42.5128C103.853 41.9304 103.959 41.2888 103.959 40.5881C103.959 39.892 103.853 39.2528 103.64 38.6705C103.431 38.0833 103.109 37.6122 102.674 37.2571C102.238 36.902 101.689 36.7244 101.026 36.7244C100.358 36.7244 99.8043 36.902 99.364 37.2571C98.9284 37.6122 98.604 38.0833 98.391 38.6705C98.1826 39.2528 98.0785 39.892 98.0785 40.5881C98.0785 41.2888 98.1826 41.9304 98.391 42.5128C98.604 43.0952 98.9284 43.5616 99.364 43.9119C99.8043 44.2623 100.358 44.4375 101.026 44.4375ZM113.07 46.2202C112.014 46.2202 111.105 45.9811 110.342 45.5028C109.585 45.0199 109.002 44.3546 108.595 43.5071C108.188 42.6596 107.984 41.6889 107.984 40.5952C107.984 39.4872 108.193 38.5095 108.609 37.6619C109.026 36.8097 109.613 36.1444 110.371 35.6662C111.128 35.188 112.021 34.9489 113.048 34.9489C113.877 34.9489 114.616 35.1027 115.264 35.4105C115.913 35.7135 116.436 36.1397 116.834 36.6889C117.236 37.2382 117.475 37.8797 117.551 38.6136H115.484C115.371 38.1023 115.11 37.6619 114.703 37.2926C114.301 36.9233 113.761 36.7386 113.084 36.7386C112.492 36.7386 111.973 36.8949 111.528 37.2074C111.088 37.5152 110.745 37.9555 110.499 38.5284C110.252 39.0966 110.129 39.7689 110.129 40.5455C110.129 41.3409 110.25 42.0275 110.491 42.6051C110.733 43.1828 111.074 43.6302 111.514 43.9474C111.959 44.2647 112.482 44.4233 113.084 44.4233C113.486 44.4233 113.851 44.3499 114.178 44.2031C114.509 44.0516 114.786 43.8362 115.009 43.5568C115.236 43.2775 115.394 42.9413 115.484 42.5483H117.551C117.475 43.2538 117.246 43.8835 116.862 44.4375C116.479 44.9915 115.965 45.4271 115.321 45.7443C114.682 46.0616 113.931 46.2202 113.07 46.2202ZM118.996 36.9233V35.0909H128.201V36.9233H124.643V46H122.569V36.9233H118.996ZM132.045 38.8409H135.213C136.548 38.8409 137.575 39.1723 138.295 39.8352C139.015 40.4981 139.375 41.3527 139.375 42.3991C139.375 43.081 139.214 43.6941 138.892 44.2386C138.57 44.7831 138.099 45.214 137.478 45.5312C136.858 45.8438 136.103 46 135.213 46H130.447V35.0909H132.528V44.1676H135.213C135.824 44.1676 136.325 44.009 136.718 43.6918C137.111 43.3698 137.308 42.9602 137.308 42.4631C137.308 41.9375 137.111 41.509 136.718 41.1776C136.325 40.8414 135.824 40.6733 135.213 40.6733H132.045V38.8409Z" fill="white"/>
<rect x="28" y="79" width="0.5" height="150" fill="#2F2F46"/>
<rect x="80.7729" y="79" width="0.5" height="150" fill="#2F2F46"/>
<rect x="133.545" y="79" width="0.5" height="150" fill="#2F2F46"/>
<rect x="186.318" y="79" width="0.5" height="150" fill="#2F2F46"/>
<rect x="239.091" y="79" width="0.5" height="150" fill="#2F2F46"/>
<rect x="291.864" y="79" width="0.5" height="150" fill="#F3F0FE"/>
<rect x="344.636" y="79" width="0.5" height="150" fill="#2F2F46"/>
<rect x="397.409" y="79" width="0.5" height="150" fill="#2F2F46"/>
<rect x="450.182" y="79" width="0.5" height="150" fill="#2F2F46"/>
<rect x="502.955" y="79" width="0.5" height="150" fill="#2F2F46"/>
<rect x="555.728" y="79" width="0.5" height="150" fill="#2F2F46"/>
<rect x="608.5" y="79" width="0.5" height="150" fill="#2F2F46"/>
<rect x="285" y="46" width="41" height="178" rx="10" fill="url(#paint0_linear_2_17414)"/>
<path d="M28 186C38.2529 183.835 63.3157 177.807 81.5431 171.012C104.327 162.519 129.39 151.528 147.048 148.03C164.706 144.533 184.642 142.035 207.996 143.034C231.35 144.033 296.855 152.027 330.462 153.026C364.069 154.025 381.726 146.531 393.119 140.536C404.511 134.541 429.574 116.056 456.915 110.061C484.256 104.065 503.053 107.063 531.533 97.0709C560.014 87.0789 575.963 79.0853 609 80.0845" stroke="#6666FF"/>
<path d="M81.5431 171.03C63.3157 177.826 38.2529 183.856 28 186.021V222H609V80.0845C575.963 79.0851 560.014 87.0804 531.533 97.0744C503.053 107.068 484.256 104.07 456.915 110.067C429.574 116.063 404.511 134.552 393.119 140.549C381.726 146.545 364.069 154.04 330.462 153.041C296.855 152.042 231.35 144.046 207.996 143.047C184.642 142.048 164.706 144.546 147.048 148.044C129.39 151.542 104.327 162.535 81.5431 171.03Z" fill="url(#paint1_linear_2_17414)"/>
<circle cx="305.5" cy="151.5" r="4" fill="#6666FF" stroke="white" stroke-width="3"/>
<path d="M347.039 80V70.5455H350.501C351.172 70.5455 351.728 70.6562 352.168 70.8778C352.608 71.0964 352.937 71.3933 353.156 71.7688C353.374 72.1412 353.483 72.5613 353.483 73.0291C353.483 73.4231 353.411 73.7554 353.266 74.0263C353.122 74.294 352.928 74.5095 352.685 74.6726C352.445 74.8326 352.18 74.9496 351.891 75.0234V75.1158C352.205 75.1312 352.511 75.2327 352.809 75.4205C353.111 75.6051 353.36 75.8683 353.557 76.2099C353.754 76.5515 353.853 76.967 353.853 77.4563C353.853 77.9395 353.739 78.3735 353.511 78.7582C353.286 79.1398 352.939 79.4429 352.468 79.6676C351.997 79.8892 351.395 80 350.663 80H347.039ZM348.465 78.7766H350.524C351.207 78.7766 351.697 78.6443 351.992 78.3796C352.288 78.1149 352.435 77.7841 352.435 77.3871C352.435 77.0885 352.36 76.8146 352.209 76.5653C352.058 76.3161 351.843 76.1175 351.563 75.9698C351.286 75.8221 350.957 75.7482 350.575 75.7482H348.465V78.7766ZM348.465 74.6357H350.376C350.696 74.6357 350.984 74.5741 351.24 74.451C351.498 74.3279 351.703 74.1555 351.854 73.9339C352.008 73.7093 352.085 73.4446 352.085 73.1399C352.085 72.7491 351.948 72.4213 351.674 72.1566C351.4 71.8919 350.98 71.7596 350.413 71.7596H348.465V74.6357ZM356.472 75.3466H358.531C359.399 75.3466 360.067 75.562 360.535 75.9929C361.003 76.4238 361.237 76.9793 361.237 77.6594C361.237 78.1026 361.132 78.5012 360.923 78.8551C360.713 79.209 360.407 79.4891 360.004 79.6953C359.601 79.8984 359.11 80 358.531 80H355.434V72.9091H356.786V78.8089H358.531C358.928 78.8089 359.255 78.7058 359.51 78.4996C359.766 78.2904 359.893 78.0241 359.893 77.701C359.893 77.3594 359.766 77.0808 359.51 76.8654C359.255 76.6469 358.928 76.5376 358.531 76.5376H356.472V75.3466ZM362.243 80V72.9091H363.623V80H362.243ZM365.476 80V72.9091H371.26V80H369.908V74.1001H366.819V80H365.476ZM376.093 80.1431C375.428 80.1431 374.848 79.9908 374.352 79.6861C373.857 79.3814 373.472 78.9551 373.198 78.4073C372.924 77.8595 372.787 77.2193 372.787 76.4869C372.787 75.7513 372.924 75.1081 373.198 74.5572C373.472 74.0063 373.857 73.5785 374.352 73.2738C374.848 72.9691 375.428 72.8168 376.093 72.8168C376.757 72.8168 377.337 72.9691 377.833 73.2738C378.328 73.5785 378.713 74.0063 378.987 74.5572C379.261 75.1081 379.398 75.7513 379.398 76.4869C379.398 77.2193 379.261 77.8595 378.987 78.4073C378.713 78.9551 378.328 79.3814 377.833 79.6861C377.337 79.9908 376.757 80.1431 376.093 80.1431ZM376.097 78.9844C376.528 78.9844 376.885 78.8705 377.168 78.6428C377.451 78.415 377.661 78.1119 377.796 77.7333C377.934 77.3548 378.004 76.9377 378.004 76.4822C378.004 76.0298 377.934 75.6143 377.796 75.2358C377.661 74.8542 377.451 74.5479 377.168 74.3171C376.885 74.0863 376.528 73.9709 376.097 73.9709C375.663 73.9709 375.303 74.0863 375.017 74.3171C374.734 74.5479 374.523 74.8542 374.384 75.2358C374.249 75.6143 374.181 76.0298 374.181 76.4822C374.181 76.9377 374.249 77.3548 374.384 77.7333C374.523 78.1119 374.734 78.415 375.017 78.6428C375.303 78.8705 375.663 78.9844 376.097 78.9844ZM380.38 80L380.375 78.8043H380.629C380.826 78.8043 380.991 78.7628 381.123 78.6797C381.259 78.5935 381.37 78.4489 381.456 78.2457C381.542 78.0426 381.608 77.7625 381.654 77.4055C381.7 77.0455 381.734 76.593 381.756 76.0483L381.88 72.9091H386.829V80H385.477V74.1001H383.159L383.048 76.5099C383.021 77.0947 382.961 77.6056 382.868 78.0426C382.779 78.4796 382.648 78.8443 382.476 79.1367C382.304 79.426 382.082 79.643 381.811 79.7876C381.54 79.9292 381.211 80 380.823 80H380.38ZM393.476 75.859V77.0547H389.635V75.859H393.476ZM390.023 72.9091V80H388.67V72.9091H390.023ZM394.441 72.9091V80H393.093V72.9091H394.441ZM399.343 80.1431C398.645 80.1431 398.043 79.9938 397.538 79.6953C397.037 79.3937 396.649 78.9705 396.375 78.4258C396.104 77.878 395.969 77.2363 395.969 76.5007C395.969 75.7744 396.104 75.1342 396.375 74.5803C396.649 74.0263 397.031 73.5939 397.52 73.283C398.012 72.9722 398.588 72.8168 399.246 72.8168C399.647 72.8168 400.034 72.8829 400.41 73.0153C400.785 73.1476 401.122 73.3554 401.421 73.6385C401.719 73.9216 401.955 74.2894 402.127 74.7418C402.299 75.1912 402.386 75.7375 402.386 76.3807V76.87H396.749V75.8359H401.033C401.033 75.4728 400.959 75.1512 400.811 74.8711C400.664 74.5879 400.456 74.3648 400.188 74.2017C399.924 74.0386 399.613 73.957 399.256 73.957C398.868 73.957 398.529 74.0524 398.24 74.2433C397.954 74.431 397.732 74.6772 397.575 74.9819C397.421 75.2835 397.344 75.6113 397.344 75.9652V76.7731C397.344 77.247 397.428 77.6502 397.594 77.9826C397.763 78.315 397.998 78.5689 398.3 78.7443C398.602 78.9167 398.954 79.0028 399.357 79.0028C399.619 79.0028 399.857 78.9659 400.073 78.892C400.288 78.8151 400.474 78.7012 400.631 78.5504C400.788 78.3996 400.908 78.2134 400.991 77.9918L402.298 78.2273C402.193 78.612 402.006 78.949 401.735 79.2383C401.467 79.5245 401.13 79.7476 400.724 79.9077C400.321 80.0646 399.86 80.1431 399.343 80.1431ZM408.723 75.859V77.0547H404.882V75.859H408.723ZM405.27 72.9091V80H403.917V72.9091H405.27ZM409.688 72.9091V80H408.34V72.9091H409.688ZM414.521 80.1431C413.856 80.1431 413.276 79.9908 412.781 79.6861C412.285 79.3814 411.901 78.9551 411.627 78.4073C411.353 77.8595 411.216 77.2193 411.216 76.4869C411.216 75.7513 411.353 75.1081 411.627 74.5572C411.901 74.0063 412.285 73.5785 412.781 73.2738C413.276 72.9691 413.856 72.8168 414.521 72.8168C415.186 72.8168 415.766 72.9691 416.262 73.2738C416.757 73.5785 417.142 74.0063 417.416 74.5572C417.69 75.1081 417.827 75.7513 417.827 76.4869C417.827 77.2193 417.69 77.8595 417.416 78.4073C417.142 78.9551 416.757 79.3814 416.262 79.6861C415.766 79.9908 415.186 80.1431 414.521 80.1431ZM414.526 78.9844C414.957 78.9844 415.314 78.8705 415.597 78.6428C415.88 78.415 416.089 78.1119 416.225 77.7333C416.363 77.3548 416.432 76.9377 416.432 76.4822C416.432 76.0298 416.363 75.6143 416.225 75.2358C416.089 74.8542 415.88 74.5479 415.597 74.3171C415.314 74.0863 414.957 73.9709 414.526 73.9709C414.092 73.9709 413.732 74.0863 413.446 74.3171C413.162 74.5479 412.952 74.8542 412.813 75.2358C412.678 75.6143 412.61 76.0298 412.61 76.4822C412.61 76.9377 412.678 77.3548 412.813 77.7333C412.952 78.1119 413.162 78.415 413.446 78.6428C413.732 78.8705 414.092 78.9844 414.526 78.9844ZM422.388 78.1257H423.8C423.819 78.415 423.95 78.6381 424.193 78.7951C424.439 78.9521 424.757 79.0305 425.148 79.0305C425.545 79.0305 425.884 78.9459 426.164 78.7766C426.444 78.6043 426.584 78.3381 426.584 77.978C426.584 77.7625 426.53 77.5748 426.422 77.4148C426.318 77.2517 426.169 77.1255 425.975 77.0362C425.784 76.947 425.558 76.9023 425.296 76.9023H424.142V75.8175H425.296C425.687 75.8175 425.979 75.7282 426.173 75.5497C426.367 75.3712 426.464 75.1481 426.464 74.8803C426.464 74.591 426.359 74.3587 426.15 74.1832C425.944 74.0047 425.656 73.9155 425.287 73.9155C424.911 73.9155 424.599 74.0001 424.35 74.1694C424.1 74.3356 423.97 74.551 423.957 74.8157H422.563C422.572 74.4187 422.692 74.0709 422.923 73.7724C423.157 73.4708 423.471 73.2369 423.865 73.0707C424.262 72.9014 424.713 72.8168 425.218 72.8168C425.744 72.8168 426.199 72.9014 426.584 73.0707C426.969 73.2399 427.266 73.4738 427.475 73.7724C427.687 74.0709 427.794 74.4141 427.794 74.8018C427.794 75.1927 427.677 75.5128 427.443 75.7621C427.212 76.0083 426.91 76.1853 426.538 76.293V76.3668C426.812 76.3853 427.055 76.4684 427.267 76.6161C427.48 76.7638 427.646 76.9593 427.766 77.2024C427.886 77.4455 427.946 77.721 427.946 78.0288C427.946 78.4627 427.826 78.8382 427.586 79.1552C427.349 79.4722 427.02 79.7169 426.598 79.8892C426.179 80.0585 425.701 80.1431 425.162 80.1431C424.639 80.1431 424.17 80.0616 423.754 79.8984C423.342 79.7322 423.014 79.4983 422.771 79.1967C422.531 78.8951 422.403 78.5381 422.388 78.1257ZM431.435 80.157C430.985 80.157 430.579 80.0739 430.216 79.9077C429.853 79.7384 429.565 79.4937 429.353 79.1737C429.144 78.8536 429.039 78.4612 429.039 77.9964C429.039 77.5964 429.116 77.267 429.27 77.0085C429.424 76.75 429.631 76.5453 429.893 76.3945C430.155 76.2437 430.447 76.1299 430.77 76.0529C431.093 75.976 431.423 75.9175 431.758 75.8775C432.183 75.8282 432.527 75.7882 432.792 75.7575C433.057 75.7236 433.249 75.6697 433.369 75.5959C433.489 75.522 433.549 75.402 433.549 75.2358V75.2035C433.549 74.8003 433.435 74.4879 433.208 74.2663C432.983 74.0447 432.647 73.9339 432.201 73.9339C431.736 73.9339 431.37 74.037 431.102 74.2433C430.838 74.4464 430.655 74.6726 430.553 74.9219L429.256 74.6264C429.41 74.1955 429.634 73.8478 429.93 73.5831C430.228 73.3153 430.572 73.1214 430.959 73.0014C431.347 72.8783 431.755 72.8168 432.183 72.8168C432.466 72.8168 432.766 72.8506 433.083 72.9183C433.403 72.983 433.702 73.103 433.979 73.2784C434.259 73.4538 434.488 73.7047 434.666 74.0309C434.845 74.354 434.934 74.7741 434.934 75.2912V80H433.586V79.0305H433.531C433.441 79.209 433.308 79.3845 433.129 79.5568C432.951 79.7292 432.721 79.8723 432.441 79.9862C432.161 80.1 431.826 80.157 431.435 80.157ZM431.735 79.049C432.117 79.049 432.443 78.9736 432.714 78.8228C432.988 78.672 433.195 78.475 433.337 78.2319C433.481 77.9857 433.554 77.7225 433.554 77.4425V76.5284C433.505 76.5777 433.409 76.6238 433.268 76.6669C433.129 76.7069 432.971 76.7423 432.792 76.7731C432.614 76.8008 432.44 76.8269 432.27 76.8516C432.101 76.8731 431.96 76.8916 431.846 76.907C431.578 76.9408 431.333 76.9978 431.112 77.0778C430.893 77.1578 430.718 77.2732 430.585 77.424C430.456 77.5717 430.392 77.7687 430.392 78.0149C430.392 78.3565 430.518 78.6151 430.77 78.7905C431.022 78.9628 431.344 79.049 431.735 79.049ZM436.08 82.0451V78.8043H436.657C436.805 78.6689 436.93 78.5073 437.031 78.3196C437.136 78.1319 437.224 77.9087 437.294 77.6502C437.368 77.3917 437.43 77.0901 437.479 76.7454C437.528 76.3976 437.571 76.0006 437.608 75.5543L437.83 72.9091H442.649V78.8043H443.739V82.0451H442.391V80H437.447V82.0451H436.08ZM438.134 78.8043H441.301V74.0909H439.067L438.919 75.5543C438.849 76.2991 438.759 76.9454 438.652 77.4933C438.544 78.038 438.371 78.475 438.134 78.8043ZM447.152 80.157C446.702 80.157 446.296 80.0739 445.933 79.9077C445.57 79.7384 445.282 79.4937 445.07 79.1737C444.86 78.8536 444.756 78.4612 444.756 77.9964C444.756 77.5964 444.833 77.267 444.987 77.0085C445.14 76.75 445.348 76.5453 445.61 76.3945C445.871 76.2437 446.164 76.1299 446.487 76.0529C446.81 75.976 447.139 75.9175 447.475 75.8775C447.9 75.8282 448.244 75.7882 448.509 75.7575C448.774 75.7236 448.966 75.6697 449.086 75.5959C449.206 75.522 449.266 75.402 449.266 75.2358V75.2035C449.266 74.8003 449.152 74.4879 448.924 74.2663C448.7 74.0447 448.364 73.9339 447.918 73.9339C447.453 73.9339 447.087 74.037 446.819 74.2433C446.555 74.4464 446.371 74.6726 446.27 74.9219L444.973 74.6264C445.127 74.1955 445.351 73.8478 445.647 73.5831C445.945 73.3153 446.288 73.1214 446.676 73.0014C447.064 72.8783 447.472 72.8168 447.9 72.8168C448.183 72.8168 448.483 72.8506 448.8 72.9183C449.12 72.983 449.418 73.103 449.695 73.2784C449.975 73.4538 450.205 73.7047 450.383 74.0309C450.562 74.354 450.651 74.7741 450.651 75.2912V80H449.303V79.0305H449.248C449.158 79.209 449.024 79.3845 448.846 79.5568C448.667 79.7292 448.438 79.8723 448.158 79.9862C447.878 80.1 447.542 80.157 447.152 80.157ZM447.452 79.049C447.833 79.049 448.16 78.9736 448.43 78.8228C448.704 78.672 448.912 78.475 449.054 78.2319C449.198 77.9857 449.271 77.7225 449.271 77.4425V76.5284C449.221 76.5777 449.126 76.6238 448.984 76.6669C448.846 76.7069 448.687 76.7423 448.509 76.7731C448.33 76.8008 448.156 76.8269 447.987 76.8516C447.818 76.8731 447.676 76.8916 447.562 76.907C447.295 76.9408 447.05 76.9978 446.828 77.0778C446.61 77.1578 446.435 77.2732 446.302 77.424C446.173 77.5717 446.108 77.7687 446.108 78.0149C446.108 78.3565 446.234 78.6151 446.487 78.7905C446.739 78.9628 447.061 79.049 447.452 79.049ZM458.182 72.9091V80H456.834V72.9091H458.182ZM457.595 76.2006V77.3917C457.383 77.4779 457.158 77.5548 456.921 77.6225C456.684 77.6871 456.435 77.7379 456.173 77.7749C455.912 77.8118 455.639 77.8303 455.356 77.8303C454.479 77.8303 453.782 77.6164 453.265 77.1886C452.748 76.7577 452.489 76.0991 452.489 75.2127V72.8952H453.833V75.2127C453.833 75.5482 453.894 75.8205 454.017 76.0298C454.141 76.2391 454.316 76.393 454.544 76.4915C454.772 76.59 455.042 76.6392 455.356 76.6392C455.772 76.6392 456.155 76.6007 456.506 76.5238C456.86 76.4438 457.223 76.3361 457.595 76.2006ZM460.927 80.0877C460.675 80.0877 460.458 79.9985 460.276 79.82C460.095 79.6384 460.004 79.4199 460.004 79.1644C460.004 78.9121 460.095 78.6966 460.276 78.5181C460.458 78.3365 460.675 78.2457 460.927 78.2457C461.18 78.2457 461.397 78.3365 461.578 78.5181C461.76 78.6966 461.85 78.9121 461.85 79.1644C461.85 79.3337 461.807 79.4891 461.721 79.6307C461.638 79.7692 461.527 79.88 461.389 79.9631C461.25 80.0462 461.096 80.0877 460.927 80.0877ZM460.927 74.9265C460.675 74.9265 460.458 74.8357 460.276 74.6541C460.095 74.4725 460.004 74.2556 460.004 74.0032C460.004 73.7508 460.095 73.5354 460.276 73.3569C460.458 73.1753 460.675 73.0845 460.927 73.0845C461.18 73.0845 461.397 73.1753 461.578 73.3569C461.76 73.5354 461.85 73.7508 461.85 74.0032C461.85 74.1725 461.807 74.3279 461.721 74.4695C461.638 74.608 461.527 74.7187 461.389 74.8018C461.25 74.8849 461.096 74.9265 460.927 74.9265Z" fill="#E0E4E7"/>
<path d="M352.756 93.9091V107H349.989V96.5362H349.912L346.914 98.4155V95.9609L350.155 93.9091H352.756ZM355.868 107V105.006L360.528 100.691C360.924 100.308 361.256 99.9624 361.525 99.6555C361.797 99.3487 362.004 99.0483 362.145 98.7543C362.285 98.456 362.356 98.1342 362.356 97.7891C362.356 97.4055 362.268 97.0753 362.094 96.7983C361.919 96.517 361.68 96.3018 361.378 96.1527C361.075 95.9993 360.732 95.9226 360.349 95.9226C359.948 95.9226 359.599 96.0036 359.3 96.1655C359.002 96.3274 358.772 96.5597 358.61 96.8622C358.448 97.1648 358.367 97.5249 358.367 97.9425H355.74C355.74 97.0859 355.934 96.3423 356.322 95.7116C356.709 95.081 357.253 94.593 357.952 94.2479C358.65 93.9027 359.456 93.7301 360.368 93.7301C361.305 93.7301 362.121 93.8963 362.816 94.2287C363.515 94.5568 364.058 95.0128 364.446 95.5966C364.834 96.1804 365.028 96.8494 365.028 97.6037C365.028 98.098 364.93 98.5859 364.733 99.0675C364.542 99.549 364.199 100.084 363.704 100.672C363.21 101.256 362.513 101.957 361.614 102.775L359.703 104.648V104.737H365.2V107H355.868Z" fill="white"/>
<path d="M28.1506 238.273V247H26.8295V239.594H26.7784L24.6903 240.957V239.696L26.8679 238.273H28.1506ZM30.864 247.081C30.631 247.081 30.4308 246.999 30.2631 246.834C30.0955 246.666 30.0117 246.464 30.0117 246.229C30.0117 245.996 30.0955 245.797 30.2631 245.632C30.4308 245.464 30.631 245.381 30.864 245.381C31.0969 245.381 31.2972 245.464 31.4648 245.632C31.6325 245.797 31.7163 245.996 31.7163 246.229C31.7163 246.385 31.6765 246.528 31.5969 246.659C31.5202 246.787 31.418 246.889 31.2901 246.966C31.1623 247.043 31.0202 247.081 30.864 247.081ZM36.1278 247.145C35.4545 247.142 34.8793 246.964 34.402 246.612C33.9247 246.26 33.5597 245.747 33.3068 245.074C33.054 244.401 32.9276 243.589 32.9276 242.641C32.9276 241.695 33.054 240.886 33.3068 240.216C33.5625 239.545 33.929 239.034 34.4062 238.682C34.8864 238.33 35.4602 238.153 36.1278 238.153C36.7955 238.153 37.3679 238.331 37.8452 238.686C38.3224 239.038 38.6875 239.55 38.9403 240.22C39.196 240.888 39.3239 241.695 39.3239 242.641C39.3239 243.592 39.1974 244.405 38.9446 245.078C38.6918 245.749 38.3267 246.261 37.8494 246.616C37.3722 246.969 36.7983 247.145 36.1278 247.145ZM36.1278 246.007C36.7188 246.007 37.1804 245.719 37.5128 245.142C37.848 244.565 38.0156 243.732 38.0156 242.641C38.0156 241.916 37.9389 241.304 37.7855 240.804C37.6349 240.301 37.4176 239.92 37.1335 239.662C36.8523 239.401 36.517 239.27 36.1278 239.27C35.5398 239.27 35.0781 239.56 34.7429 240.139C34.4077 240.719 34.2386 241.553 34.2358 242.641C34.2358 243.368 34.3111 243.983 34.4616 244.486C34.6151 244.986 34.8324 245.365 35.1136 245.624C35.3949 245.879 35.733 246.007 36.1278 246.007ZM43.7163 247.119C43.1822 247.119 42.7021 247.017 42.2759 246.812C41.8526 246.605 41.5146 246.321 41.2617 245.96C41.0089 245.599 40.8739 245.188 40.8569 244.724H42.1353C42.1665 245.099 42.3327 245.408 42.6339 245.649C42.935 245.891 43.2958 246.011 43.7163 246.011C44.0515 246.011 44.3484 245.935 44.6069 245.781C44.8683 245.625 45.0728 245.411 45.2205 245.138C45.3711 244.865 45.4464 244.554 45.4464 244.205C45.4464 243.849 45.3697 243.533 45.2163 243.254C45.0629 242.976 44.8512 242.757 44.5813 242.598C44.3143 242.439 44.0075 242.358 43.6609 242.355C43.3967 242.355 43.131 242.401 42.864 242.491C42.5969 242.582 42.381 242.702 42.2163 242.849L41.0103 242.67L41.5004 238.273H46.2987V239.402H42.5955L42.3185 241.844H42.3697C42.5401 241.679 42.766 241.541 43.0472 241.43C43.3313 241.32 43.6353 241.264 43.9592 241.264C44.4904 241.264 44.9634 241.391 45.3782 241.643C45.7958 241.896 46.1239 242.241 46.3626 242.679C46.604 243.114 46.7234 243.614 46.7205 244.179C46.7234 244.744 46.5955 245.249 46.337 245.692C46.0813 246.135 45.7262 246.484 45.2717 246.74C44.82 246.993 44.3015 247.119 43.7163 247.119Z" fill="#7C7C8D"/>
<path d="M72.0595 247.119C71.4743 247.119 70.9515 247.018 70.4913 246.817C70.0339 246.615 69.6717 246.335 69.4047 245.977C69.1404 245.616 68.9984 245.199 68.9785 244.724H70.3166C70.3336 244.983 70.4203 245.207 70.5765 245.398C70.7356 245.585 70.943 245.73 71.1987 245.832C71.4544 245.935 71.7385 245.986 72.051 245.986C72.3947 245.986 72.6987 245.926 72.9629 245.807C73.2299 245.687 73.4387 245.521 73.5893 245.308C73.7399 245.092 73.8152 244.844 73.8152 244.562C73.8152 244.27 73.7399 244.013 73.5893 243.791C73.4416 243.567 73.2243 243.391 72.9373 243.263C72.6532 243.135 72.3095 243.071 71.9061 243.071H71.1689V241.997H71.9061C72.2299 241.997 72.514 241.939 72.7583 241.822C73.0055 241.706 73.1987 241.544 73.3379 241.337C73.4771 241.126 73.5467 240.881 73.5467 240.599C73.5467 240.33 73.4856 240.095 73.3635 239.896C73.2441 239.695 73.0737 239.537 72.8521 239.423C72.6333 239.31 72.3748 239.253 72.0765 239.253C71.7924 239.253 71.5268 239.305 71.2797 239.411C71.0353 239.513 70.8365 239.661 70.6831 239.854C70.5297 240.044 70.4473 240.273 70.4359 240.54H69.1618C69.176 240.068 69.3152 239.653 69.5794 239.295C69.8464 238.937 70.1987 238.658 70.6362 238.456C71.0737 238.254 71.5595 238.153 72.0936 238.153C72.6532 238.153 73.1362 238.263 73.5424 238.482C73.9515 238.697 74.2669 238.986 74.4885 239.347C74.7129 239.707 74.8237 240.102 74.8208 240.531C74.8237 241.02 74.6873 241.435 74.4118 241.776C74.139 242.116 73.7754 242.345 73.3208 242.462V242.53C73.9004 242.618 74.3493 242.848 74.6674 243.22C74.9885 243.592 75.1475 244.054 75.1447 244.605C75.1475 245.085 75.014 245.516 74.7441 245.896C74.4771 246.277 74.112 246.577 73.649 246.795C73.1859 247.011 72.6561 247.119 72.0595 247.119ZM77.3542 247.081C77.1213 247.081 76.921 246.999 76.7534 246.834C76.5858 246.666 76.502 246.464 76.502 246.229C76.502 245.996 76.5858 245.797 76.7534 245.632C76.921 245.464 77.1213 245.381 77.3542 245.381C77.5872 245.381 77.7875 245.464 77.9551 245.632C78.1227 245.797 78.2065 245.996 78.2065 246.229C78.2065 246.385 78.1667 246.528 78.0872 246.659C78.0105 246.787 77.9082 246.889 77.7804 246.966C77.6525 247.043 77.5105 247.081 77.3542 247.081ZM82.6181 247.145C81.9448 247.142 81.3695 246.964 80.8922 246.612C80.415 246.26 80.0499 245.747 79.7971 245.074C79.5442 244.401 79.4178 243.589 79.4178 242.641C79.4178 241.695 79.5442 240.886 79.7971 240.216C80.0527 239.545 80.4192 239.034 80.8965 238.682C81.3766 238.33 81.9505 238.153 82.6181 238.153C83.2857 238.153 83.8581 238.331 84.3354 238.686C84.8127 239.038 85.1777 239.55 85.4306 240.22C85.6863 240.888 85.8141 241.695 85.8141 242.641C85.8141 243.592 85.6877 244.405 85.4348 245.078C85.182 245.749 84.8169 246.261 84.3397 246.616C83.8624 246.969 83.2885 247.145 82.6181 247.145ZM82.6181 246.007C83.209 246.007 83.6706 245.719 84.003 245.142C84.3382 244.565 84.5059 243.732 84.5059 242.641C84.5059 241.916 84.4292 241.304 84.2757 240.804C84.1252 240.301 83.9078 239.92 83.6238 239.662C83.3425 239.401 83.0073 239.27 82.6181 239.27C82.03 239.27 81.5684 239.56 81.2331 240.139C80.8979 240.719 80.7289 241.553 80.726 242.641C80.726 243.368 80.8013 243.983 80.9519 244.486C81.1053 244.986 81.3226 245.365 81.6039 245.624C81.8851 245.879 82.2232 246.007 82.6181 246.007ZM90.2065 247.119C89.6724 247.119 89.1923 247.017 88.7662 246.812C88.3429 246.605 88.0048 246.321 87.752 245.96C87.4991 245.599 87.3642 245.188 87.3471 244.724H88.6255C88.6568 245.099 88.823 245.408 89.1241 245.649C89.4252 245.891 89.786 246.011 90.2065 246.011C90.5417 246.011 90.8386 245.935 91.0971 245.781C91.3585 245.625 91.563 245.411 91.7108 245.138C91.8613 244.865 91.9366 244.554 91.9366 244.205C91.9366 243.849 91.8599 243.533 91.7065 243.254C91.5531 242.976 91.3414 242.757 91.0716 242.598C90.8045 242.439 90.4977 242.358 90.1511 242.355C89.8869 242.355 89.6213 242.401 89.3542 242.491C89.0872 242.582 88.8713 242.702 88.7065 242.849L87.5005 242.67L87.9906 238.273H92.7889V239.402H89.0858L88.8088 241.844H88.8599C89.0304 241.679 89.2562 241.541 89.5375 241.43C89.8216 241.32 90.1255 241.264 90.4494 241.264C90.9806 241.264 91.4537 241.391 91.8684 241.643C92.286 241.896 92.6142 242.241 92.8528 242.679C93.0943 243.114 93.2136 243.614 93.2108 244.179C93.2136 244.744 93.0858 245.249 92.8272 245.692C92.5716 246.135 92.2164 246.484 91.7619 246.74C91.3102 246.993 90.7917 247.119 90.2065 247.119Z" fill="#7C7C8D"/>
<path d="M118.084 247.119C117.55 247.119 117.07 247.017 116.644 246.812C116.22 246.605 115.882 246.321 115.629 245.96C115.377 245.599 115.242 245.188 115.225 244.724H116.503C116.534 245.099 116.7 245.408 117.002 245.649C117.303 245.891 117.663 246.011 118.084 246.011C118.419 246.011 118.716 245.935 118.975 245.781C119.236 245.625 119.44 245.411 119.588 245.138C119.739 244.865 119.814 244.554 119.814 244.205C119.814 243.849 119.737 243.533 119.584 243.254C119.431 242.976 119.219 242.757 118.949 242.598C118.682 242.439 118.375 242.358 118.029 242.355C117.764 242.355 117.499 242.401 117.232 242.491C116.965 242.582 116.749 242.702 116.584 242.849L115.378 242.67L115.868 238.273H120.666V239.402H116.963L116.686 241.844H116.737C116.908 241.679 117.134 241.541 117.415 241.43C117.699 241.32 118.003 241.264 118.327 241.264C118.858 241.264 119.331 241.391 119.746 241.643C120.163 241.896 120.492 242.241 120.73 242.679C120.972 243.114 121.091 243.614 121.088 244.179C121.091 244.744 120.963 245.249 120.705 245.692C120.449 246.135 120.094 246.484 119.639 246.74C119.188 246.993 118.669 247.119 118.084 247.119ZM123.185 247.081C122.952 247.081 122.752 246.999 122.584 246.834C122.416 246.666 122.333 246.464 122.333 246.229C122.333 245.996 122.416 245.797 122.584 245.632C122.752 245.464 122.952 245.381 123.185 245.381C123.418 245.381 123.618 245.464 123.786 245.632C123.953 245.797 124.037 245.996 124.037 246.229C124.037 246.385 123.997 246.528 123.918 246.659C123.841 246.787 123.739 246.889 123.611 246.966C123.483 247.043 123.341 247.081 123.185 247.081ZM128.449 247.145C127.775 247.142 127.2 246.964 126.723 246.612C126.246 246.26 125.88 245.747 125.628 245.074C125.375 244.401 125.248 243.589 125.248 242.641C125.248 241.695 125.375 240.886 125.628 240.216C125.883 239.545 126.25 239.034 126.727 238.682C127.207 238.33 127.781 238.153 128.449 238.153C129.116 238.153 129.689 238.331 130.166 238.686C130.643 239.038 131.008 239.55 131.261 240.22C131.517 240.888 131.645 241.695 131.645 242.641C131.645 243.592 131.518 244.405 131.265 245.078C131.013 245.749 130.648 246.261 130.17 246.616C129.693 246.969 129.119 247.145 128.449 247.145ZM128.449 246.007C129.04 246.007 129.501 245.719 129.834 245.142C130.169 244.565 130.336 243.732 130.336 242.641C130.336 241.916 130.26 241.304 130.106 240.804C129.956 240.301 129.738 239.92 129.454 239.662C129.173 239.401 128.838 239.27 128.449 239.27C127.861 239.27 127.399 239.56 127.064 240.139C126.728 240.719 126.559 241.553 126.557 242.641C126.557 243.368 126.632 243.983 126.782 244.486C126.936 244.986 127.153 245.365 127.434 245.624C127.716 245.879 128.054 246.007 128.449 246.007ZM136.037 247.119C135.503 247.119 135.023 247.017 134.597 246.812C134.173 246.605 133.835 246.321 133.583 245.96C133.33 245.599 133.195 245.188 133.178 244.724H134.456C134.487 245.099 134.654 245.408 134.955 245.649C135.256 245.891 135.617 246.011 136.037 246.011C136.372 246.011 136.669 245.935 136.928 245.781C137.189 245.625 137.394 245.411 137.541 245.138C137.692 244.865 137.767 244.554 137.767 244.205C137.767 243.849 137.69 243.533 137.537 243.254C137.384 242.976 137.172 242.757 136.902 242.598C136.635 242.439 136.328 242.358 135.982 242.355C135.717 242.355 135.452 242.401 135.185 242.491C134.918 242.582 134.702 242.702 134.537 242.849L133.331 242.67L133.821 238.273H138.619V239.402H134.916L134.639 241.844H134.69C134.861 241.679 135.087 241.541 135.368 241.43C135.652 241.32 135.956 241.264 136.28 241.264C136.811 241.264 137.284 241.391 137.699 241.643C138.117 241.896 138.445 242.241 138.683 242.679C138.925 243.114 139.044 243.614 139.041 244.179C139.044 244.744 138.916 245.249 138.658 245.692C138.402 246.135 138.047 246.484 137.592 246.74C137.141 246.993 136.622 247.119 136.037 247.119Z" fill="#7C7C8D"/>
<path d="M164.334 247.119C163.723 247.119 163.183 247.014 162.714 246.804C162.249 246.594 161.883 246.304 161.619 245.935C161.355 245.565 161.224 245.145 161.227 244.673C161.224 244.304 161.3 243.964 161.453 243.655C161.609 243.342 161.821 243.082 162.088 242.875C162.355 242.665 162.653 242.531 162.983 242.474V242.423C162.548 242.318 162.2 242.085 161.939 241.724C161.678 241.364 161.548 240.949 161.551 240.48C161.548 240.034 161.666 239.636 161.905 239.287C162.146 238.935 162.477 238.658 162.898 238.456C163.318 238.254 163.797 238.153 164.334 238.153C164.865 238.153 165.339 238.256 165.757 238.46C166.178 238.662 166.508 238.939 166.75 239.291C166.991 239.641 167.114 240.037 167.116 240.48C167.114 240.949 166.98 241.364 166.716 241.724C166.452 242.085 166.108 242.318 165.685 242.423V242.474C166.011 242.531 166.305 242.665 166.567 242.875C166.831 243.082 167.041 243.342 167.197 243.655C167.356 243.964 167.437 244.304 167.44 244.673C167.437 245.145 167.304 245.565 167.04 245.935C166.776 246.304 166.409 246.594 165.94 246.804C165.474 247.014 164.939 247.119 164.334 247.119ZM164.334 246.041C164.695 246.041 165.007 245.982 165.271 245.862C165.535 245.74 165.74 245.571 165.885 245.355C166.03 245.136 166.104 244.881 166.106 244.588C166.104 244.284 166.024 244.016 165.868 243.783C165.714 243.55 165.506 243.366 165.241 243.233C164.977 243.099 164.675 243.033 164.334 243.033C163.99 243.033 163.685 243.099 163.418 243.233C163.151 243.366 162.94 243.55 162.787 243.783C162.633 244.016 162.558 244.284 162.561 244.588C162.558 244.881 162.628 245.136 162.77 245.355C162.915 245.571 163.121 245.74 163.388 245.862C163.655 245.982 163.97 246.041 164.334 246.041ZM164.334 241.98C164.624 241.98 164.881 241.922 165.105 241.805C165.33 241.689 165.506 241.527 165.633 241.32C165.764 241.112 165.831 240.869 165.834 240.591C165.831 240.318 165.766 240.08 165.638 239.875C165.513 239.67 165.338 239.513 165.114 239.402C164.889 239.288 164.629 239.232 164.334 239.232C164.033 239.232 163.768 239.288 163.541 239.402C163.317 239.513 163.142 239.67 163.017 239.875C162.892 240.08 162.831 240.318 162.834 240.591C162.831 240.869 162.893 241.112 163.021 241.32C163.149 241.527 163.325 241.689 163.55 241.805C163.777 241.922 164.038 241.98 164.334 241.98ZM169.566 247.081C169.333 247.081 169.132 246.999 168.965 246.834C168.797 246.666 168.713 246.464 168.713 246.229C168.713 245.996 168.797 245.797 168.965 245.632C169.132 245.464 169.333 245.381 169.566 245.381C169.799 245.381 169.999 245.464 170.167 245.632C170.334 245.797 170.418 245.996 170.418 246.229C170.418 246.385 170.378 246.528 170.299 246.659C170.222 246.787 170.12 246.889 169.992 246.966C169.864 247.043 169.722 247.081 169.566 247.081ZM174.83 247.145C174.156 247.142 173.581 246.964 173.104 246.612C172.626 246.26 172.261 245.747 172.008 245.074C171.756 244.401 171.629 243.589 171.629 242.641C171.629 241.695 171.756 240.886 172.008 240.216C172.264 239.545 172.631 239.034 173.108 238.682C173.588 238.33 174.162 238.153 174.83 238.153C175.497 238.153 176.07 238.331 176.547 238.686C177.024 239.038 177.389 239.55 177.642 240.22C177.898 240.888 178.026 241.695 178.026 242.641C178.026 243.592 177.899 244.405 177.646 245.078C177.393 245.749 177.028 246.261 176.551 246.616C176.074 246.969 175.5 247.145 174.83 247.145ZM174.83 246.007C175.42 246.007 175.882 245.719 176.214 245.142C176.55 244.565 176.717 243.732 176.717 242.641C176.717 241.916 176.641 241.304 176.487 240.804C176.337 240.301 176.119 239.92 175.835 239.662C175.554 239.401 175.219 239.27 174.83 239.27C174.241 239.27 173.78 239.56 173.445 240.139C173.109 240.719 172.94 241.553 172.937 242.641C172.937 243.368 173.013 243.983 173.163 244.486C173.317 244.986 173.534 245.365 173.815 245.624C174.097 245.879 174.435 246.007 174.83 246.007ZM182.418 247.119C181.884 247.119 181.404 247.017 180.978 246.812C180.554 246.605 180.216 246.321 179.963 245.96C179.711 245.599 179.576 245.188 179.559 244.724H180.837C180.868 245.099 181.034 245.408 181.336 245.649C181.637 245.891 181.997 246.011 182.418 246.011C182.753 246.011 183.05 245.935 183.309 245.781C183.57 245.625 183.774 245.411 183.922 245.138C184.073 244.865 184.148 244.554 184.148 244.205C184.148 243.849 184.071 243.533 183.918 243.254C183.765 242.976 183.553 242.757 183.283 242.598C183.016 242.439 182.709 242.358 182.363 242.355C182.098 242.355 181.833 242.401 181.566 242.491C181.299 242.582 181.083 242.702 180.918 242.849L179.712 242.67L180.202 238.273H185V239.402H181.297L181.02 241.844H181.071C181.242 241.679 181.468 241.541 181.749 241.43C182.033 241.32 182.337 241.264 182.661 241.264C183.192 241.264 183.665 241.391 184.08 241.643C184.497 241.896 184.826 242.241 185.064 242.679C185.306 243.114 185.425 243.614 185.422 244.179C185.425 244.744 185.297 245.249 185.039 245.692C184.783 246.135 184.428 246.484 183.973 246.74C183.522 246.993 183.003 247.119 182.418 247.119Z" fill="#7C7C8D"/>
<path d="M210.878 238.273V247H209.557V239.594H209.505L207.417 240.957V239.696L209.595 238.273H210.878ZM216.277 247.145C215.603 247.142 215.028 246.964 214.551 246.612C214.074 246.26 213.709 245.747 213.456 245.074C213.203 244.401 213.076 243.589 213.076 242.641C213.076 241.695 213.203 240.886 213.456 240.216C213.711 239.545 214.078 239.034 214.555 238.682C215.035 238.33 215.609 238.153 216.277 238.153C216.944 238.153 217.517 238.331 217.994 238.686C218.471 239.038 218.836 239.55 219.089 240.22C219.345 240.888 219.473 241.695 219.473 242.641C219.473 243.592 219.346 244.405 219.094 245.078C218.841 245.749 218.476 246.261 217.998 246.616C217.521 246.969 216.947 247.145 216.277 247.145ZM216.277 246.007C216.868 246.007 217.329 245.719 217.662 245.142C217.997 244.565 218.165 243.732 218.165 242.641C218.165 241.916 218.088 241.304 217.934 240.804C217.784 240.301 217.567 239.92 217.282 239.662C217.001 239.401 216.666 239.27 216.277 239.27C215.689 239.27 215.227 239.56 214.892 240.139C214.557 240.719 214.388 241.553 214.385 242.641C214.385 243.368 214.46 243.983 214.611 244.486C214.764 244.986 214.981 245.365 215.263 245.624C215.544 245.879 215.882 246.007 216.277 246.007ZM221.525 247.081C221.292 247.081 221.091 246.999 220.924 246.834C220.756 246.666 220.672 246.464 220.672 246.229C220.672 245.996 220.756 245.797 220.924 245.632C221.091 245.464 221.292 245.381 221.525 245.381C221.758 245.381 221.958 245.464 222.125 245.632C222.293 245.797 222.377 245.996 222.377 246.229C222.377 246.385 222.337 246.528 222.258 246.659C222.181 246.787 222.079 246.889 221.951 246.966C221.823 247.043 221.681 247.081 221.525 247.081ZM226.788 247.145C226.115 247.142 225.54 246.964 225.063 246.612C224.585 246.26 224.22 245.747 223.967 245.074C223.715 244.401 223.588 243.589 223.588 242.641C223.588 241.695 223.715 240.886 223.967 240.216C224.223 239.545 224.59 239.034 225.067 238.682C225.547 238.33 226.121 238.153 226.788 238.153C227.456 238.153 228.029 238.331 228.506 238.686C228.983 239.038 229.348 239.55 229.601 240.22C229.857 240.888 229.985 241.695 229.985 242.641C229.985 243.592 229.858 244.405 229.605 245.078C229.352 245.749 228.987 246.261 228.51 246.616C228.033 246.969 227.459 247.145 226.788 247.145ZM226.788 246.007C227.379 246.007 227.841 245.719 228.173 245.142C228.509 244.565 228.676 243.732 228.676 242.641C228.676 241.916 228.6 241.304 228.446 240.804C228.296 240.301 228.078 239.92 227.794 239.662C227.513 239.401 227.178 239.27 226.788 239.27C226.2 239.27 225.739 239.56 225.404 240.139C225.068 240.719 224.899 241.553 224.896 242.641C224.896 243.368 224.972 243.983 225.122 244.486C225.276 244.986 225.493 245.365 225.774 245.624C226.056 245.879 226.394 246.007 226.788 246.007ZM234.377 247.119C233.843 247.119 233.363 247.017 232.937 246.812C232.513 246.605 232.175 246.321 231.922 245.96C231.67 245.599 231.535 245.188 231.518 244.724H232.796C232.827 245.099 232.993 245.408 233.295 245.649C233.596 245.891 233.956 246.011 234.377 246.011C234.712 246.011 235.009 245.935 235.268 245.781C235.529 245.625 235.733 245.411 235.881 245.138C236.032 244.865 236.107 244.554 236.107 244.205C236.107 243.849 236.03 243.533 235.877 243.254C235.723 242.976 235.512 242.757 235.242 242.598C234.975 242.439 234.668 242.358 234.322 242.355C234.057 242.355 233.792 242.401 233.525 242.491C233.258 242.582 233.042 242.702 232.877 242.849L231.671 242.67L232.161 238.273H236.959V239.402H233.256L232.979 241.844H233.03C233.201 241.679 233.427 241.541 233.708 241.43C233.992 241.32 234.296 241.264 234.62 241.264C235.151 241.264 235.624 241.391 236.039 241.643C236.456 241.896 236.785 242.241 237.023 242.679C237.265 243.114 237.384 243.614 237.381 244.179C237.384 244.744 237.256 245.249 236.998 245.692C236.742 246.135 236.387 246.484 235.932 246.74C235.481 246.993 234.962 247.119 234.377 247.119Z" fill="#7C7C8D"/>
<path d="M263.06 238.273V247H261.739V239.594H261.688L259.6 240.957V239.696L261.777 238.273H263.06ZM265.421 247V246.045L268.374 242.986C268.689 242.653 268.949 242.362 269.153 242.112C269.361 241.859 269.516 241.619 269.618 241.392C269.72 241.165 269.771 240.923 269.771 240.668C269.771 240.378 269.703 240.128 269.567 239.918C269.43 239.705 269.244 239.541 269.009 239.428C268.773 239.311 268.507 239.253 268.212 239.253C267.899 239.253 267.627 239.317 267.394 239.445C267.161 239.572 266.982 239.753 266.857 239.986C266.732 240.219 266.669 240.491 266.669 240.804H265.412C265.412 240.273 265.534 239.808 265.778 239.411C266.023 239.013 266.358 238.705 266.784 238.486C267.21 238.264 267.695 238.153 268.237 238.153C268.786 238.153 269.269 238.263 269.686 238.482C270.107 238.697 270.435 238.993 270.671 239.368C270.906 239.74 271.024 240.161 271.024 240.629C271.024 240.953 270.963 241.27 270.841 241.58C270.722 241.889 270.513 242.234 270.215 242.615C269.916 242.993 269.502 243.452 268.97 243.991L267.236 245.807V245.871H271.165V247H265.421ZM273.636 247.081C273.403 247.081 273.203 246.999 273.036 246.834C272.868 246.666 272.784 246.464 272.784 246.229C272.784 245.996 272.868 245.797 273.036 245.632C273.203 245.464 273.403 245.381 273.636 245.381C273.869 245.381 274.07 245.464 274.237 245.632C274.405 245.797 274.489 245.996 274.489 246.229C274.489 246.385 274.449 246.528 274.369 246.659C274.293 246.787 274.19 246.889 274.063 246.966C273.935 247.043 273.793 247.081 273.636 247.081ZM278.9 247.145C278.227 247.142 277.652 246.964 277.174 246.612C276.697 246.26 276.332 245.747 276.079 245.074C275.826 244.401 275.7 243.589 275.7 242.641C275.7 241.695 275.826 240.886 276.079 240.216C276.335 239.545 276.701 239.034 277.179 238.682C277.659 238.33 278.233 238.153 278.9 238.153C279.568 238.153 280.14 238.331 280.618 238.686C281.095 239.038 281.46 239.55 281.713 240.22C281.968 240.888 282.096 241.695 282.096 242.641C282.096 243.592 281.97 244.405 281.717 245.078C281.464 245.749 281.099 246.261 280.622 246.616C280.145 246.969 279.571 247.145 278.9 247.145ZM278.9 246.007C279.491 246.007 279.953 245.719 280.285 245.142C280.62 244.565 280.788 243.732 280.788 242.641C280.788 241.916 280.711 241.304 280.558 240.804C280.407 240.301 280.19 239.92 279.906 239.662C279.625 239.401 279.29 239.27 278.9 239.27C278.312 239.27 277.851 239.56 277.515 240.139C277.18 240.719 277.011 241.553 277.008 242.641C277.008 243.368 277.084 243.983 277.234 244.486C277.388 244.986 277.605 245.365 277.886 245.624C278.167 245.879 278.505 246.007 278.9 246.007ZM286.489 247.119C285.955 247.119 285.475 247.017 285.048 246.812C284.625 246.605 284.287 246.321 284.034 245.96C283.781 245.599 283.646 245.188 283.629 244.724H284.908C284.939 245.099 285.105 245.408 285.406 245.649C285.707 245.891 286.068 246.011 286.489 246.011C286.824 246.011 287.121 245.935 287.379 245.781C287.641 245.625 287.845 245.411 287.993 245.138C288.144 244.865 288.219 244.554 288.219 244.205C288.219 243.849 288.142 243.533 287.989 243.254C287.835 242.976 287.624 242.757 287.354 242.598C287.087 242.439 286.78 242.358 286.433 242.355C286.169 242.355 285.903 242.401 285.636 242.491C285.369 242.582 285.153 242.702 284.989 242.849L283.783 242.67L284.273 238.273H289.071V239.402H285.368L285.091 241.844H285.142C285.313 241.679 285.538 241.541 285.82 241.43C286.104 241.32 286.408 241.264 286.732 241.264C287.263 241.264 287.736 241.391 288.151 241.643C288.568 241.896 288.896 242.241 289.135 242.679C289.377 243.114 289.496 243.614 289.493 244.179C289.496 244.744 289.368 245.249 289.109 245.692C288.854 246.135 288.499 246.484 288.044 246.74C287.592 246.993 287.074 247.119 286.489 247.119Z" fill="#7C7C8D"/>
<path d="M315.241 238.273V247H313.92V239.594H313.869L311.781 240.957V239.696L313.959 238.273H315.241ZM320.649 247.119C320.26 247.114 319.876 247.043 319.498 246.906C319.123 246.77 318.783 246.543 318.476 246.224C318.169 245.906 317.923 245.479 317.739 244.942C317.557 244.405 317.466 243.734 317.466 242.93C317.466 242.169 317.541 241.493 317.692 240.902C317.845 240.311 318.065 239.812 318.352 239.406C318.639 238.997 318.986 238.686 319.392 238.473C319.798 238.26 320.254 238.153 320.76 238.153C321.28 238.153 321.741 238.256 322.145 238.46C322.548 238.665 322.875 238.947 323.125 239.308C323.378 239.669 323.538 240.08 323.606 240.54H322.307C322.219 240.176 322.044 239.879 321.783 239.649C321.521 239.419 321.18 239.304 320.76 239.304C320.121 239.304 319.622 239.582 319.264 240.139C318.909 240.696 318.73 241.47 318.727 242.462H318.791C318.942 242.214 319.126 242.004 319.345 241.831C319.567 241.655 319.814 241.52 320.087 241.426C320.362 241.33 320.652 241.281 320.956 241.281C321.462 241.281 321.919 241.405 322.328 241.652C322.74 241.896 323.068 242.234 323.312 242.666C323.557 243.098 323.679 243.592 323.679 244.149C323.679 244.706 323.552 245.21 323.3 245.662C323.05 246.114 322.697 246.472 322.243 246.736C321.788 246.997 321.257 247.125 320.649 247.119ZM320.645 246.011C320.98 246.011 321.28 245.929 321.544 245.764C321.808 245.599 322.017 245.378 322.17 245.099C322.324 244.821 322.4 244.51 322.4 244.166C322.4 243.831 322.325 243.526 322.175 243.25C322.027 242.974 321.822 242.756 321.561 242.594C321.302 242.432 321.007 242.351 320.675 242.351C320.422 242.351 320.187 242.399 319.972 242.496C319.758 242.592 319.571 242.726 319.409 242.896C319.247 243.067 319.119 243.263 319.025 243.484C318.935 243.703 318.889 243.935 318.889 244.179C318.889 244.506 318.964 244.808 319.115 245.087C319.268 245.365 319.477 245.589 319.741 245.76C320.008 245.928 320.31 246.011 320.645 246.011ZM325.689 247.081C325.456 247.081 325.256 246.999 325.088 246.834C324.921 246.666 324.837 246.464 324.837 246.229C324.837 245.996 324.921 245.797 325.088 245.632C325.256 245.464 325.456 245.381 325.689 245.381C325.922 245.381 326.122 245.464 326.29 245.632C326.458 245.797 326.541 245.996 326.541 246.229C326.541 246.385 326.502 246.528 326.422 246.659C326.345 246.787 326.243 246.889 326.115 246.966C325.987 247.043 325.845 247.081 325.689 247.081ZM330.953 247.145C330.28 247.142 329.704 246.964 329.227 246.612C328.75 246.26 328.385 245.747 328.132 245.074C327.879 244.401 327.753 243.589 327.753 242.641C327.753 241.695 327.879 240.886 328.132 240.216C328.388 239.545 328.754 239.034 329.231 238.682C329.712 238.33 330.285 238.153 330.953 238.153C331.621 238.153 332.193 238.331 332.67 238.686C333.148 239.038 333.513 239.55 333.766 240.22C334.021 240.888 334.149 241.695 334.149 242.641C334.149 243.592 334.023 244.405 333.77 245.078C333.517 245.749 333.152 246.261 332.675 246.616C332.197 246.969 331.623 247.145 330.953 247.145ZM330.953 246.007C331.544 246.007 332.006 245.719 332.338 245.142C332.673 244.565 332.841 243.732 332.841 242.641C332.841 241.916 332.764 241.304 332.611 240.804C332.46 240.301 332.243 239.92 331.959 239.662C331.677 239.401 331.342 239.27 330.953 239.27C330.365 239.27 329.903 239.56 329.568 240.139C329.233 240.719 329.064 241.553 329.061 242.641C329.061 243.368 329.136 243.983 329.287 244.486C329.44 244.986 329.658 245.365 329.939 245.624C330.22 245.879 330.558 246.007 330.953 246.007ZM338.541 247.119C338.007 247.119 337.527 247.017 337.101 246.812C336.678 246.605 336.34 246.321 336.087 245.96C335.834 245.599 335.699 245.188 335.682 244.724H336.96C336.992 245.099 337.158 245.408 337.459 245.649C337.76 245.891 338.121 246.011 338.541 246.011C338.877 246.011 339.174 245.935 339.432 245.781C339.693 245.625 339.898 245.411 340.046 245.138C340.196 244.865 340.272 244.554 340.272 244.205C340.272 243.849 340.195 243.533 340.041 243.254C339.888 242.976 339.676 242.757 339.407 242.598C339.139 242.439 338.833 242.358 338.486 242.355C338.222 242.355 337.956 242.401 337.689 242.491C337.422 242.582 337.206 242.702 337.041 242.849L335.835 242.67L336.326 238.273H341.124V239.402H337.421L337.144 241.844H337.195C337.365 241.679 337.591 241.541 337.872 241.43C338.157 241.32 338.46 241.264 338.784 241.264C339.316 241.264 339.789 241.391 340.203 241.643C340.621 241.896 340.949 242.241 341.188 242.679C341.429 243.114 341.549 243.614 341.546 244.179C341.549 244.744 341.421 245.249 341.162 245.692C340.907 246.135 340.551 246.484 340.097 246.74C339.645 246.993 339.127 247.119 338.541 247.119Z" fill="#7C7C8D"/>
<path d="M367.424 238.273V247H366.102V239.594H366.051L363.963 240.957V239.696L366.141 238.273H367.424ZM372.686 238.153C373.076 238.156 373.459 238.227 373.837 238.366C374.215 238.506 374.556 238.733 374.86 239.048C375.166 239.364 375.411 239.79 375.593 240.327C375.777 240.861 375.871 241.526 375.874 242.321C375.874 243.085 375.797 243.766 375.644 244.362C375.49 244.956 375.27 245.457 374.983 245.866C374.699 246.276 374.354 246.587 373.948 246.8C373.541 247.013 373.084 247.119 372.576 247.119C372.056 247.119 371.594 247.017 371.191 246.812C370.787 246.608 370.459 246.325 370.206 245.964C369.953 245.601 369.796 245.183 369.733 244.712H371.033C371.118 245.087 371.291 245.391 371.553 245.624C371.817 245.854 372.158 245.969 372.576 245.969C373.215 245.969 373.713 245.69 374.071 245.134C374.429 244.574 374.61 243.793 374.612 242.79H374.544C374.397 243.034 374.212 243.244 373.99 243.42C373.772 243.597 373.526 243.733 373.253 243.83C372.98 243.926 372.689 243.974 372.379 243.974C371.877 243.974 371.419 243.851 371.007 243.604C370.595 243.357 370.267 243.017 370.023 242.585C369.779 242.153 369.656 241.661 369.656 241.107C369.656 240.555 369.781 240.055 370.031 239.607C370.284 239.158 370.637 238.803 371.088 238.541C371.543 238.277 372.076 238.148 372.686 238.153ZM372.691 239.261C372.358 239.261 372.058 239.344 371.791 239.509C371.527 239.67 371.318 239.891 371.165 240.169C371.012 240.445 370.935 240.751 370.935 241.089C370.935 241.428 371.009 241.734 371.156 242.01C371.307 242.283 371.512 242.5 371.77 242.662C372.031 242.821 372.33 242.901 372.665 242.901C372.915 242.901 373.148 242.852 373.364 242.756C373.58 242.659 373.769 242.526 373.931 242.355C374.093 242.182 374.219 241.986 374.31 241.767C374.401 241.548 374.446 241.318 374.446 241.077C374.446 240.756 374.37 240.457 374.216 240.182C374.066 239.906 373.858 239.685 373.594 239.517C373.33 239.347 373.029 239.261 372.691 239.261ZM377.953 247.081C377.72 247.081 377.52 246.999 377.352 246.834C377.185 246.666 377.101 246.464 377.101 246.229C377.101 245.996 377.185 245.797 377.352 245.632C377.52 245.464 377.72 245.381 377.953 245.381C378.186 245.381 378.387 245.464 378.554 245.632C378.722 245.797 378.806 245.996 378.806 246.229C378.806 246.385 378.766 246.528 378.686 246.659C378.61 246.787 378.507 246.889 378.379 246.966C378.252 247.043 378.11 247.081 377.953 247.081ZM383.217 247.145C382.544 247.142 381.969 246.964 381.491 246.612C381.014 246.26 380.649 245.747 380.396 245.074C380.143 244.401 380.017 243.589 380.017 242.641C380.017 241.695 380.143 240.886 380.396 240.216C380.652 239.545 381.018 239.034 381.496 238.682C381.976 238.33 382.55 238.153 383.217 238.153C383.885 238.153 384.457 238.331 384.935 238.686C385.412 239.038 385.777 239.55 386.03 240.22C386.285 240.888 386.413 241.695 386.413 242.641C386.413 243.592 386.287 244.405 386.034 245.078C385.781 245.749 385.416 246.261 384.939 246.616C384.462 246.969 383.888 247.145 383.217 247.145ZM383.217 246.007C383.808 246.007 384.27 245.719 384.602 245.142C384.937 244.565 385.105 243.732 385.105 242.641C385.105 241.916 385.028 241.304 384.875 240.804C384.724 240.301 384.507 239.92 384.223 239.662C383.942 239.401 383.606 239.27 383.217 239.27C382.629 239.27 382.167 239.56 381.832 240.139C381.497 240.719 381.328 241.553 381.325 242.641C381.325 243.368 381.4 243.983 381.551 244.486C381.704 244.986 381.922 245.365 382.203 245.624C382.484 245.879 382.822 246.007 383.217 246.007ZM390.806 247.119C390.272 247.119 389.791 247.017 389.365 246.812C388.942 246.605 388.604 246.321 388.351 245.96C388.098 245.599 387.963 245.188 387.946 244.724H389.225C389.256 245.099 389.422 245.408 389.723 245.649C390.024 245.891 390.385 246.011 390.806 246.011C391.141 246.011 391.438 245.935 391.696 245.781C391.958 245.625 392.162 245.411 392.31 245.138C392.46 244.865 392.536 244.554 392.536 244.205C392.536 243.849 392.459 243.533 392.306 243.254C392.152 242.976 391.941 242.757 391.671 242.598C391.404 242.439 391.097 242.358 390.75 242.355C390.486 242.355 390.22 242.401 389.953 242.491C389.686 242.582 389.47 242.702 389.306 242.849L388.1 242.67L388.59 238.273H393.388V239.402H389.685L389.408 241.844H389.459C389.629 241.679 389.855 241.541 390.137 241.43C390.421 241.32 390.725 241.264 391.049 241.264C391.58 241.264 392.053 241.391 392.468 241.643C392.885 241.896 393.213 242.241 393.452 242.679C393.693 243.114 393.813 243.614 393.81 244.179C393.813 244.744 393.685 245.249 393.426 245.692C393.171 246.135 392.816 246.484 392.361 246.74C391.909 246.993 391.391 247.119 390.806 247.119Z" fill="#7C7C8D"/>
<path d="M416.294 247V246.045L419.247 242.986C419.563 242.653 419.822 242.362 420.027 242.112C420.234 241.859 420.389 241.619 420.492 241.392C420.594 241.165 420.645 240.923 420.645 240.668C420.645 240.378 420.577 240.128 420.44 239.918C420.304 239.705 420.118 239.541 419.882 239.428C419.646 239.311 419.381 239.253 419.085 239.253C418.773 239.253 418.5 239.317 418.267 239.445C418.034 239.572 417.855 239.753 417.73 239.986C417.605 240.219 417.543 240.491 417.543 240.804H416.286C416.286 240.273 416.408 239.808 416.652 239.411C416.896 239.013 417.232 238.705 417.658 238.486C418.084 238.264 418.568 238.153 419.111 238.153C419.659 238.153 420.142 238.263 420.56 238.482C420.98 238.697 421.308 238.993 421.544 239.368C421.78 239.74 421.898 240.161 421.898 240.629C421.898 240.953 421.837 241.27 421.715 241.58C421.595 241.889 421.386 242.234 421.088 242.615C420.79 242.993 420.375 243.452 419.844 243.991L418.109 245.807V245.871H422.038V247H416.294ZM423.653 247V246.045L426.607 242.986C426.922 242.653 427.182 242.362 427.386 242.112C427.594 241.859 427.749 241.619 427.851 241.392C427.953 241.165 428.004 240.923 428.004 240.668C428.004 240.378 427.936 240.128 427.8 239.918C427.663 239.705 427.477 239.541 427.242 239.428C427.006 239.311 426.74 239.253 426.445 239.253C426.132 239.253 425.859 239.317 425.626 239.445C425.394 239.572 425.215 239.753 425.09 239.986C424.965 240.219 424.902 240.491 424.902 240.804H423.645C423.645 240.273 423.767 239.808 424.011 239.411C424.256 239.013 424.591 238.705 425.017 238.486C425.443 238.264 425.928 238.153 426.47 238.153C427.019 238.153 427.501 238.263 427.919 238.482C428.34 238.697 428.668 238.993 428.903 239.368C429.139 239.74 429.257 240.161 429.257 240.629C429.257 240.953 429.196 241.27 429.074 241.58C428.955 241.889 428.746 242.234 428.447 242.615C428.149 242.993 427.734 243.452 427.203 243.991L425.469 245.807V245.871H429.398V247H423.653ZM431.869 247.081C431.636 247.081 431.436 246.999 431.269 246.834C431.101 246.666 431.017 246.464 431.017 246.229C431.017 245.996 431.101 245.797 431.269 245.632C431.436 245.464 431.636 245.381 431.869 245.381C432.102 245.381 432.303 245.464 432.47 245.632C432.638 245.797 432.722 245.996 432.722 246.229C432.722 246.385 432.682 246.528 432.602 246.659C432.526 246.787 432.423 246.889 432.295 246.966C432.168 247.043 432.026 247.081 431.869 247.081ZM437.133 247.145C436.46 247.142 435.885 246.964 435.407 246.612C434.93 246.26 434.565 245.747 434.312 245.074C434.059 244.401 433.933 243.589 433.933 242.641C433.933 241.695 434.059 240.886 434.312 240.216C434.568 239.545 434.934 239.034 435.412 238.682C435.892 238.33 436.466 238.153 437.133 238.153C437.801 238.153 438.373 238.331 438.851 238.686C439.328 239.038 439.693 239.55 439.946 240.22C440.201 240.888 440.329 241.695 440.329 242.641C440.329 243.592 440.203 244.405 439.95 245.078C439.697 245.749 439.332 246.261 438.855 246.616C438.378 246.969 437.804 247.145 437.133 247.145ZM437.133 246.007C437.724 246.007 438.186 245.719 438.518 245.142C438.853 244.565 439.021 243.732 439.021 242.641C439.021 241.916 438.944 241.304 438.791 240.804C438.64 240.301 438.423 239.92 438.139 239.662C437.858 239.401 437.522 239.27 437.133 239.27C436.545 239.27 436.083 239.56 435.748 240.139C435.413 240.719 435.244 241.553 435.241 242.641C435.241 243.368 435.316 243.983 435.467 244.486C435.62 244.986 435.838 245.365 436.119 245.624C436.4 245.879 436.738 246.007 437.133 246.007ZM444.722 247.119C444.188 247.119 443.707 247.017 443.281 246.812C442.858 246.605 442.52 246.321 442.267 245.96C442.014 245.599 441.879 245.188 441.862 244.724H443.141C443.172 245.099 443.338 245.408 443.639 245.649C443.94 245.891 444.301 246.011 444.722 246.011C445.057 246.011 445.354 245.935 445.612 245.781C445.874 245.625 446.078 245.411 446.226 245.138C446.376 244.865 446.452 244.554 446.452 244.205C446.452 243.849 446.375 243.533 446.222 243.254C446.068 242.976 445.857 242.757 445.587 242.598C445.32 242.439 445.013 242.358 444.666 242.355C444.402 242.355 444.136 242.401 443.869 242.491C443.602 242.582 443.386 242.702 443.222 242.849L442.016 242.67L442.506 238.273H447.304V239.402H443.601L443.324 241.844H443.375C443.545 241.679 443.771 241.541 444.053 241.43C444.337 241.32 444.641 241.264 444.965 241.264C445.496 241.264 445.969 241.391 446.384 241.643C446.801 241.896 447.129 242.241 447.368 242.679C447.609 243.114 447.729 243.614 447.726 244.179C447.729 244.744 447.601 245.249 447.342 245.692C447.087 246.135 446.732 246.484 446.277 246.74C445.825 246.993 445.307 247.119 444.722 247.119Z" fill="#7C7C8D"/>
<path d="M469.476 247V246.045L472.429 242.986C472.744 242.653 473.004 242.362 473.209 242.112C473.416 241.859 473.571 241.619 473.673 241.392C473.775 241.165 473.827 240.923 473.827 240.668C473.827 240.378 473.758 240.128 473.622 239.918C473.486 239.705 473.3 239.541 473.064 239.428C472.828 239.311 472.562 239.253 472.267 239.253C471.954 239.253 471.682 239.317 471.449 239.445C471.216 239.572 471.037 239.753 470.912 239.986C470.787 240.219 470.724 240.491 470.724 240.804H469.467C469.467 240.273 469.589 239.808 469.834 239.411C470.078 239.013 470.413 238.705 470.839 238.486C471.265 238.264 471.75 238.153 472.292 238.153C472.841 238.153 473.324 238.263 473.741 238.482C474.162 238.697 474.49 238.993 474.726 239.368C474.962 239.74 475.079 240.161 475.079 240.629C475.079 240.953 475.018 241.27 474.896 241.58C474.777 241.889 474.568 242.234 474.27 242.615C473.971 242.993 473.557 243.452 473.025 243.991L471.291 245.807V245.871H475.22V247H469.476ZM479.882 247.119C479.493 247.114 479.109 247.043 478.731 246.906C478.356 246.77 478.015 246.543 477.709 246.224C477.402 245.906 477.156 245.479 476.971 244.942C476.79 244.405 476.699 243.734 476.699 242.93C476.699 242.169 476.774 241.493 476.925 240.902C477.078 240.311 477.298 239.812 477.585 239.406C477.872 238.997 478.219 238.686 478.625 238.473C479.031 238.26 479.487 238.153 479.993 238.153C480.513 238.153 480.974 238.256 481.378 238.46C481.781 238.665 482.108 238.947 482.358 239.308C482.611 239.669 482.771 240.08 482.839 240.54H481.54C481.452 240.176 481.277 239.879 481.015 239.649C480.754 239.419 480.413 239.304 479.993 239.304C479.354 239.304 478.855 239.582 478.497 240.139C478.142 240.696 477.963 241.47 477.96 242.462H478.024C478.175 242.214 478.359 242.004 478.578 241.831C478.8 241.655 479.047 241.52 479.319 241.426C479.595 241.33 479.885 241.281 480.189 241.281C480.694 241.281 481.152 241.405 481.561 241.652C481.973 241.896 482.301 242.234 482.545 242.666C482.79 243.098 482.912 243.592 482.912 244.149C482.912 244.706 482.785 245.21 482.533 245.662C482.283 246.114 481.93 246.472 481.476 246.736C481.021 246.997 480.49 247.125 479.882 247.119ZM479.878 246.011C480.213 246.011 480.513 245.929 480.777 245.764C481.041 245.599 481.25 245.378 481.403 245.099C481.557 244.821 481.633 244.51 481.633 244.166C481.633 243.831 481.558 243.526 481.408 243.25C481.26 242.974 481.055 242.756 480.794 242.594C480.535 242.432 480.24 242.351 479.908 242.351C479.655 242.351 479.42 242.399 479.204 242.496C478.991 242.592 478.804 242.726 478.642 242.896C478.48 243.067 478.352 243.263 478.258 243.484C478.167 243.703 478.122 243.935 478.122 244.179C478.122 244.506 478.197 244.808 478.348 245.087C478.501 245.365 478.71 245.589 478.974 245.76C479.241 245.928 479.542 246.011 479.878 246.011ZM484.922 247.081C484.689 247.081 484.489 246.999 484.321 246.834C484.154 246.666 484.07 246.464 484.07 246.229C484.07 245.996 484.154 245.797 484.321 245.632C484.489 245.464 484.689 245.381 484.922 245.381C485.155 245.381 485.355 245.464 485.523 245.632C485.691 245.797 485.774 245.996 485.774 246.229C485.774 246.385 485.735 246.528 485.655 246.659C485.578 246.787 485.476 246.889 485.348 246.966C485.22 247.043 485.078 247.081 484.922 247.081ZM490.186 247.145C489.513 247.142 488.937 246.964 488.46 246.612C487.983 246.26 487.618 245.747 487.365 245.074C487.112 244.401 486.986 243.589 486.986 242.641C486.986 241.695 487.112 240.886 487.365 240.216C487.621 239.545 487.987 239.034 488.464 238.682C488.944 238.33 489.518 238.153 490.186 238.153C490.854 238.153 491.426 238.331 491.903 238.686C492.381 239.038 492.746 239.55 492.998 240.22C493.254 240.888 493.382 241.695 493.382 242.641C493.382 243.592 493.256 244.405 493.003 245.078C492.75 245.749 492.385 246.261 491.908 246.616C491.43 246.969 490.856 247.145 490.186 247.145ZM490.186 246.007C490.777 246.007 491.239 245.719 491.571 245.142C491.906 244.565 492.074 243.732 492.074 242.641C492.074 241.916 491.997 241.304 491.844 240.804C491.693 240.301 491.476 239.92 491.192 239.662C490.91 239.401 490.575 239.27 490.186 239.27C489.598 239.27 489.136 239.56 488.801 240.139C488.466 240.719 488.297 241.553 488.294 242.641C488.294 243.368 488.369 243.983 488.52 244.486C488.673 244.986 488.89 245.365 489.172 245.624C489.453 245.879 489.791 246.007 490.186 246.007ZM497.774 247.119C497.24 247.119 496.76 247.017 496.334 246.812C495.911 246.605 495.573 246.321 495.32 245.96C495.067 245.599 494.932 245.188 494.915 244.724H496.193C496.225 245.099 496.391 245.408 496.692 245.649C496.993 245.891 497.354 246.011 497.774 246.011C498.11 246.011 498.406 245.935 498.665 245.781C498.926 245.625 499.131 245.411 499.279 245.138C499.429 244.865 499.504 244.554 499.504 244.205C499.504 243.849 499.428 243.533 499.274 243.254C499.121 242.976 498.909 242.757 498.639 242.598C498.372 242.439 498.066 242.358 497.719 242.355C497.455 242.355 497.189 242.401 496.922 242.491C496.655 242.582 496.439 242.702 496.274 242.849L495.068 242.67L495.558 238.273H500.357V239.402H496.654L496.377 241.844H496.428C496.598 241.679 496.824 241.541 497.105 241.43C497.389 241.32 497.693 241.264 498.017 241.264C498.549 241.264 499.022 241.391 499.436 241.643C499.854 241.896 500.182 242.241 500.421 242.679C500.662 243.114 500.781 243.614 500.779 244.179C500.781 244.744 500.654 245.249 500.395 245.692C500.139 246.135 499.784 246.484 499.33 246.74C498.878 246.993 498.36 247.119 497.774 247.119Z" fill="#7C7C8D"/>
<path d="M522.658 247V246.045L525.611 242.986C525.926 242.653 526.186 242.362 526.391 242.112C526.598 241.859 526.753 241.619 526.855 241.392C526.958 241.165 527.009 240.923 527.009 240.668C527.009 240.378 526.941 240.128 526.804 239.918C526.668 239.705 526.482 239.541 526.246 239.428C526.01 239.311 525.744 239.253 525.449 239.253C525.137 239.253 524.864 239.317 524.631 239.445C524.398 239.572 524.219 239.753 524.094 239.986C523.969 240.219 523.906 240.491 523.906 240.804H522.649C522.649 240.273 522.771 239.808 523.016 239.411C523.26 239.013 523.595 238.705 524.021 238.486C524.448 238.264 524.932 238.153 525.475 238.153C526.023 238.153 526.506 238.263 526.923 238.482C527.344 238.697 527.672 238.993 527.908 239.368C528.144 239.74 528.262 240.161 528.262 240.629C528.262 240.953 528.2 241.27 528.078 241.58C527.959 241.889 527.75 242.234 527.452 242.615C527.154 242.993 526.739 243.452 526.208 243.991L524.473 245.807V245.871H528.402V247H522.658ZM532.966 247.119C532.355 247.119 531.816 247.014 531.347 246.804C530.881 246.594 530.516 246.304 530.252 245.935C529.987 245.565 529.857 245.145 529.86 244.673C529.857 244.304 529.932 243.964 530.085 243.655C530.242 243.342 530.453 243.082 530.72 242.875C530.987 242.665 531.286 242.531 531.615 242.474V242.423C531.181 242.318 530.833 242.085 530.571 241.724C530.31 241.364 530.181 240.949 530.183 240.48C530.181 240.034 530.298 239.636 530.537 239.287C530.779 238.935 531.11 238.658 531.53 238.456C531.95 238.254 532.429 238.153 532.966 238.153C533.497 238.153 533.972 238.256 534.389 238.46C534.81 238.662 535.141 238.939 535.382 239.291C535.624 239.641 535.746 240.037 535.749 240.48C535.746 240.949 535.612 241.364 535.348 241.724C535.084 242.085 534.74 242.318 534.317 242.423V242.474C534.644 242.531 534.938 242.665 535.199 242.875C535.463 243.082 535.673 243.342 535.83 243.655C535.989 243.964 536.07 244.304 536.073 244.673C536.07 245.145 535.936 245.565 535.672 245.935C535.408 246.304 535.041 246.594 534.573 246.804C534.107 247.014 533.571 247.119 532.966 247.119ZM532.966 246.041C533.327 246.041 533.639 245.982 533.904 245.862C534.168 245.74 534.372 245.571 534.517 245.355C534.662 245.136 534.736 244.881 534.739 244.588C534.736 244.284 534.656 244.016 534.5 243.783C534.347 243.55 534.138 243.366 533.874 243.233C533.61 243.099 533.307 243.033 532.966 243.033C532.622 243.033 532.317 243.099 532.05 243.233C531.783 243.366 531.573 243.55 531.419 243.783C531.266 244.016 531.191 244.284 531.193 244.588C531.191 244.881 531.26 245.136 531.402 245.355C531.547 245.571 531.753 245.74 532.02 245.862C532.287 245.982 532.602 246.041 532.966 246.041ZM532.966 241.98C533.256 241.98 533.513 241.922 533.737 241.805C533.962 241.689 534.138 241.527 534.266 241.32C534.396 241.112 534.463 240.869 534.466 240.591C534.463 240.318 534.398 240.08 534.27 239.875C534.145 239.67 533.97 239.513 533.746 239.402C533.521 239.288 533.262 239.232 532.966 239.232C532.665 239.232 532.401 239.288 532.173 239.402C531.949 239.513 531.774 239.67 531.649 239.875C531.524 240.08 531.463 240.318 531.466 240.591C531.463 240.869 531.526 241.112 531.654 241.32C531.781 241.527 531.958 241.689 532.182 241.805C532.409 241.922 532.671 241.98 532.966 241.98ZM538.198 247.081C537.965 247.081 537.765 246.999 537.597 246.834C537.43 246.666 537.346 246.464 537.346 246.229C537.346 245.996 537.43 245.797 537.597 245.632C537.765 245.464 537.965 245.381 538.198 245.381C538.431 245.381 538.631 245.464 538.799 245.632C538.966 245.797 539.05 245.996 539.05 246.229C539.05 246.385 539.01 246.528 538.931 246.659C538.854 246.787 538.752 246.889 538.624 246.966C538.496 247.043 538.354 247.081 538.198 247.081ZM543.462 247.145C542.789 247.142 542.213 246.964 541.736 246.612C541.259 246.26 540.894 245.747 540.641 245.074C540.388 244.401 540.262 243.589 540.262 242.641C540.262 241.695 540.388 240.886 540.641 240.216C540.896 239.545 541.263 239.034 541.74 238.682C542.22 238.33 542.794 238.153 543.462 238.153C544.129 238.153 544.702 238.331 545.179 238.686C545.656 239.038 546.021 239.55 546.274 240.22C546.53 240.888 546.658 241.695 546.658 242.641C546.658 243.592 546.531 244.405 546.279 245.078C546.026 245.749 545.661 246.261 545.183 246.616C544.706 246.969 544.132 247.145 543.462 247.145ZM543.462 246.007C544.053 246.007 544.514 245.719 544.847 245.142C545.182 244.565 545.35 243.732 545.35 242.641C545.35 241.916 545.273 241.304 545.119 240.804C544.969 240.301 544.752 239.92 544.468 239.662C544.186 239.401 543.851 239.27 543.462 239.27C542.874 239.27 542.412 239.56 542.077 240.139C541.742 240.719 541.573 241.553 541.57 242.641C541.57 243.368 541.645 243.983 541.796 244.486C541.949 244.986 542.166 245.365 542.448 245.624C542.729 245.879 543.067 246.007 543.462 246.007ZM551.05 247.119C550.516 247.119 550.036 247.017 549.61 246.812C549.187 246.605 548.849 246.321 548.596 245.96C548.343 245.599 548.208 245.188 548.191 244.724H549.469C549.501 245.099 549.667 245.408 549.968 245.649C550.269 245.891 550.63 246.011 551.05 246.011C551.385 246.011 551.682 245.935 551.941 245.781C552.202 245.625 552.407 245.411 552.555 245.138C552.705 244.865 552.78 244.554 552.78 244.205C552.78 243.849 552.704 243.533 552.55 243.254C552.397 242.976 552.185 242.757 551.915 242.598C551.648 242.439 551.341 242.358 550.995 242.355C550.731 242.355 550.465 242.401 550.198 242.491C549.931 242.582 549.715 242.702 549.55 242.849L548.344 242.67L548.834 238.273H553.633V239.402H549.93L549.653 241.844H549.704C549.874 241.679 550.1 241.541 550.381 241.43C550.665 241.32 550.969 241.264 551.293 241.264C551.824 241.264 552.297 241.391 552.712 241.643C553.13 241.896 553.458 242.241 553.697 242.679C553.938 243.114 554.057 243.614 554.055 244.179C554.057 244.744 553.93 245.249 553.671 245.692C553.415 246.135 553.06 246.484 552.606 246.74C552.154 246.993 551.635 247.119 551.05 247.119Z" fill="#7C7C8D"/>
<path d="M578.878 247.119C578.293 247.119 577.77 247.018 577.31 246.817C576.852 246.615 576.49 246.335 576.223 245.977C575.959 245.616 575.817 245.199 575.797 244.724H577.135C577.152 244.983 577.239 245.207 577.395 245.398C577.554 245.585 577.761 245.73 578.017 245.832C578.273 245.935 578.557 245.986 578.869 245.986C579.213 245.986 579.517 245.926 579.781 245.807C580.048 245.687 580.257 245.521 580.408 245.308C580.558 245.092 580.634 244.844 580.634 244.562C580.634 244.27 580.558 244.013 580.408 243.791C580.26 243.567 580.043 243.391 579.756 243.263C579.472 243.135 579.128 243.071 578.724 243.071H577.987V241.997H578.724C579.048 241.997 579.332 241.939 579.577 241.822C579.824 241.706 580.017 241.544 580.156 241.337C580.295 241.126 580.365 240.881 580.365 240.599C580.365 240.33 580.304 240.095 580.182 239.896C580.063 239.695 579.892 239.537 579.67 239.423C579.452 239.31 579.193 239.253 578.895 239.253C578.611 239.253 578.345 239.305 578.098 239.411C577.854 239.513 577.655 239.661 577.501 239.854C577.348 240.044 577.266 240.273 577.254 240.54H575.98C575.994 240.068 576.134 239.653 576.398 239.295C576.665 238.937 577.017 238.658 577.455 238.456C577.892 238.254 578.378 238.153 578.912 238.153C579.472 238.153 579.955 238.263 580.361 238.482C580.77 238.697 581.085 238.986 581.307 239.347C581.531 239.707 581.642 240.102 581.639 240.531C581.642 241.02 581.506 241.435 581.23 241.776C580.957 242.116 580.594 242.345 580.139 242.462V242.53C580.719 242.618 581.168 242.848 581.486 243.22C581.807 243.592 581.966 244.054 581.963 244.605C581.966 245.085 581.832 245.516 581.562 245.896C581.295 246.277 580.93 246.577 580.467 246.795C580.004 247.011 579.474 247.119 578.878 247.119ZM586.612 247.145C585.939 247.142 585.364 246.964 584.886 246.612C584.409 246.26 584.044 245.747 583.791 245.074C583.538 244.401 583.412 243.589 583.412 242.641C583.412 241.695 583.538 240.886 583.791 240.216C584.047 239.545 584.413 239.034 584.891 238.682C585.371 238.33 585.945 238.153 586.612 238.153C587.28 238.153 587.852 238.331 588.33 238.686C588.807 239.038 589.172 239.55 589.425 240.22C589.68 240.888 589.808 241.695 589.808 242.641C589.808 243.592 589.682 244.405 589.429 245.078C589.176 245.749 588.811 246.261 588.334 246.616C587.857 246.969 587.283 247.145 586.612 247.145ZM586.612 246.007C587.203 246.007 587.665 245.719 587.997 245.142C588.332 244.565 588.5 243.732 588.5 242.641C588.5 241.916 588.423 241.304 588.27 240.804C588.119 240.301 587.902 239.92 587.618 239.662C587.337 239.401 587.001 239.27 586.612 239.27C586.024 239.27 585.563 239.56 585.227 240.139C584.892 240.719 584.723 241.553 584.72 242.641C584.72 243.368 584.795 243.983 584.946 244.486C585.099 244.986 585.317 245.365 585.598 245.624C585.879 245.879 586.217 246.007 586.612 246.007ZM591.86 247.081C591.627 247.081 591.427 246.999 591.259 246.834C591.092 246.666 591.008 246.464 591.008 246.229C591.008 245.996 591.092 245.797 591.259 245.632C591.427 245.464 591.627 245.381 591.86 245.381C592.093 245.381 592.293 245.464 592.461 245.632C592.629 245.797 592.712 245.996 592.712 246.229C592.712 246.385 592.673 246.528 592.593 246.659C592.516 246.787 592.414 246.889 592.286 246.966C592.158 247.043 592.016 247.081 591.86 247.081ZM597.124 247.145C596.451 247.142 595.875 246.964 595.398 246.612C594.921 246.26 594.556 245.747 594.303 245.074C594.05 244.401 593.924 243.589 593.924 242.641C593.924 241.695 594.05 240.886 594.303 240.216C594.559 239.545 594.925 239.034 595.402 238.682C595.882 238.33 596.456 238.153 597.124 238.153C597.792 238.153 598.364 238.331 598.841 238.686C599.319 239.038 599.684 239.55 599.936 240.22C600.192 240.888 600.32 241.695 600.32 242.641C600.32 243.592 600.194 244.405 599.941 245.078C599.688 245.749 599.323 246.261 598.846 246.616C598.368 246.969 597.794 247.145 597.124 247.145ZM597.124 246.007C597.715 246.007 598.176 245.719 598.509 245.142C598.844 244.565 599.012 243.732 599.012 242.641C599.012 241.916 598.935 241.304 598.782 240.804C598.631 240.301 598.414 239.92 598.13 239.662C597.848 239.401 597.513 239.27 597.124 239.27C596.536 239.27 596.074 239.56 595.739 240.139C595.404 240.719 595.235 241.553 595.232 242.641C595.232 243.368 595.307 243.983 595.458 244.486C595.611 244.986 595.828 245.365 596.11 245.624C596.391 245.879 596.729 246.007 597.124 246.007ZM604.712 247.119C604.178 247.119 603.698 247.017 603.272 246.812C602.849 246.605 602.511 246.321 602.258 245.96C602.005 245.599 601.87 245.188 601.853 244.724H603.131C603.163 245.099 603.329 245.408 603.63 245.649C603.931 245.891 604.292 246.011 604.712 246.011C605.048 246.011 605.344 245.935 605.603 245.781C605.864 245.625 606.069 245.411 606.217 245.138C606.367 244.865 606.442 244.554 606.442 244.205C606.442 243.849 606.366 243.533 606.212 243.254C606.059 242.976 605.847 242.757 605.577 242.598C605.31 242.439 605.004 242.358 604.657 242.355C604.393 242.355 604.127 242.401 603.86 242.491C603.593 242.582 603.377 242.702 603.212 242.849L602.006 242.67L602.496 238.273H607.295V239.402H603.592L603.315 241.844H603.366C603.536 241.679 603.762 241.541 604.043 241.43C604.327 241.32 604.631 241.264 604.955 241.264C605.487 241.264 605.96 241.391 606.374 241.643C606.792 241.896 607.12 242.241 607.359 242.679C607.6 243.114 607.719 243.614 607.717 244.179C607.719 244.744 607.592 245.249 607.333 245.692C607.077 246.135 606.722 246.484 606.268 246.74C605.816 246.993 605.298 247.119 604.712 247.119Z" fill="#7C7C8D"/>
<defs>
<linearGradient id="paint0_linear_2_17414" x1="306" y1="35.5" x2="306" y2="208" gradientUnits="userSpaceOnUse">
<stop stop-color="#6866FF"/>
<stop offset="1" stop-color="#232630"/>
</linearGradient>
<linearGradient id="paint1_linear_2_17414" x1="312.234" y1="7.04346" x2="317.057" y2="222.032" gradientUnits="userSpaceOnUse">
<stop stop-color="#6260EC"/>
<stop offset="1" stop-color="#6260EB" stop-opacity="0"/>
</linearGradient>
</defs>
</svg>
