<svg width="10" height="8" viewBox="0 0 10 8" fill="none" xmlns="http://www.w3.org/2000/svg">
<path id="Vector" d="M9.73613 0.598829C9.67047 0.532624 9.59234 0.480076 9.50627 0.444215C9.42019 0.408355 9.32787 0.389893 9.23462 0.389893C9.14138 0.389893 9.04905 0.408355 8.96298 0.444215C8.8769 0.480076 8.79878 0.532624 8.73312 0.598829L3.47083 5.86818L1.25996 3.65025C1.19178 3.58439 1.1113 3.53261 1.02311 3.49785C0.934918 3.4631 0.840745 3.44605 0.745967 3.44769C0.651189 3.44933 0.557662 3.46962 0.470726 3.50741C0.383789 3.54519 0.305147 3.59973 0.239288 3.66791C0.173429 3.73609 0.121644 3.81657 0.0868889 3.90476C0.0521338 3.99295 0.0350893 4.08712 0.0367291 4.1819C0.0383689 4.27668 0.0586607 4.37021 0.0964457 4.45714C0.134231 4.54408 0.188769 4.62272 0.256947 4.68858L2.96932 7.40096C3.03499 7.46716 3.11311 7.51971 3.19918 7.55557C3.28526 7.59143 3.37758 7.60989 3.47083 7.60989C3.56407 7.60989 3.6564 7.59143 3.74247 7.55557C3.82855 7.51971 3.90667 7.46716 3.97234 7.40096L9.73613 1.63716C9.80783 1.57102 9.86505 1.49074 9.90419 1.40139C9.94332 1.31203 9.96353 1.21554 9.96353 1.11799C9.96353 1.02045 9.94332 0.923956 9.90419 0.834603C9.86505 0.745251 9.80783 0.664973 9.73613 0.598829Z" fill="white"/>
</svg>
