<svg width="18" height="18" viewBox="0 0 18 18" fill="none" xmlns="http://www.w3.org/2000/svg">
<rect width="18" height="18" rx="3" fill="#FF6370"/>
<path d="M13.7356 5.59883C13.67 5.53262 13.5919 5.48008 13.5058 5.44422C13.4197 5.40836 13.3274 5.38989 13.2341 5.38989C13.1409 5.38989 13.0486 5.40836 12.9625 5.44422C12.8764 5.48008 12.7983 5.53262 12.7326 5.59883L7.47034 10.8682L5.25947 8.65025C5.19129 8.58439 5.11081 8.53261 5.02262 8.49785C4.93443 8.4631 4.84026 8.44605 4.74548 8.44769C4.6507 8.44933 4.55717 8.46962 4.47024 8.50741C4.3833 8.54519 4.30466 8.59973 4.2388 8.66791C4.17294 8.73609 4.12116 8.81657 4.0864 8.90476C4.05165 8.99295 4.0346 9.08712 4.03624 9.1819C4.03788 9.27668 4.05817 9.37021 4.09596 9.45714C4.13374 9.54408 4.18828 9.62272 4.25646 9.68858L6.96883 12.401C7.0345 12.4672 7.11262 12.5197 7.1987 12.5556C7.28477 12.5914 7.37709 12.6099 7.47034 12.6099C7.56359 12.6099 7.65591 12.5914 7.74199 12.5556C7.82806 12.5197 7.90618 12.4672 7.97185 12.401L13.7356 6.63716C13.8073 6.57102 13.8646 6.49074 13.9037 6.40139C13.9428 6.31203 13.963 6.21554 13.963 6.11799C13.963 6.02045 13.9428 5.92396 13.9037 5.8346C13.8646 5.74525 13.8073 5.66497 13.7356 5.59883Z" fill="white"/>
</svg>
