<svg width="634" height="268" viewBox="0 0 634 268" fill="none" xmlns="http://www.w3.org/2000/svg">
<rect width="634" height="268" rx="14" fill="#101010"/>
<path d="M26.8267 46H24.4972L29.7315 31.4545H32.267L37.5014 46H35.1719L31.0597 34.0966H30.946L26.8267 46ZM27.2173 40.304H34.7741V42.1506H27.2173V40.304ZM43.8509 46.2202C42.795 46.2202 41.8859 45.9811 41.1236 45.5028C40.366 45.0199 39.7836 44.3546 39.3764 43.5071C38.9692 42.6596 38.7656 41.6889 38.7656 40.5952C38.7656 39.4872 38.974 38.5095 39.3906 37.6619C39.8073 36.8097 40.3944 36.1444 41.152 35.6662C41.9096 35.188 42.8021 34.9489 43.8295 34.9489C44.6581 34.9489 45.3968 35.1027 46.0455 35.4105C46.6941 35.7135 47.2173 36.1397 47.6151 36.6889C48.0175 37.2382 48.2566 37.8797 48.3324 38.6136H46.2656C46.152 38.1023 45.8916 37.6619 45.4844 37.2926C45.0819 36.9233 44.5421 36.7386 43.8651 36.7386C43.2732 36.7386 42.7547 36.8949 42.3097 37.2074C41.8693 37.5152 41.526 37.9555 41.2798 38.5284C41.0336 39.0966 40.9105 39.7689 40.9105 40.5455C40.9105 41.3409 41.0313 42.0275 41.2727 42.6051C41.5142 43.1828 41.8551 43.6302 42.2955 43.9474C42.7405 44.2647 43.2637 44.4233 43.8651 44.4233C44.2675 44.4233 44.6321 44.3499 44.9588 44.2031C45.2902 44.0516 45.5672 43.8362 45.7898 43.5568C46.017 43.2775 46.1757 42.9413 46.2656 42.5483H48.3324C48.2566 43.2538 48.027 43.8835 47.6435 44.4375C47.2599 44.9915 46.7462 45.4271 46.1023 45.7443C45.4631 46.0616 44.7126 46.2202 43.8509 46.2202ZM55.6957 35.0909V36.7955H49.7369V35.0909H55.6957ZM51.3349 32.4773H53.4585V42.7969C53.4585 43.2088 53.52 43.5189 53.6431 43.7273C53.7662 43.9309 53.9248 44.0705 54.119 44.1463C54.3178 44.2173 54.5333 44.2528 54.7653 44.2528C54.9357 44.2528 55.0849 44.241 55.2127 44.2173C55.3406 44.1937 55.44 44.1747 55.511 44.1605L55.8945 45.9148C55.7714 45.9621 55.5962 46.0095 55.369 46.0568C55.1417 46.1089 54.8576 46.1373 54.5167 46.142C53.958 46.1515 53.4371 46.0521 52.9542 45.8438C52.4712 45.6354 52.0806 45.3134 51.7823 44.8778C51.484 44.4422 51.3349 43.8954 51.3349 43.2372V32.4773ZM58.0447 46V35.0909H60.1683V46H58.0447ZM59.1172 33.4077C58.7479 33.4077 58.4306 33.2846 58.1655 33.0384C57.9051 32.7874 57.7749 32.4891 57.7749 32.1435C57.7749 31.7931 57.9051 31.4948 58.1655 31.2486C58.4306 30.9976 58.7479 30.8722 59.1172 30.8722C59.4865 30.8722 59.8014 30.9976 60.0618 31.2486C60.3269 31.4948 60.4595 31.7931 60.4595 32.1435C60.4595 32.4891 60.3269 32.7874 60.0618 33.0384C59.8014 33.2846 59.4865 33.4077 59.1172 33.4077ZM72.3576 35.0909L68.4016 46H66.1289L62.1658 35.0909H64.4457L67.2085 43.4858H67.3221L70.0778 35.0909H72.3576ZM74.3533 46V35.0909H76.4769V46H74.3533ZM75.4258 33.4077C75.0565 33.4077 74.7392 33.2846 74.4741 33.0384C74.2137 32.7874 74.0835 32.4891 74.0835 32.1435C74.0835 31.7931 74.2137 31.4948 74.4741 31.2486C74.7392 30.9976 75.0565 30.8722 75.4258 30.8722C75.7951 30.8722 76.11 30.9976 76.3704 31.2486C76.6355 31.4948 76.7681 31.7931 76.7681 32.1435C76.7681 32.4891 76.6355 32.7874 76.3704 33.0384C76.11 33.2846 75.7951 33.4077 75.4258 33.4077ZM84.4261 35.0909V36.7955H78.4673V35.0909H84.4261ZM80.0653 32.4773H82.1889V42.7969C82.1889 43.2088 82.2505 43.5189 82.3736 43.7273C82.4967 43.9309 82.6553 44.0705 82.8494 44.1463C83.0483 44.2173 83.2637 44.2528 83.4957 44.2528C83.6662 44.2528 83.8153 44.241 83.9432 44.2173C84.071 44.1937 84.1705 44.1747 84.2415 44.1605L84.625 45.9148C84.5019 45.9621 84.3267 46.0095 84.0994 46.0568C83.8722 46.1089 83.5881 46.1373 83.2472 46.142C82.6884 46.1515 82.1676 46.0521 81.6847 45.8438C81.2017 45.6354 80.8111 45.3134 80.5128 44.8778C80.2145 44.4422 80.0653 43.8954 80.0653 43.2372V32.4773ZM88.1175 50.0909C87.8003 50.0909 87.5115 50.0649 87.2511 50.0128C86.9906 49.9654 86.7965 49.9134 86.6687 49.8565L87.18 48.1165C87.5683 48.2206 87.9139 48.2656 88.217 48.2514C88.52 48.2372 88.7875 48.1236 89.0195 47.9105C89.2563 47.6974 89.4646 47.3494 89.6445 46.8665L89.9073 46.142L85.9158 35.0909H88.1886L90.9513 43.5568H91.065L93.8278 35.0909H96.1076L91.6119 47.456C91.4035 48.0241 91.1384 48.5047 90.8164 48.8977C90.4944 49.2955 90.1109 49.5938 89.6658 49.7926C89.2208 49.9915 88.7047 50.0909 88.1175 50.0909Z" fill="white"/>
<path d="M553.009 34.3182L555.842 42.6108H555.957L558.79 34.3182H560.451L556.787 44.5H555.012L551.348 34.3182H553.009ZM561.802 44.5V36.8636H563.289V44.5H561.802ZM562.553 35.6854C562.294 35.6854 562.072 35.5992 561.887 35.4268C561.704 35.2512 561.613 35.0424 561.613 34.8004C561.613 34.5552 561.704 34.3464 561.887 34.174C562.072 33.9983 562.294 33.9105 562.553 33.9105C562.811 33.9105 563.032 33.9983 563.214 34.174C563.4 34.3464 563.492 34.5552 563.492 34.8004C563.492 35.0424 563.4 35.2512 563.214 35.4268C563.032 35.5992 562.811 35.6854 562.553 35.6854ZM568.58 44.6541C567.827 44.6541 567.179 44.4934 566.636 44.1719C566.095 43.8471 565.678 43.3913 565.383 42.8047C565.091 42.2147 564.945 41.5237 564.945 40.7315C564.945 39.9493 565.091 39.2599 565.383 38.6634C565.678 38.0668 566.089 37.6011 566.616 37.2663C567.146 36.9316 567.766 36.7642 568.475 36.7642C568.906 36.7642 569.324 36.8355 569.728 36.978C570.132 37.1205 570.495 37.3442 570.817 37.6491C571.138 37.9541 571.392 38.3501 571.577 38.8374C571.763 39.3213 571.856 39.9096 571.856 40.6023V41.1293H565.786V40.0156H570.399C570.399 39.6245 570.32 39.2782 570.161 38.9766C570.001 38.6716 569.778 38.4313 569.489 38.2557C569.204 38.08 568.87 37.9922 568.485 37.9922C568.067 37.9922 567.703 38.0949 567.391 38.3004C567.083 38.5026 566.844 38.7678 566.675 39.0959C566.51 39.4207 566.427 39.7737 566.427 40.1548V41.0249C566.427 41.5353 566.516 41.9695 566.695 42.3274C566.878 42.6854 567.131 42.9588 567.456 43.1477C567.781 43.3333 568.16 43.4261 568.594 43.4261C568.876 43.4261 569.133 43.3864 569.365 43.3068C569.597 43.224 569.798 43.1013 569.967 42.9389C570.136 42.7765 570.265 42.576 570.354 42.3374L571.761 42.5909C571.649 43.0052 571.446 43.3681 571.155 43.6797C570.866 43.9879 570.504 44.2282 570.066 44.4006C569.632 44.5696 569.136 44.6541 568.58 44.6541ZM575.147 44.5L572.9 36.8636H574.436L575.933 42.4716H576.007L577.509 36.8636H579.045L580.536 42.4467H580.611L582.097 36.8636H583.634L581.391 44.5H579.875L578.324 38.9865H578.21L576.658 44.5H575.147ZM589.729 44.5H588.098L591.762 34.3182H593.537L597.201 44.5H595.57L592.692 36.1676H592.612L589.729 44.5ZM590.002 40.5128H595.292V41.8054H590.002V40.5128ZM600.039 34.3182V44.5H598.552V34.3182H600.039ZM603.525 34.3182V44.5H602.038V34.3182H603.525Z" fill="#E0E4E7"/>
<rect x="28" y="79" width="0.5" height="150" fill="#2F2F46"/>
<rect x="80.7729" y="79" width="0.5" height="150" fill="#2F2F46"/>
<rect x="133.545" y="79" width="0.5" height="150" fill="#2F2F46"/>
<rect x="186.318" y="79" width="0.5" height="150" fill="#2F2F46"/>
<rect x="239.091" y="79" width="0.5" height="150" fill="#2F2F46"/>
<rect x="291.863" y="79" width="0.5" height="150" fill="#F3F0FE"/>
<rect x="344.637" y="79" width="0.5" height="150" fill="#2F2F46"/>
<rect x="397.409" y="79" width="0.5" height="150" fill="#2F2F46"/>
<rect x="450.182" y="79" width="0.5" height="150" fill="#2F2F46"/>
<rect x="502.955" y="79" width="0.5" height="150" fill="#2F2F46"/>
<rect x="555.728" y="79" width="0.5" height="150" fill="#2F2F46"/>
<rect x="608.5" y="79" width="0.5" height="150" fill="#2F2F46"/>
<rect x="285" y="46" width="41" height="178" rx="10" fill="url(#paint0_linear_1076_3151)"/>
<path d="M28 186C38.2529 183.835 63.3157 177.807 81.5431 171.012C104.327 162.519 129.39 151.528 147.048 148.03C164.706 144.533 184.642 142.035 207.996 143.034C231.35 144.033 296.855 152.027 330.462 153.026C364.069 154.025 381.726 146.531 393.119 140.536C404.511 134.541 429.574 116.056 456.915 110.061C484.256 104.065 503.053 107.063 531.533 97.0709C560.014 87.0789 575.963 79.0853 609 80.0845" stroke="#6666FF"/>
<path d="M81.5431 171.03C63.3157 177.826 38.2529 183.856 28 186.021V222H609V80.0845C575.963 79.0851 560.014 87.0804 531.533 97.0744C503.053 107.068 484.256 104.07 456.915 110.067C429.574 116.063 404.511 134.552 393.119 140.549C381.726 146.545 364.069 154.04 330.462 153.041C296.855 152.042 231.35 144.046 207.996 143.047C184.642 142.048 164.706 144.546 147.048 148.044C129.39 151.542 104.327 162.535 81.5431 171.03Z" fill="url(#paint1_linear_1076_3151)"/>
<circle cx="305.5" cy="151.5" r="4" fill="#6666FF" stroke="white" strokeWidth="3"/>
<path d="M346.572 71.7734V70.5455H353.89V71.7734H350.94V80H349.518V71.7734H346.572ZM354.659 80V72.9091H355.994V74.0355H356.067C356.197 73.6539 356.424 73.3538 356.751 73.1353C357.08 72.9137 357.452 72.8029 357.868 72.8029C357.954 72.8029 358.056 72.806 358.172 72.8121C358.293 72.8183 358.386 72.826 358.454 72.8352V74.1555C358.399 74.1402 358.3 74.1232 358.159 74.1048C358.017 74.0832 357.876 74.0724 357.734 74.0724C357.408 74.0724 357.117 74.1417 356.861 74.2802C356.609 74.4156 356.409 74.6049 356.261 74.848C356.114 75.0881 356.04 75.362 356.04 75.6697V80H354.659ZM361.649 80.157C361.199 80.157 360.793 80.0739 360.43 79.9077C360.067 79.7384 359.779 79.4937 359.567 79.1737C359.357 78.8536 359.253 78.4612 359.253 77.9964C359.253 77.5964 359.33 77.267 359.484 77.0085C359.637 76.75 359.845 76.5453 360.107 76.3945C360.368 76.2437 360.661 76.1299 360.984 76.0529C361.307 75.976 361.636 75.9175 361.972 75.8775C362.397 75.8282 362.741 75.7882 363.006 75.7575C363.271 75.7236 363.463 75.6697 363.583 75.5959C363.703 75.522 363.763 75.402 363.763 75.2358V75.2035C363.763 74.8003 363.649 74.4879 363.421 74.2663C363.197 74.0447 362.861 73.9339 362.415 73.9339C361.95 73.9339 361.584 74.037 361.316 74.2433C361.052 74.4464 360.869 74.6726 360.767 74.9219L359.47 74.6264C359.624 74.1955 359.848 73.8478 360.144 73.5831C360.442 73.3153 360.785 73.1214 361.173 73.0014C361.561 72.8783 361.969 72.8168 362.397 72.8168C362.68 72.8168 362.98 72.8506 363.297 72.9183C363.617 72.983 363.915 73.103 364.192 73.2784C364.472 73.4538 364.702 73.7047 364.88 74.0309C365.059 74.354 365.148 74.7741 365.148 75.2912V80H363.8V79.0305H363.745C363.655 79.209 363.521 79.3845 363.343 79.5568C363.164 79.7292 362.935 79.8723 362.655 79.9862C362.375 80.1 362.04 80.157 361.649 80.157ZM361.949 79.049C362.33 79.049 362.657 78.9736 362.927 78.8228C363.201 78.672 363.409 78.475 363.551 78.2319C363.695 77.9857 363.768 77.7225 363.768 77.4425V76.5284C363.718 76.5777 363.623 76.6238 363.481 76.6669C363.343 76.7069 363.184 76.7423 363.006 76.7731C362.827 76.8008 362.654 76.8269 362.484 76.8516C362.315 76.8731 362.173 76.8916 362.06 76.907C361.792 76.9408 361.547 76.9978 361.326 77.0778C361.107 77.1578 360.932 77.2732 360.799 77.424C360.67 77.5717 360.605 77.7687 360.605 78.0149C360.605 78.3565 360.732 78.6151 360.984 78.7905C361.236 78.9628 361.558 79.049 361.949 79.049ZM372.799 72.9091L370.227 80H368.75L366.174 72.9091H367.656L369.452 78.3658H369.526L371.317 72.9091H372.799ZM376.911 80.1431C376.212 80.1431 375.61 79.9938 375.106 79.6953C374.604 79.3937 374.216 78.9705 373.942 78.4258C373.672 77.878 373.536 77.2363 373.536 76.5007C373.536 75.7744 373.672 75.1342 373.942 74.5803C374.216 74.0263 374.598 73.5939 375.087 73.283C375.58 72.9722 376.155 72.8168 376.814 72.8168C377.214 72.8168 377.602 72.8829 377.977 73.0153C378.353 73.1476 378.69 73.3554 378.988 73.6385C379.287 73.9216 379.522 74.2894 379.695 74.7418C379.867 75.1912 379.953 75.7375 379.953 76.3807V76.87H374.316V75.8359H378.6C378.6 75.4728 378.527 75.1512 378.379 74.8711C378.231 74.5879 378.023 74.3648 377.756 74.2017C377.491 74.0386 377.18 73.957 376.823 73.957C376.435 73.957 376.097 74.0524 375.807 74.2433C375.521 74.431 375.3 74.6772 375.143 74.9819C374.989 75.2835 374.912 75.6113 374.912 75.9652V76.7731C374.912 77.247 374.995 77.6502 375.161 77.9826C375.33 78.315 375.566 78.5689 375.867 78.7443C376.169 78.9167 376.521 79.0028 376.925 79.0028C377.186 79.0028 377.425 78.9659 377.64 78.892C377.856 78.8151 378.042 78.7012 378.199 78.5504C378.356 78.3996 378.476 78.2134 378.559 77.9918L379.865 78.2273C379.761 78.612 379.573 78.949 379.302 79.2383C379.034 79.5245 378.697 79.7476 378.291 79.9077C377.888 80.0646 377.428 80.1431 376.911 80.1431ZM382.865 70.5455V80H381.485V70.5455H382.865ZM387.778 80.1431C387.079 80.1431 386.478 79.9938 385.973 79.6953C385.471 79.3937 385.083 78.9705 384.81 78.4258C384.539 77.878 384.403 77.2363 384.403 76.5007C384.403 75.7744 384.539 75.1342 384.81 74.5803C385.083 74.0263 385.465 73.5939 385.954 73.283C386.447 72.9722 387.022 72.8168 387.681 72.8168C388.081 72.8168 388.469 72.8829 388.844 73.0153C389.22 73.1476 389.557 73.3554 389.855 73.6385C390.154 73.9216 390.389 74.2894 390.562 74.7418C390.734 75.1912 390.82 75.7375 390.82 76.3807V76.87H385.184V75.8359H389.468C389.468 75.4728 389.394 75.1512 389.246 74.8711C389.098 74.5879 388.891 74.3648 388.623 74.2017C388.358 74.0386 388.047 73.957 387.69 73.957C387.302 73.957 386.964 74.0524 386.675 74.2433C386.388 74.431 386.167 74.6772 386.01 74.9819C385.856 75.2835 385.779 75.6113 385.779 75.9652V76.7731C385.779 77.247 385.862 77.6502 386.028 77.9826C386.198 78.315 386.433 78.5689 386.735 78.7443C387.036 78.9167 387.389 79.0028 387.792 79.0028C388.053 79.0028 388.292 78.9659 388.507 78.892C388.723 78.8151 388.909 78.7012 389.066 78.5504C389.223 78.3996 389.343 78.2134 389.426 77.9918L390.733 78.2273C390.628 78.612 390.44 78.949 390.169 79.2383C389.902 79.5245 389.565 79.7476 389.158 79.9077C388.755 80.0646 388.295 80.1431 387.778 80.1431ZM395.006 80.1385C394.434 80.1385 393.923 79.9923 393.474 79.6999C393.027 79.4045 392.676 78.9844 392.421 78.4396C392.169 77.8918 392.042 77.2347 392.042 76.4684C392.042 75.7021 392.17 75.0465 392.426 74.5018C392.684 73.957 393.038 73.54 393.487 73.2507C393.937 72.9614 394.446 72.8168 395.015 72.8168C395.456 72.8168 395.809 72.8906 396.077 73.0384C396.348 73.183 396.557 73.3523 396.705 73.5462C396.856 73.7401 396.973 73.9109 397.056 74.0586H397.139V70.5455H398.519V80H397.171V78.8967H397.056C396.973 79.0475 396.853 79.2198 396.696 79.4137C396.542 79.6076 396.33 79.7769 396.059 79.9215C395.788 80.0662 395.437 80.1385 395.006 80.1385ZM395.311 78.9613C395.708 78.9613 396.043 78.8567 396.317 78.6474C396.594 78.435 396.804 78.1411 396.945 77.7656C397.09 77.3902 397.162 76.9531 397.162 76.4545C397.162 75.9621 397.091 75.5312 396.95 75.1619C396.808 74.7926 396.6 74.5049 396.327 74.2987C396.053 74.0924 395.714 73.9893 395.311 73.9893C394.895 73.9893 394.549 74.0971 394.272 74.3125C393.995 74.5279 393.786 74.8219 393.644 75.1942C393.506 75.5666 393.437 75.9867 393.437 76.4545C393.437 76.9285 393.507 77.3548 393.649 77.7333C393.791 78.1119 394 78.4119 394.277 78.6335C394.557 78.852 394.902 78.9613 395.311 78.9613ZM405.31 70.5455V80H403.93V70.5455H405.31ZM409.231 80.157C408.781 80.157 408.375 80.0739 408.012 79.9077C407.649 79.7384 407.361 79.4937 407.149 79.1737C406.939 78.8536 406.835 78.4612 406.835 77.9964C406.835 77.5964 406.912 77.267 407.066 77.0085C407.219 76.75 407.427 76.5453 407.689 76.3945C407.95 76.2437 408.243 76.1299 408.566 76.0529C408.889 75.976 409.218 75.9175 409.554 75.8775C409.979 75.8282 410.323 75.7882 410.588 75.7575C410.853 75.7236 411.045 75.6697 411.165 75.5959C411.285 75.522 411.345 75.402 411.345 75.2358V75.2035C411.345 74.8003 411.231 74.4879 411.003 74.2663C410.779 74.0447 410.443 73.9339 409.997 73.9339C409.532 73.9339 409.166 74.037 408.898 74.2433C408.634 74.4464 408.451 74.6726 408.349 74.9219L407.052 74.6264C407.206 74.1955 407.43 73.8478 407.726 73.5831C408.024 73.3153 408.367 73.1214 408.755 73.0014C409.143 72.8783 409.551 72.8168 409.979 72.8168C410.262 72.8168 410.562 72.8506 410.879 72.9183C411.199 72.983 411.497 73.103 411.774 73.2784C412.054 73.4538 412.284 73.7047 412.462 74.0309C412.641 74.354 412.73 74.7741 412.73 75.2912V80H411.382V79.0305H411.327C411.237 79.209 411.103 79.3845 410.925 79.5568C410.746 79.7292 410.517 79.8723 410.237 79.9862C409.957 80.1 409.622 80.157 409.231 80.157ZM409.531 79.049C409.912 79.049 410.239 78.9736 410.509 78.8228C410.783 78.672 410.991 78.475 411.133 78.2319C411.277 77.9857 411.35 77.7225 411.35 77.4425V76.5284C411.3 76.5777 411.205 76.6238 411.063 76.6669C410.925 76.7069 410.766 76.7423 410.588 76.7731C410.409 76.8008 410.236 76.8269 410.066 76.8516C409.897 76.8731 409.755 76.8916 409.642 76.907C409.374 76.9408 409.129 76.9978 408.908 77.0778C408.689 77.1578 408.514 77.2732 408.381 77.424C408.252 77.5717 408.187 77.7687 408.187 78.0149C408.187 78.3565 408.314 78.6151 408.566 78.7905C408.818 78.9628 409.14 79.049 409.531 79.049ZM419.882 74.6403L418.631 74.8619C418.579 74.7018 418.496 74.5495 418.382 74.4048C418.271 74.2602 418.12 74.1417 417.929 74.0494C417.739 73.957 417.5 73.9109 417.214 73.9109C416.823 73.9109 416.497 73.9986 416.235 74.174C415.973 74.3464 415.843 74.5695 415.843 74.8434C415.843 75.0804 415.93 75.2712 416.106 75.4158C416.281 75.5605 416.564 75.679 416.955 75.7713L418.082 76.0298C418.734 76.1806 419.22 76.413 419.54 76.7269C419.861 77.0408 420.021 77.4486 420.021 77.9503C420.021 78.375 419.897 78.7536 419.651 79.0859C419.408 79.4152 419.068 79.6738 418.631 79.8615C418.197 80.0492 417.694 80.1431 417.121 80.1431C416.327 80.1431 415.68 79.9738 415.178 79.6353C414.676 79.2937 414.368 78.8089 414.255 78.1811L415.589 77.978C415.672 78.3258 415.843 78.5889 416.101 78.7674C416.36 78.9428 416.697 79.0305 417.112 79.0305C417.565 79.0305 417.926 78.9367 418.197 78.7489C418.468 78.5581 418.603 78.3258 418.603 78.0518C418.603 77.8303 418.52 77.6441 418.354 77.4933C418.191 77.3424 417.94 77.2286 417.602 77.1516L416.401 76.8885C415.74 76.7377 415.25 76.4976 414.933 76.1683C414.619 75.839 414.462 75.422 414.462 74.9173C414.462 74.4987 414.579 74.1325 414.813 73.8185C415.047 73.5046 415.37 73.2599 415.783 73.0845C416.195 72.906 416.667 72.8168 417.2 72.8168C417.966 72.8168 418.569 72.983 419.01 73.3153C419.45 73.6446 419.741 74.0863 419.882 74.6403ZM424.848 72.9091V74.017H420.975V72.9091H424.848ZM422.014 71.2102H423.394V77.918C423.394 78.1857 423.434 78.3873 423.514 78.5227C423.594 78.6551 423.697 78.7459 423.823 78.7951C423.953 78.8413 424.093 78.8643 424.244 78.8643C424.354 78.8643 424.451 78.8567 424.534 78.8413C424.617 78.8259 424.682 78.8136 424.728 78.8043L424.978 79.9446C424.898 79.9754 424.784 80.0062 424.636 80.0369C424.488 80.0708 424.304 80.0893 424.082 80.0923C423.719 80.0985 423.38 80.0339 423.066 79.8984C422.752 79.763 422.498 79.5537 422.305 79.2706C422.111 78.9875 422.014 78.632 422.014 78.2042V71.2102ZM429.816 80V72.9091H431.141V74.0632H431.228C431.376 73.6723 431.618 73.3677 431.953 73.1491C432.289 72.9276 432.69 72.8168 433.158 72.8168C433.632 72.8168 434.029 72.9276 434.349 73.1491C434.672 73.3707 434.911 73.6754 435.065 74.0632H435.138C435.308 73.6847 435.577 73.383 435.946 73.1584C436.316 72.9306 436.756 72.8168 437.267 72.8168C437.91 72.8168 438.435 73.0183 438.841 73.4215C439.25 73.8247 439.455 74.4325 439.455 75.245V80H438.074V75.3743C438.074 74.8942 437.944 74.5464 437.682 74.331C437.42 74.1155 437.108 74.0078 436.745 74.0078C436.296 74.0078 435.946 74.1463 435.697 74.4233C435.448 74.6972 435.323 75.0496 435.323 75.4805V80H433.947V75.2866C433.947 74.9019 433.827 74.5926 433.587 74.3587C433.347 74.1248 433.035 74.0078 432.65 74.0078C432.389 74.0078 432.147 74.0771 431.925 74.2156C431.707 74.351 431.53 74.5402 431.394 74.7834C431.262 75.0265 431.196 75.3081 431.196 75.6282V80H429.816ZM444.292 80.1431C443.627 80.1431 443.047 79.9908 442.551 79.6861C442.056 79.3814 441.671 78.9551 441.397 78.4073C441.123 77.8595 440.986 77.2193 440.986 76.4869C440.986 75.7513 441.123 75.1081 441.397 74.5572C441.671 74.0063 442.056 73.5785 442.551 73.2738C443.047 72.9691 443.627 72.8168 444.292 72.8168C444.956 72.8168 445.537 72.9691 446.032 73.2738C446.528 73.5785 446.912 74.0063 447.186 74.5572C447.46 75.1081 447.597 75.7513 447.597 76.4869C447.597 77.2193 447.46 77.8595 447.186 78.4073C446.912 78.9551 446.528 79.3814 446.032 79.6861C445.537 79.9908 444.956 80.1431 444.292 80.1431ZM444.296 78.9844C444.727 78.9844 445.084 78.8705 445.367 78.6428C445.651 78.415 445.86 78.1119 445.995 77.7333C446.134 77.3548 446.203 76.9377 446.203 76.4822C446.203 76.0298 446.134 75.6143 445.995 75.2358C445.86 74.8542 445.651 74.5479 445.367 74.3171C445.084 74.0863 444.727 73.9709 444.296 73.9709C443.862 73.9709 443.502 74.0863 443.216 74.3171C442.933 74.5479 442.722 74.8542 442.584 75.2358C442.448 75.6143 442.381 76.0298 442.381 76.4822C442.381 76.9377 442.448 77.3548 442.584 77.7333C442.722 78.1119 442.933 78.415 443.216 78.6428C443.502 78.8705 443.862 78.9844 444.296 78.9844ZM450.518 75.7898V80H449.138V72.9091H450.463V74.0632H450.551C450.714 73.6877 450.969 73.3861 451.317 73.1584C451.668 72.9306 452.109 72.8168 452.642 72.8168C453.125 72.8168 453.548 72.9183 453.911 73.1214C454.274 73.3215 454.556 73.62 454.756 74.017C454.956 74.4141 455.056 74.9049 455.056 75.4897V80H453.676V75.6559C453.676 75.1419 453.542 74.7403 453.274 74.451C453.006 74.1586 452.639 74.0124 452.171 74.0124C451.851 74.0124 451.566 74.0817 451.317 74.2202C451.071 74.3587 450.875 74.5618 450.731 74.8295C450.589 75.0942 450.518 75.4143 450.518 75.7898ZM460.217 72.9091V74.017H456.344V72.9091H460.217ZM457.383 71.2102H458.763V77.918C458.763 78.1857 458.803 78.3873 458.883 78.5227C458.963 78.6551 459.066 78.7459 459.193 78.7951C459.322 78.8413 459.462 78.8643 459.613 78.8643C459.723 78.8643 459.82 78.8567 459.903 78.8413C459.987 78.8259 460.051 78.8136 460.097 78.8043L460.347 79.9446C460.267 79.9754 460.153 80.0062 460.005 80.0369C459.857 80.0708 459.673 80.0893 459.451 80.0923C459.088 80.0985 458.749 80.0339 458.435 79.8984C458.122 79.763 457.868 79.5537 457.674 79.2706C457.48 78.9875 457.383 78.632 457.383 78.2042V71.2102ZM463.277 75.7898V80H461.897V70.5455H463.259V74.0632H463.346C463.512 73.6816 463.766 73.3784 464.108 73.1538C464.45 72.9291 464.896 72.8168 465.447 72.8168C465.933 72.8168 466.358 72.9168 466.721 73.1168C467.087 73.3169 467.37 73.6154 467.57 74.0124C467.773 74.4064 467.875 74.8988 467.875 75.4897V80H466.495V75.6559C466.495 75.1358 466.361 74.7326 466.093 74.4464C465.825 74.1571 465.453 74.0124 464.976 74.0124C464.65 74.0124 464.357 74.0817 464.099 74.2202C463.843 74.3587 463.642 74.5618 463.494 74.8295C463.349 75.0942 463.277 75.4143 463.277 75.7898Z" fill="#E0E4E7"/>
<path d="M351.842 107.179C350.939 107.179 350.134 107.013 349.426 106.68C348.723 106.348 348.165 105.89 347.751 105.306C347.338 104.722 347.123 104.053 347.106 103.299H349.79C349.82 103.806 350.033 104.217 350.43 104.533C350.826 104.848 351.297 105.006 351.842 105.006C352.277 105.006 352.661 104.91 352.993 104.718C353.33 104.522 353.592 104.251 353.779 103.906C353.971 103.557 354.067 103.156 354.067 102.705C354.067 102.244 353.969 101.839 353.773 101.49C353.581 101.141 353.315 100.868 352.974 100.672C352.633 100.476 352.243 100.376 351.804 100.371C351.42 100.371 351.048 100.45 350.685 100.608C350.327 100.766 350.048 100.981 349.848 101.254L347.387 100.812L348.007 93.9091H356.01V96.1719H350.289L349.95 99.451H350.027C350.257 99.1271 350.604 98.8587 351.069 98.6456C351.533 98.4325 352.053 98.326 352.629 98.326C353.417 98.326 354.12 98.5114 354.738 98.8821C355.356 99.2528 355.844 99.7621 356.202 100.41C356.56 101.053 356.737 101.795 356.732 102.634C356.737 103.516 356.532 104.3 356.119 104.987C355.71 105.668 355.136 106.205 354.399 106.597C353.666 106.985 352.814 107.179 351.842 107.179ZM363.795 107.288C362.696 107.283 361.75 107.013 360.957 106.476C360.169 105.939 359.562 105.161 359.136 104.143C358.714 103.124 358.505 101.899 358.509 100.467C358.509 99.0398 358.72 97.8232 359.142 96.8175C359.568 95.8118 360.175 95.0469 360.964 94.5227C361.756 93.9943 362.7 93.7301 363.795 93.7301C364.891 93.7301 365.832 93.9943 366.621 94.5227C367.413 95.0511 368.023 95.8182 368.449 96.8239C368.875 97.8253 369.086 99.0398 369.082 100.467C369.082 101.903 368.869 103.131 368.442 104.149C368.021 105.168 367.415 105.945 366.627 106.482C365.839 107.019 364.895 107.288 363.795 107.288ZM363.795 104.993C364.545 104.993 365.144 104.616 365.592 103.862C366.039 103.107 366.261 101.976 366.256 100.467C366.256 99.4744 366.154 98.6477 365.95 97.9872C365.749 97.3267 365.464 96.8303 365.093 96.4979C364.727 96.1655 364.294 95.9993 363.795 95.9993C363.05 95.9993 362.453 96.3722 362.006 97.1179C361.558 97.8636 361.332 98.9801 361.328 100.467C361.328 101.473 361.428 102.312 361.629 102.986C361.833 103.655 362.121 104.158 362.491 104.494C362.862 104.827 363.297 104.993 363.795 104.993ZM375.298 107V93.9091H378.066V99.6811H378.238L382.949 93.9091H386.267L381.409 99.7706L386.324 107H383.013L379.427 101.618L378.066 103.28V107H375.298ZM387.657 107V97.1818H390.252V98.9141H390.367C390.572 98.3388 390.913 97.8849 391.39 97.5526C391.867 97.2202 392.438 97.054 393.103 97.054C393.776 97.054 394.349 97.2223 394.822 97.5589C395.295 97.8913 395.611 98.343 395.768 98.9141H395.871C396.071 98.3516 396.433 97.902 396.957 97.5653C397.486 97.2244 398.11 97.054 398.83 97.054C399.746 97.054 400.49 97.3459 401.061 97.9297C401.636 98.5092 401.924 99.3317 401.924 100.397V107H399.207V100.934C399.207 100.388 399.063 99.9794 398.773 99.7067C398.483 99.4339 398.121 99.2976 397.686 99.2976C397.192 99.2976 396.806 99.4553 396.529 99.7706C396.252 100.082 396.114 100.493 396.114 101.004V107H393.474V100.876C393.474 100.395 393.335 100.011 393.058 99.7259C392.786 99.4403 392.425 99.2976 391.978 99.2976C391.675 99.2976 391.403 99.3743 391.16 99.5277C390.921 99.6768 390.732 99.8878 390.591 100.161C390.45 100.429 390.38 100.744 390.38 101.107V107H387.657Z" fill="white"/>
<path d="M28.1506 238.273V247H26.8295V239.594H26.7784L24.6903 240.957V239.696L26.8679 238.273H28.1506ZM30.5114 247V246.045L33.4645 242.986C33.7798 242.653 34.0398 242.362 34.2443 242.112C34.4517 241.859 34.6065 241.619 34.7088 241.392C34.8111 241.165 34.8622 240.923 34.8622 240.668C34.8622 240.378 34.794 240.128 34.6577 239.918C34.5213 239.705 34.3352 239.541 34.0994 239.428C33.8636 239.311 33.598 239.253 33.3026 239.253C32.9901 239.253 32.7173 239.317 32.4844 239.445C32.2514 239.572 32.0724 239.753 31.9474 239.986C31.8224 240.219 31.7599 240.491 31.7599 240.804H30.5028C30.5028 240.273 30.625 239.808 30.8693 239.411C31.1136 239.013 31.4489 238.705 31.875 238.486C32.3011 238.264 32.7855 238.153 33.3281 238.153C33.8764 238.153 34.3594 238.263 34.777 238.482C35.1974 238.697 35.5256 238.993 35.7614 239.368C35.9972 239.74 36.1151 240.161 36.1151 240.629C36.1151 240.953 36.054 241.27 35.9318 241.58C35.8125 241.889 35.6037 242.234 35.3054 242.615C35.0071 242.993 34.5923 243.452 34.0611 243.991L32.3267 245.807V245.871H36.2557V247H30.5114ZM41.2116 237.864L38.3991 248.312H37.2614L40.0739 237.864H41.2116ZM45.179 238.153C45.5682 238.156 45.9517 238.227 46.3295 238.366C46.7074 238.506 47.0483 238.733 47.3523 239.048C47.6591 239.364 47.9034 239.79 48.0852 240.327C48.2699 240.861 48.3636 241.526 48.3665 242.321C48.3665 243.085 48.2898 243.766 48.1364 244.362C47.983 244.956 47.7628 245.457 47.4759 245.866C47.1918 246.276 46.8466 246.587 46.4403 246.8C46.0341 247.013 45.5767 247.119 45.0682 247.119C44.5483 247.119 44.0866 247.017 43.6832 246.812C43.2798 246.608 42.9517 246.325 42.6989 245.964C42.446 245.601 42.2884 245.183 42.2259 244.712H43.5256C43.6108 245.087 43.7841 245.391 44.0455 245.624C44.3097 245.854 44.6506 245.969 45.0682 245.969C45.7074 245.969 46.206 245.69 46.5639 245.134C46.9219 244.574 47.1023 243.793 47.1051 242.79H47.0369C46.8892 243.034 46.7045 243.244 46.483 243.42C46.2642 243.597 46.0185 243.733 45.7457 243.83C45.473 243.926 45.1818 243.974 44.8722 243.974C44.3693 243.974 43.9119 243.851 43.5 243.604C43.0881 243.357 42.7599 243.017 42.5156 242.585C42.2713 242.153 42.1491 241.661 42.1491 241.107C42.1491 240.555 42.2741 240.055 42.5241 239.607C42.777 239.158 43.1293 238.803 43.581 238.541C44.0355 238.277 44.5682 238.148 45.179 238.153ZM45.1832 239.261C44.8509 239.261 44.5511 239.344 44.2841 239.509C44.0199 239.67 43.8111 239.891 43.6577 240.169C43.5043 240.445 43.4276 240.751 43.4276 241.089C43.4276 241.428 43.5014 241.734 43.6491 242.01C43.7997 242.283 44.0043 242.5 44.2628 242.662C44.5241 242.821 44.8224 242.901 45.1577 242.901C45.4077 242.901 45.6406 242.852 45.8565 242.756C46.0724 242.659 46.2614 242.526 46.4233 242.355C46.5852 242.182 46.7116 241.986 46.8026 241.767C46.8935 241.548 46.9389 241.318 46.9389 241.077C46.9389 240.756 46.8622 240.457 46.7088 240.182C46.5582 239.906 46.3509 239.685 46.0866 239.517C45.8224 239.347 45.5213 239.261 45.1832 239.261Z" fill="#7C7C8D"/>
<path d="M78.9689 238.273V247H77.6479V239.594H77.5968L75.5087 240.957V239.696L77.6863 238.273H78.9689ZM81.3297 247V246.045L84.2828 242.986C84.5982 242.653 84.8581 242.362 85.0627 242.112C85.2701 241.859 85.4249 241.619 85.5272 241.392C85.6294 241.165 85.6806 240.923 85.6806 240.668C85.6806 240.378 85.6124 240.128 85.476 239.918C85.3397 239.705 85.1536 239.541 84.9178 239.428C84.682 239.311 84.4164 239.253 84.1209 239.253C83.8084 239.253 83.5357 239.317 83.3027 239.445C83.0698 239.572 82.8908 239.753 82.7658 239.986C82.6408 240.219 82.5783 240.491 82.5783 240.804H81.3212C81.3212 240.273 81.4434 239.808 81.6877 239.411C81.932 239.013 82.2672 238.705 82.6934 238.486C83.1195 238.264 83.6039 238.153 84.1465 238.153C84.6948 238.153 85.1777 238.263 85.5953 238.482C86.0158 238.697 86.3439 238.993 86.5797 239.368C86.8155 239.74 86.9334 240.161 86.9334 240.629C86.9334 240.953 86.8723 241.27 86.7502 241.58C86.6309 241.889 86.4221 242.234 86.1238 242.615C85.8255 242.993 85.4107 243.452 84.8794 243.991L83.1451 245.807V245.871H87.074V247H81.3297ZM92.03 237.864L89.2175 248.312H88.0797L90.8922 237.864H92.03ZM95.9973 238.153C96.3865 238.156 96.7701 238.227 97.1479 238.366C97.5257 238.506 97.8667 238.733 98.1706 239.048C98.4775 239.364 98.7218 239.79 98.9036 240.327C99.0882 240.861 99.182 241.526 99.1848 242.321C99.1848 243.085 99.1081 243.766 98.9547 244.362C98.8013 244.956 98.5811 245.457 98.2942 245.866C98.0101 246.276 97.665 246.587 97.2587 246.8C96.8525 247.013 96.3951 247.119 95.8865 247.119C95.3667 247.119 94.905 247.017 94.5016 246.812C94.0982 246.608 93.7701 246.325 93.5172 245.964C93.2644 245.601 93.1067 245.183 93.0442 244.712H94.3439C94.4292 245.087 94.6025 245.391 94.8638 245.624C95.128 245.854 95.4689 245.969 95.8865 245.969C96.5257 245.969 97.0243 245.69 97.3823 245.134C97.7402 244.574 97.9206 243.793 97.9235 242.79H97.8553C97.7076 243.034 97.5229 243.244 97.3013 243.42C97.0826 243.597 96.8368 243.733 96.5641 243.83C96.2914 243.926 96.0002 243.974 95.6905 243.974C95.1877 243.974 94.7303 243.851 94.3184 243.604C93.9064 243.357 93.5783 243.017 93.334 242.585C93.0897 242.153 92.9675 241.661 92.9675 241.107C92.9675 240.555 93.0925 240.055 93.3425 239.607C93.5953 239.158 93.9476 238.803 94.3993 238.541C94.8539 238.277 95.3865 238.148 95.9973 238.153ZM96.0016 239.261C95.6692 239.261 95.3695 239.344 95.1025 239.509C94.8382 239.67 94.6294 239.891 94.476 240.169C94.3226 240.445 94.2459 240.751 94.2459 241.089C94.2459 241.428 94.3198 241.734 94.4675 242.01C94.6181 242.283 94.8226 242.5 95.0811 242.662C95.3425 242.821 95.6408 242.901 95.976 242.901C96.226 242.901 96.459 242.852 96.6749 242.756C96.8908 242.659 97.0797 242.526 97.2417 242.355C97.4036 242.182 97.53 241.986 97.6209 241.767C97.7118 241.548 97.7573 241.318 97.7573 241.077C97.7573 240.756 97.6806 240.457 97.5272 240.182C97.3766 239.906 97.1692 239.685 96.905 239.517C96.6408 239.347 96.3397 239.261 96.0016 239.261Z" fill="#7C7C8D"/>
<path d="M129.787 238.273V247H128.466V239.594H128.415L126.327 240.957V239.696L128.504 238.273H129.787ZM132.148 247V246.045L135.101 242.986C135.416 242.653 135.676 242.362 135.881 242.112C136.088 241.859 136.243 241.619 136.345 241.392C136.447 241.165 136.498 240.923 136.498 240.668C136.498 240.378 136.43 240.128 136.294 239.918C136.158 239.705 135.971 239.541 135.736 239.428C135.5 239.311 135.234 239.253 134.939 239.253C134.626 239.253 134.354 239.317 134.121 239.445C133.888 239.572 133.709 239.753 133.584 239.986C133.459 240.219 133.396 240.491 133.396 240.804H132.139C132.139 240.273 132.261 239.808 132.506 239.411C132.75 239.013 133.085 238.705 133.511 238.486C133.937 238.264 134.422 238.153 134.964 238.153C135.513 238.153 135.996 238.263 136.413 238.482C136.834 238.697 137.162 238.993 137.398 239.368C137.633 239.74 137.751 240.161 137.751 240.629C137.751 240.953 137.69 241.27 137.568 241.58C137.449 241.889 137.24 242.234 136.942 242.615C136.643 242.993 136.229 243.452 135.697 243.991L133.963 245.807V245.871H137.892V247H132.148ZM142.848 237.864L140.035 248.312H138.898L141.71 237.864H142.848ZM146.815 238.153C147.204 238.156 147.588 238.227 147.966 238.366C148.344 238.506 148.685 238.733 148.989 239.048C149.295 239.364 149.54 239.79 149.721 240.327C149.906 240.861 150 241.526 150.003 242.321C150.003 243.085 149.926 243.766 149.773 244.362C149.619 244.956 149.399 245.457 149.112 245.866C148.828 246.276 148.483 246.587 148.077 246.8C147.67 247.013 147.213 247.119 146.704 247.119C146.185 247.119 145.723 247.017 145.319 246.812C144.916 246.608 144.588 246.325 144.335 245.964C144.082 245.601 143.925 245.183 143.862 244.712H145.162C145.247 245.087 145.42 245.391 145.682 245.624C145.946 245.854 146.287 245.969 146.704 245.969C147.344 245.969 147.842 245.69 148.2 245.134C148.558 244.574 148.739 243.793 148.741 242.79H148.673C148.525 243.034 148.341 243.244 148.119 243.42C147.9 243.597 147.655 243.733 147.382 243.83C147.109 243.926 146.818 243.974 146.508 243.974C146.006 243.974 145.548 243.851 145.136 243.604C144.724 243.357 144.396 243.017 144.152 242.585C143.908 242.153 143.785 241.661 143.785 241.107C143.785 240.555 143.91 240.055 144.16 239.607C144.413 239.158 144.765 238.803 145.217 238.541C145.672 238.277 146.204 238.148 146.815 238.153ZM146.819 239.261C146.487 239.261 146.187 239.344 145.92 239.509C145.656 239.67 145.447 239.891 145.294 240.169C145.14 240.445 145.064 240.751 145.064 241.089C145.064 241.428 145.138 241.734 145.285 242.01C145.436 242.283 145.64 242.5 145.899 242.662C146.16 242.821 146.459 242.901 146.794 242.901C147.044 242.901 147.277 242.852 147.493 242.756C147.709 242.659 147.898 242.526 148.06 242.355C148.221 242.182 148.348 241.986 148.439 241.767C148.53 241.548 148.575 241.318 148.575 241.077C148.575 240.756 148.498 240.457 148.345 240.182C148.194 239.906 147.987 239.685 147.723 239.517C147.459 239.347 147.158 239.261 146.819 239.261Z" fill="#7C7C8D"/>
<path d="M180.605 238.273V247H179.284V239.594H179.233L177.145 240.957V239.696L179.322 238.273H180.605ZM182.966 247V246.045L185.919 242.986C186.234 242.653 186.494 242.362 186.699 242.112C186.906 241.859 187.061 241.619 187.163 241.392C187.266 241.165 187.317 240.923 187.317 240.668C187.317 240.378 187.249 240.128 187.112 239.918C186.976 239.705 186.79 239.541 186.554 239.428C186.318 239.311 186.053 239.253 185.757 239.253C185.445 239.253 185.172 239.317 184.939 239.445C184.706 239.572 184.527 239.753 184.402 239.986C184.277 240.219 184.215 240.491 184.215 240.804H182.957C182.957 240.273 183.08 239.808 183.324 239.411C183.568 239.013 183.903 238.705 184.33 238.486C184.756 238.264 185.24 238.153 185.783 238.153C186.331 238.153 186.814 238.263 187.232 238.482C187.652 238.697 187.98 238.993 188.216 239.368C188.452 239.74 188.57 240.161 188.57 240.629C188.57 240.953 188.509 241.27 188.386 241.58C188.267 241.889 188.058 242.234 187.76 242.615C187.462 242.993 187.047 243.452 186.516 243.991L184.781 245.807V245.871H188.71V247H182.966ZM193.666 237.864L190.854 248.312H189.716L192.528 237.864H193.666ZM197.634 238.153C198.023 238.156 198.406 238.227 198.784 238.366C199.162 238.506 199.503 238.733 199.807 239.048C200.114 239.364 200.358 239.79 200.54 240.327C200.724 240.861 200.818 241.526 200.821 242.321C200.821 243.085 200.744 243.766 200.591 244.362C200.438 244.956 200.217 245.457 199.93 245.866C199.646 246.276 199.301 246.587 198.895 246.8C198.489 247.013 198.031 247.119 197.523 247.119C197.003 247.119 196.541 247.017 196.138 246.812C195.734 246.608 195.406 246.325 195.153 245.964C194.901 245.601 194.743 245.183 194.68 244.712H195.98C196.065 245.087 196.239 245.391 196.5 245.624C196.764 245.854 197.105 245.969 197.523 245.969C198.162 245.969 198.661 245.69 199.019 245.134C199.376 244.574 199.557 243.793 199.56 242.79H199.492C199.344 243.034 199.159 243.244 198.938 243.42C198.719 243.597 198.473 243.733 198.2 243.83C197.928 243.926 197.636 243.974 197.327 243.974C196.824 243.974 196.367 243.851 195.955 243.604C195.543 243.357 195.215 243.017 194.97 242.585C194.726 242.153 194.604 241.661 194.604 241.107C194.604 240.555 194.729 240.055 194.979 239.607C195.232 239.158 195.584 238.803 196.036 238.541C196.49 238.277 197.023 238.148 197.634 238.153ZM197.638 239.261C197.305 239.261 197.006 239.344 196.739 239.509C196.474 239.67 196.266 239.891 196.112 240.169C195.959 240.445 195.882 240.751 195.882 241.089C195.882 241.428 195.956 241.734 196.104 242.01C196.254 242.283 196.459 242.5 196.717 242.662C196.979 242.821 197.277 242.901 197.612 242.901C197.862 242.901 198.095 242.852 198.311 242.756C198.527 242.659 198.716 242.526 198.878 242.355C199.04 242.182 199.166 241.986 199.257 241.767C199.348 241.548 199.394 241.318 199.394 241.077C199.394 240.756 199.317 240.457 199.163 240.182C199.013 239.906 198.805 239.685 198.541 239.517C198.277 239.347 197.976 239.261 197.638 239.261Z" fill="#7C7C8D"/>
<path d="M231.423 238.273V247H230.102V239.594H230.051L227.963 240.957V239.696L230.14 238.273H231.423ZM233.784 247V246.045L236.737 242.986C237.052 242.653 237.312 242.362 237.517 242.112C237.724 241.859 237.879 241.619 237.981 241.392C238.084 241.165 238.135 240.923 238.135 240.668C238.135 240.378 238.066 240.128 237.93 239.918C237.794 239.705 237.608 239.541 237.372 239.428C237.136 239.311 236.87 239.253 236.575 239.253C236.263 239.253 235.99 239.317 235.757 239.445C235.524 239.572 235.345 239.753 235.22 239.986C235.095 240.219 235.032 240.491 235.032 240.804H233.775C233.775 240.273 233.897 239.808 234.142 239.411C234.386 239.013 234.721 238.705 235.147 238.486C235.574 238.264 236.058 238.153 236.601 238.153C237.149 238.153 237.632 238.263 238.049 238.482C238.47 238.697 238.798 238.993 239.034 239.368C239.27 239.74 239.388 240.161 239.388 240.629C239.388 240.953 239.326 241.27 239.204 241.58C239.085 241.889 238.876 242.234 238.578 242.615C238.28 242.993 237.865 243.452 237.334 243.991L235.599 245.807V245.871H239.528V247H233.784ZM244.484 237.864L241.672 248.312H240.534L243.346 237.864H244.484ZM248.451 238.153C248.841 238.156 249.224 238.227 249.602 238.366C249.98 238.506 250.321 238.733 250.625 239.048C250.932 239.364 251.176 239.79 251.358 240.327C251.542 240.861 251.636 241.526 251.639 242.321C251.639 243.085 251.562 243.766 251.409 244.362C251.255 244.956 251.035 245.457 250.748 245.866C250.464 246.276 250.119 246.587 249.713 246.8C249.307 247.013 248.849 247.119 248.341 247.119C247.821 247.119 247.359 247.017 246.956 246.812C246.552 246.608 246.224 246.325 245.971 245.964C245.718 245.601 245.561 245.183 245.498 244.712H246.798C246.883 245.087 247.057 245.391 247.318 245.624C247.582 245.854 247.923 245.969 248.341 245.969C248.98 245.969 249.478 245.69 249.836 245.134C250.194 244.574 250.375 243.793 250.378 242.79H250.309C250.162 243.034 249.977 243.244 249.755 243.42C249.537 243.597 249.291 243.733 249.018 243.83C248.745 243.926 248.454 243.974 248.145 243.974C247.642 243.974 247.184 243.851 246.772 243.604C246.361 243.357 246.032 243.017 245.788 242.585C245.544 242.153 245.422 241.661 245.422 241.107C245.422 240.555 245.547 240.055 245.797 239.607C246.049 239.158 246.402 238.803 246.853 238.541C247.308 238.277 247.841 238.148 248.451 238.153ZM248.456 239.261C248.123 239.261 247.824 239.344 247.557 239.509C247.292 239.67 247.084 239.891 246.93 240.169C246.777 240.445 246.7 240.751 246.7 241.089C246.7 241.428 246.774 241.734 246.922 242.01C247.072 242.283 247.277 242.5 247.535 242.662C247.797 242.821 248.095 242.901 248.43 242.901C248.68 242.901 248.913 242.852 249.129 242.756C249.345 242.659 249.534 242.526 249.696 242.355C249.858 242.182 249.984 241.986 250.075 241.767C250.166 241.548 250.211 241.318 250.211 241.077C250.211 240.756 250.135 240.457 249.981 240.182C249.831 239.906 249.623 239.685 249.359 239.517C249.095 239.347 248.794 239.261 248.456 239.261Z" fill="#7C7C8D"/>
<path d="M282.241 238.273V247H280.92V239.594H280.869L278.781 240.957V239.696L280.959 238.273H282.241ZM284.602 247V246.045L287.555 242.986C287.871 242.653 288.131 242.362 288.335 242.112C288.543 241.859 288.697 241.619 288.8 241.392C288.902 241.165 288.953 240.923 288.953 240.668C288.953 240.378 288.885 240.128 288.748 239.918C288.612 239.705 288.426 239.541 288.19 239.428C287.954 239.311 287.689 239.253 287.393 239.253C287.081 239.253 286.808 239.317 286.575 239.445C286.342 239.572 286.163 239.753 286.038 239.986C285.913 240.219 285.851 240.491 285.851 240.804H284.594C284.594 240.273 284.716 239.808 284.96 239.411C285.204 239.013 285.54 238.705 285.966 238.486C286.392 238.264 286.876 238.153 287.419 238.153C287.967 238.153 288.45 238.263 288.868 238.482C289.288 238.697 289.616 238.993 289.852 239.368C290.088 239.74 290.206 240.161 290.206 240.629C290.206 240.953 290.145 241.27 290.023 241.58C289.903 241.889 289.695 242.234 289.396 242.615C289.098 242.993 288.683 243.452 288.152 243.991L286.418 245.807V245.871H290.347V247H284.602ZM295.302 237.864L292.49 248.312H291.352L294.165 237.864H295.302ZM299.27 238.153C299.659 238.156 300.043 238.227 300.42 238.366C300.798 238.506 301.139 238.733 301.443 239.048C301.75 239.364 301.994 239.79 302.176 240.327C302.361 240.861 302.454 241.526 302.457 242.321C302.457 243.085 302.381 243.766 302.227 244.362C302.074 244.956 301.854 245.457 301.567 245.866C301.283 246.276 300.937 246.587 300.531 246.8C300.125 247.013 299.668 247.119 299.159 247.119C298.639 247.119 298.177 247.017 297.774 246.812C297.371 246.608 297.043 246.325 296.79 245.964C296.537 245.601 296.379 245.183 296.317 244.712H297.616C297.702 245.087 297.875 245.391 298.136 245.624C298.4 245.854 298.741 245.969 299.159 245.969C299.798 245.969 300.297 245.69 300.655 245.134C301.013 244.574 301.193 243.793 301.196 242.79H301.128C300.98 243.034 300.795 243.244 300.574 243.42C300.355 243.597 300.109 243.733 299.837 243.83C299.564 243.926 299.273 243.974 298.963 243.974C298.46 243.974 298.003 243.851 297.591 243.604C297.179 243.357 296.851 243.017 296.606 242.585C296.362 242.153 296.24 241.661 296.24 241.107C296.24 240.555 296.365 240.055 296.615 239.607C296.868 239.158 297.22 238.803 297.672 238.541C298.126 238.277 298.659 238.148 299.27 238.153ZM299.274 239.261C298.942 239.261 298.642 239.344 298.375 239.509C298.111 239.67 297.902 239.891 297.748 240.169C297.595 240.445 297.518 240.751 297.518 241.089C297.518 241.428 297.592 241.734 297.74 242.01C297.891 242.283 298.095 242.5 298.354 242.662C298.615 242.821 298.913 242.901 299.248 242.901C299.498 242.901 299.731 242.852 299.947 242.756C300.163 242.659 300.352 242.526 300.514 242.355C300.676 242.182 300.802 241.986 300.893 241.767C300.984 241.548 301.03 241.318 301.03 241.077C301.03 240.756 300.953 240.457 300.8 240.182C300.649 239.906 300.442 239.685 300.177 239.517C299.913 239.347 299.612 239.261 299.274 239.261Z" fill="#7C7C8D"/>
<path d="M333.06 238.273V247H331.739V239.594H331.688L329.6 240.957V239.696L331.777 238.273H333.06ZM335.421 247V246.045L338.374 242.986C338.689 242.653 338.949 242.362 339.153 242.112C339.361 241.859 339.516 241.619 339.618 241.392C339.72 241.165 339.771 240.923 339.771 240.668C339.771 240.378 339.703 240.128 339.567 239.918C339.43 239.705 339.244 239.541 339.009 239.428C338.773 239.311 338.507 239.253 338.212 239.253C337.899 239.253 337.627 239.317 337.394 239.445C337.161 239.572 336.982 239.753 336.857 239.986C336.732 240.219 336.669 240.491 336.669 240.804H335.412C335.412 240.273 335.534 239.808 335.778 239.411C336.023 239.013 336.358 238.705 336.784 238.486C337.21 238.264 337.695 238.153 338.237 238.153C338.786 238.153 339.269 238.263 339.686 238.482C340.107 238.697 340.435 238.993 340.671 239.368C340.906 239.74 341.024 240.161 341.024 240.629C341.024 240.953 340.963 241.27 340.841 241.58C340.722 241.889 340.513 242.234 340.215 242.615C339.916 242.993 339.502 243.452 338.97 243.991L337.236 245.807V245.871H341.165V247H335.421ZM346.121 237.864L343.308 248.312H342.171L344.983 237.864H346.121ZM350.088 238.153C350.477 238.156 350.861 238.227 351.239 238.366C351.617 238.506 351.957 238.733 352.261 239.048C352.568 239.364 352.813 239.79 352.994 240.327C353.179 240.861 353.273 241.526 353.276 242.321C353.276 243.085 353.199 243.766 353.046 244.362C352.892 244.956 352.672 245.457 352.385 245.866C352.101 246.276 351.756 246.587 351.35 246.8C350.943 247.013 350.486 247.119 349.977 247.119C349.457 247.119 348.996 247.017 348.592 246.812C348.189 246.608 347.861 246.325 347.608 245.964C347.355 245.601 347.198 245.183 347.135 244.712H348.435C348.52 245.087 348.693 245.391 348.955 245.624C349.219 245.854 349.56 245.969 349.977 245.969C350.617 245.969 351.115 245.69 351.473 245.134C351.831 244.574 352.011 243.793 352.014 242.79H351.946C351.798 243.034 351.614 243.244 351.392 243.42C351.173 243.597 350.928 243.733 350.655 243.83C350.382 243.926 350.091 243.974 349.781 243.974C349.278 243.974 348.821 243.851 348.409 243.604C347.997 243.357 347.669 243.017 347.425 242.585C347.18 242.153 347.058 241.661 347.058 241.107C347.058 240.555 347.183 240.055 347.433 239.607C347.686 239.158 348.038 238.803 348.49 238.541C348.945 238.277 349.477 238.148 350.088 238.153ZM350.092 239.261C349.76 239.261 349.46 239.344 349.193 239.509C348.929 239.67 348.72 239.891 348.567 240.169C348.413 240.445 348.337 240.751 348.337 241.089C348.337 241.428 348.411 241.734 348.558 242.01C348.709 242.283 348.913 242.5 349.172 242.662C349.433 242.821 349.732 242.901 350.067 242.901C350.317 242.901 350.55 242.852 350.766 242.756C350.982 242.659 351.171 242.526 351.332 242.355C351.494 242.182 351.621 241.986 351.712 241.767C351.803 241.548 351.848 241.318 351.848 241.077C351.848 240.756 351.771 240.457 351.618 240.182C351.467 239.906 351.26 239.685 350.996 239.517C350.732 239.347 350.43 239.261 350.092 239.261Z" fill="#7C7C8D"/>
<path d="M383.878 238.273V247H382.557V239.594H382.506L380.418 240.957V239.696L382.595 238.273H383.878ZM386.239 247V246.045L389.192 242.986C389.507 242.653 389.767 242.362 389.972 242.112C390.179 241.859 390.334 241.619 390.436 241.392C390.539 241.165 390.59 240.923 390.59 240.668C390.59 240.378 390.522 240.128 390.385 239.918C390.249 239.705 390.063 239.541 389.827 239.428C389.591 239.311 389.326 239.253 389.03 239.253C388.718 239.253 388.445 239.317 388.212 239.445C387.979 239.572 387.8 239.753 387.675 239.986C387.55 240.219 387.487 240.491 387.487 240.804H386.23C386.23 240.273 386.353 239.808 386.597 239.411C386.841 239.013 387.176 238.705 387.603 238.486C388.029 238.264 388.513 238.153 389.056 238.153C389.604 238.153 390.087 238.263 390.505 238.482C390.925 238.697 391.253 238.993 391.489 239.368C391.725 239.74 391.843 240.161 391.843 240.629C391.843 240.953 391.782 241.27 391.659 241.58C391.54 241.889 391.331 242.234 391.033 242.615C390.735 242.993 390.32 243.452 389.789 243.991L388.054 245.807V245.871H391.983V247H386.239ZM396.939 237.864L394.127 248.312H392.989L395.801 237.864H396.939ZM400.907 238.153C401.296 238.156 401.679 238.227 402.057 238.366C402.435 238.506 402.776 238.733 403.08 239.048C403.387 239.364 403.631 239.79 403.813 240.327C403.997 240.861 404.091 241.526 404.094 242.321C404.094 243.085 404.017 243.766 403.864 244.362C403.71 244.956 403.49 245.457 403.203 245.866C402.919 246.276 402.574 246.587 402.168 246.8C401.762 247.013 401.304 247.119 400.796 247.119C400.276 247.119 399.814 247.017 399.411 246.812C399.007 246.608 398.679 246.325 398.426 245.964C398.174 245.601 398.016 245.183 397.953 244.712H399.253C399.338 245.087 399.512 245.391 399.773 245.624C400.037 245.854 400.378 245.969 400.796 245.969C401.435 245.969 401.934 245.69 402.291 245.134C402.649 244.574 402.83 243.793 402.833 242.79H402.764C402.617 243.034 402.432 243.244 402.21 243.42C401.992 243.597 401.746 243.733 401.473 243.83C401.201 243.926 400.909 243.974 400.6 243.974C400.097 243.974 399.639 243.851 399.228 243.604C398.816 243.357 398.487 243.017 398.243 242.585C397.999 242.153 397.877 241.661 397.877 241.107C397.877 240.555 398.002 240.055 398.252 239.607C398.505 239.158 398.857 238.803 399.309 238.541C399.763 238.277 400.296 238.148 400.907 238.153ZM400.911 239.261C400.578 239.261 400.279 239.344 400.012 239.509C399.747 239.67 399.539 239.891 399.385 240.169C399.232 240.445 399.155 240.751 399.155 241.089C399.155 241.428 399.229 241.734 399.377 242.01C399.527 242.283 399.732 242.5 399.99 242.662C400.252 242.821 400.55 242.901 400.885 242.901C401.135 242.901 401.368 242.852 401.584 242.756C401.8 242.659 401.989 242.526 402.151 242.355C402.313 242.182 402.439 241.986 402.53 241.767C402.621 241.548 402.666 241.318 402.666 241.077C402.666 240.756 402.59 240.457 402.436 240.182C402.286 239.906 402.078 239.685 401.814 239.517C401.55 239.347 401.249 239.261 400.911 239.261Z" fill="#7C7C8D"/>
<path d="M434.696 238.273V247H433.375V239.594H433.324L431.236 240.957V239.696L433.414 238.273H434.696ZM437.057 247V246.045L440.01 242.986C440.326 242.653 440.586 242.362 440.79 242.112C440.998 241.859 441.152 241.619 441.255 241.392C441.357 241.165 441.408 240.923 441.408 240.668C441.408 240.378 441.34 240.128 441.204 239.918C441.067 239.705 440.881 239.541 440.645 239.428C440.41 239.311 440.144 239.253 439.848 239.253C439.536 239.253 439.263 239.317 439.03 239.445C438.797 239.572 438.618 239.753 438.493 239.986C438.368 240.219 438.306 240.491 438.306 240.804H437.049C437.049 240.273 437.171 239.808 437.415 239.411C437.66 239.013 437.995 238.705 438.421 238.486C438.847 238.264 439.331 238.153 439.874 238.153C440.422 238.153 440.905 238.263 441.323 238.482C441.743 238.697 442.071 238.993 442.307 239.368C442.543 239.74 442.661 240.161 442.661 240.629C442.661 240.953 442.6 241.27 442.478 241.58C442.358 241.889 442.15 242.234 441.851 242.615C441.553 242.993 441.138 243.452 440.607 243.991L438.873 245.807V245.871H442.802V247H437.057ZM447.758 237.864L444.945 248.312H443.807L446.62 237.864H447.758ZM451.725 238.153C452.114 238.156 452.498 238.227 452.875 238.366C453.253 238.506 453.594 238.733 453.898 239.048C454.205 239.364 454.449 239.79 454.631 240.327C454.816 240.861 454.91 241.526 454.912 242.321C454.912 243.085 454.836 243.766 454.682 244.362C454.529 244.956 454.309 245.457 454.022 245.866C453.738 246.276 453.392 246.587 452.986 246.8C452.58 247.013 452.123 247.119 451.614 247.119C451.094 247.119 450.633 247.017 450.229 246.812C449.826 246.608 449.498 246.325 449.245 245.964C448.992 245.601 448.834 245.183 448.772 244.712H450.071C450.157 245.087 450.33 245.391 450.591 245.624C450.856 245.854 451.196 245.969 451.614 245.969C452.253 245.969 452.752 245.69 453.11 245.134C453.468 244.574 453.648 243.793 453.651 242.79H453.583C453.435 243.034 453.25 243.244 453.029 243.42C452.81 243.597 452.564 243.733 452.292 243.83C452.019 243.926 451.728 243.974 451.418 243.974C450.915 243.974 450.458 243.851 450.046 243.604C449.634 243.357 449.306 243.017 449.062 242.585C448.817 242.153 448.695 241.661 448.695 241.107C448.695 240.555 448.82 240.055 449.07 239.607C449.323 239.158 449.675 238.803 450.127 238.541C450.581 238.277 451.114 238.148 451.725 238.153ZM451.729 239.261C451.397 239.261 451.097 239.344 450.83 239.509C450.566 239.67 450.357 239.891 450.204 240.169C450.05 240.445 449.973 240.751 449.973 241.089C449.973 241.428 450.047 241.734 450.195 242.01C450.346 242.283 450.55 242.5 450.809 242.662C451.07 242.821 451.368 242.901 451.704 242.901C451.954 242.901 452.187 242.852 452.402 242.756C452.618 242.659 452.807 242.526 452.969 242.355C453.131 242.182 453.258 241.986 453.348 241.767C453.439 241.548 453.485 241.318 453.485 241.077C453.485 240.756 453.408 240.457 453.255 240.182C453.104 239.906 452.897 239.685 452.633 239.517C452.368 239.347 452.067 239.261 451.729 239.261Z" fill="#7C7C8D"/>
<path d="M485.514 238.273V247H484.193V239.594H484.142L482.054 240.957V239.696L484.231 238.273H485.514ZM487.875 247V246.045L490.828 242.986C491.143 242.653 491.403 242.362 491.608 242.112C491.815 241.859 491.97 241.619 492.072 241.392C492.174 241.165 492.225 240.923 492.225 240.668C492.225 240.378 492.157 240.128 492.021 239.918C491.885 239.705 491.699 239.541 491.463 239.428C491.227 239.311 490.961 239.253 490.666 239.253C490.353 239.253 490.081 239.317 489.848 239.445C489.615 239.572 489.436 239.753 489.311 239.986C489.186 240.219 489.123 240.491 489.123 240.804H487.866C487.866 240.273 487.988 239.808 488.233 239.411C488.477 239.013 488.812 238.705 489.238 238.486C489.664 238.264 490.149 238.153 490.691 238.153C491.24 238.153 491.723 238.263 492.14 238.482C492.561 238.697 492.889 238.993 493.125 239.368C493.36 239.74 493.478 240.161 493.478 240.629C493.478 240.953 493.417 241.27 493.295 241.58C493.176 241.889 492.967 242.234 492.669 242.615C492.37 242.993 491.956 243.452 491.424 243.991L489.69 245.807V245.871H493.619V247H487.875ZM498.575 237.864L495.762 248.312H494.625L497.437 237.864H498.575ZM502.542 238.153C502.931 238.156 503.315 238.227 503.693 238.366C504.071 238.506 504.412 238.733 504.716 239.048C505.022 239.364 505.267 239.79 505.449 240.327C505.633 240.861 505.727 241.526 505.73 242.321C505.73 243.085 505.653 243.766 505.5 244.362C505.346 244.956 505.126 245.457 504.839 245.866C504.555 246.276 504.21 246.587 503.804 246.8C503.397 247.013 502.94 247.119 502.431 247.119C501.912 247.119 501.45 247.017 501.047 246.812C500.643 246.608 500.315 246.325 500.062 245.964C499.809 245.601 499.652 245.183 499.589 244.712H500.889C500.974 245.087 501.147 245.391 501.409 245.624C501.673 245.854 502.014 245.969 502.431 245.969C503.071 245.969 503.569 245.69 503.927 245.134C504.285 244.574 504.466 243.793 504.468 242.79H504.4C504.252 243.034 504.068 243.244 503.846 243.42C503.627 243.597 503.382 243.733 503.109 243.83C502.836 243.926 502.545 243.974 502.235 243.974C501.733 243.974 501.275 243.851 500.863 243.604C500.451 243.357 500.123 243.017 499.879 242.585C499.635 242.153 499.512 241.661 499.512 241.107C499.512 240.555 499.637 240.055 499.887 239.607C500.14 239.158 500.493 238.803 500.944 238.541C501.399 238.277 501.931 238.148 502.542 238.153ZM502.547 239.261C502.214 239.261 501.914 239.344 501.647 239.509C501.383 239.67 501.174 239.891 501.021 240.169C500.868 240.445 500.791 240.751 500.791 241.089C500.791 241.428 500.865 241.734 501.012 242.01C501.163 242.283 501.368 242.5 501.626 242.662C501.887 242.821 502.186 242.901 502.521 242.901C502.771 242.901 503.004 242.852 503.22 242.756C503.436 242.659 503.625 242.526 503.787 242.355C503.949 242.182 504.075 241.986 504.166 241.767C504.257 241.548 504.302 241.318 504.302 241.077C504.302 240.756 504.225 240.457 504.072 240.182C503.922 239.906 503.714 239.685 503.45 239.517C503.186 239.347 502.885 239.261 502.547 239.261Z" fill="#7C7C8D"/>
<path d="M536.332 238.273V247H535.011V239.594H534.96L532.872 240.957V239.696L535.05 238.273H536.332ZM538.693 247V246.045L541.646 242.986C541.961 242.653 542.221 242.362 542.426 242.112C542.633 241.859 542.788 241.619 542.89 241.392C542.993 241.165 543.044 240.923 543.044 240.668C543.044 240.378 542.976 240.128 542.839 239.918C542.703 239.705 542.517 239.541 542.281 239.428C542.045 239.311 541.78 239.253 541.484 239.253C541.172 239.253 540.899 239.317 540.666 239.445C540.433 239.572 540.254 239.753 540.129 239.986C540.004 240.219 539.942 240.491 539.942 240.804H538.684C538.684 240.273 538.807 239.808 539.051 239.411C539.295 239.013 539.631 238.705 540.057 238.486C540.483 238.264 540.967 238.153 541.51 238.153C542.058 238.153 542.541 238.263 542.959 238.482C543.379 238.697 543.707 238.993 543.943 239.368C544.179 239.74 544.297 240.161 544.297 240.629C544.297 240.953 544.236 241.27 544.113 241.58C543.994 241.889 543.785 242.234 543.487 242.615C543.189 242.993 542.774 243.452 542.243 243.991L540.508 245.807V245.871H544.437V247H538.693ZM549.393 237.864L546.581 248.312H545.443L548.256 237.864H549.393ZM553.361 238.153C553.75 238.156 554.133 238.227 554.511 238.366C554.889 238.506 555.23 238.733 555.534 239.048C555.841 239.364 556.085 239.79 556.267 240.327C556.452 240.861 556.545 241.526 556.548 242.321C556.548 243.085 556.471 243.766 556.318 244.362C556.165 244.956 555.944 245.457 555.657 245.866C555.373 246.276 555.028 246.587 554.622 246.8C554.216 247.013 553.758 247.119 553.25 247.119C552.73 247.119 552.268 247.017 551.865 246.812C551.461 246.608 551.133 246.325 550.881 245.964C550.628 245.601 550.47 245.183 550.407 244.712H551.707C551.792 245.087 551.966 245.391 552.227 245.624C552.491 245.854 552.832 245.969 553.25 245.969C553.889 245.969 554.388 245.69 554.746 245.134C555.104 244.574 555.284 243.793 555.287 242.79H555.219C555.071 243.034 554.886 243.244 554.665 243.42C554.446 243.597 554.2 243.733 553.927 243.83C553.655 243.926 553.363 243.974 553.054 243.974C552.551 243.974 552.094 243.851 551.682 243.604C551.27 243.357 550.942 243.017 550.697 242.585C550.453 242.153 550.331 241.661 550.331 241.107C550.331 240.555 550.456 240.055 550.706 239.607C550.959 239.158 551.311 238.803 551.763 238.541C552.217 238.277 552.75 238.148 553.361 238.153ZM553.365 239.261C553.032 239.261 552.733 239.344 552.466 239.509C552.202 239.67 551.993 239.891 551.839 240.169C551.686 240.445 551.609 240.751 551.609 241.089C551.609 241.428 551.683 241.734 551.831 242.01C551.981 242.283 552.186 242.5 552.444 242.662C552.706 242.821 553.004 242.901 553.339 242.901C553.589 242.901 553.822 242.852 554.038 242.756C554.254 242.659 554.443 242.526 554.605 242.355C554.767 242.182 554.893 241.986 554.984 241.767C555.075 241.548 555.121 241.318 555.121 241.077C555.121 240.756 555.044 240.457 554.89 240.182C554.74 239.906 554.532 239.685 554.268 239.517C554.004 239.347 553.703 239.261 553.365 239.261Z" fill="#7C7C8D"/>
<path d="M587.151 238.273V247H585.83V239.594H585.778L583.69 240.957V239.696L585.868 238.273H587.151ZM589.511 247V246.045L592.464 242.986C592.78 242.653 593.04 242.362 593.244 242.112C593.452 241.859 593.607 241.619 593.709 241.392C593.811 241.165 593.862 240.923 593.862 240.668C593.862 240.378 593.794 240.128 593.658 239.918C593.521 239.705 593.335 239.541 593.099 239.428C592.864 239.311 592.598 239.253 592.303 239.253C591.99 239.253 591.717 239.317 591.484 239.445C591.251 239.572 591.072 239.753 590.947 239.986C590.822 240.219 590.76 240.491 590.76 240.804H589.503C589.503 240.273 589.625 239.808 589.869 239.411C590.114 239.013 590.449 238.705 590.875 238.486C591.301 238.264 591.786 238.153 592.328 238.153C592.876 238.153 593.359 238.263 593.777 238.482C594.197 238.697 594.526 238.993 594.761 239.368C594.997 239.74 595.115 240.161 595.115 240.629C595.115 240.953 595.054 241.27 594.932 241.58C594.813 241.889 594.604 242.234 594.305 242.615C594.007 242.993 593.592 243.452 593.061 243.991L591.327 245.807V245.871H595.256V247H589.511ZM600.212 237.864L597.399 248.312H596.261L599.074 237.864H600.212ZM604.179 238.153C604.568 238.156 604.952 238.227 605.33 238.366C605.707 238.506 606.048 238.733 606.352 239.048C606.659 239.364 606.903 239.79 607.085 240.327C607.27 240.861 607.364 241.526 607.366 242.321C607.366 243.085 607.29 243.766 607.136 244.362C606.983 244.956 606.763 245.457 606.476 245.866C606.192 246.276 605.847 246.587 605.44 246.8C605.034 247.013 604.577 247.119 604.068 247.119C603.548 247.119 603.087 247.017 602.683 246.812C602.28 246.608 601.952 246.325 601.699 245.964C601.446 245.601 601.288 245.183 601.226 244.712H602.526C602.611 245.087 602.784 245.391 603.045 245.624C603.31 245.854 603.651 245.969 604.068 245.969C604.707 245.969 605.206 245.69 605.564 245.134C605.922 244.574 606.102 243.793 606.105 242.79H606.037C605.889 243.034 605.705 243.244 605.483 243.42C605.264 243.597 605.018 243.733 604.746 243.83C604.473 243.926 604.182 243.974 603.872 243.974C603.369 243.974 602.912 243.851 602.5 243.604C602.088 243.357 601.76 243.017 601.516 242.585C601.271 242.153 601.149 241.661 601.149 241.107C601.149 240.555 601.274 240.055 601.524 239.607C601.777 239.158 602.129 238.803 602.581 238.541C603.036 238.277 603.568 238.148 604.179 238.153ZM604.183 239.261C603.851 239.261 603.551 239.344 603.284 239.509C603.02 239.67 602.811 239.891 602.658 240.169C602.504 240.445 602.428 240.751 602.428 241.089C602.428 241.428 602.501 241.734 602.649 242.01C602.8 242.283 603.004 242.5 603.263 242.662C603.524 242.821 603.822 242.901 604.158 242.901C604.408 242.901 604.641 242.852 604.857 242.756C605.072 242.659 605.261 242.526 605.423 242.355C605.585 242.182 605.712 241.986 605.803 241.767C605.893 241.548 605.939 241.318 605.939 241.077C605.939 240.756 605.862 240.457 605.709 240.182C605.558 239.906 605.351 239.685 605.087 239.517C604.822 239.347 604.521 239.261 604.183 239.261Z" fill="#7C7C8D"/>
<defs>
<linearGradient id="paint0_linear_1076_3151" x1="306" y1="35.5" x2="306" y2="208" gradientUnits="userSpaceOnUse">
<stop stop-color="#6866FF"/>
<stop offset="1" stop-color="#232630"/>
</linearGradient>
<linearGradient id="paint1_linear_1076_3151" x1="312.234" y1="7.04346" x2="317.057" y2="222.032" gradientUnits="userSpaceOnUse">
<stop stop-color="#6260EC"/>
<stop offset="1" stop-color="#6260EB" stop-opacity="0"/>
</linearGradient>
</defs>
</svg>
