<svg width="21" height="20" viewBox="0 0 21 20" fill="none" xmlns="http://www.w3.org/2000/svg">
<path d="M9.69032 1.66675C8.59597 1.66675 7.51234 1.8823 6.50129 2.30109C5.49024 2.71987 4.57158 3.3337 3.79776 4.10752C2.23496 5.67033 1.35698 7.78994 1.35698 10.0001C1.3497 11.9244 2.01598 13.7905 3.24032 15.2751L1.57365 16.9417C1.45802 17.0589 1.37969 17.2077 1.34854 17.3694C1.3174 17.5311 1.33484 17.6983 1.39865 17.8501C1.46787 18 1.58007 18.126 1.72102 18.2121C1.86198 18.2981 2.02532 18.3404 2.19032 18.3334H9.69032C11.9005 18.3334 14.0201 17.4554 15.5829 15.8926C17.1457 14.3298 18.0237 12.2102 18.0237 10.0001C18.0237 7.78994 17.1457 5.67033 15.5829 4.10752C14.0201 2.54472 11.9005 1.66675 9.69032 1.66675ZM9.69032 16.6667H4.19865L4.97365 15.8917C5.12886 15.7356 5.21598 15.5244 5.21598 15.3042C5.21598 15.0841 5.12886 14.8729 4.97365 14.7167C3.88247 13.6268 3.20296 12.1922 3.05089 10.6574C2.89882 9.12262 3.2836 7.58259 4.13967 6.29968C4.99574 5.01678 6.27014 4.07038 7.74575 3.62173C9.22135 3.17307 10.8069 3.24992 12.2322 3.83918C13.6575 4.42843 14.8344 5.49364 15.5624 6.85332C16.2903 8.213 16.5244 9.78303 16.2246 11.2959C15.9248 12.8088 15.1097 14.171 13.9183 15.1503C12.7268 16.1296 11.2326 16.6655 9.69032 16.6667Z" fill="#E0E4E7"/>
</svg>
