<svg width="21" height="20" viewBox="0 0 21 20" fill="none" xmlns="http://www.w3.org/2000/svg">
<g id="icon">
<path id="Vector" d="M18.5898 12.9817L14.8232 9.22336C14.902 8.8395 14.9411 8.44855 14.9398 8.05669C14.9395 6.98223 14.6684 5.92519 14.1515 4.98326C13.6345 4.04133 12.8885 3.24492 11.9823 2.66764C11.0761 2.09036 10.0389 1.75084 8.96679 1.68047C7.89465 1.6101 6.82206 1.81115 5.84817 2.26502C5.72478 2.32139 5.61702 2.40702 5.53425 2.51449C5.45147 2.62195 5.39618 2.748 5.37317 2.88169C5.35026 3.01368 5.3595 3.14925 5.40012 3.2769C5.44074 3.40456 5.51153 3.52054 5.6065 3.61502L9.2315 7.23169L7.7315 8.73169L4.11484 5.10669C4.01956 5.01319 3.90322 4.94395 3.7756 4.9048C3.64798 4.86564 3.51282 4.85772 3.3815 4.88169C3.24866 4.90385 3.12316 4.95788 3.01576 5.03916C2.90836 5.12043 2.82226 5.22653 2.76484 5.34836C2.30944 6.32544 2.10857 7.40184 2.18091 8.47741C2.25326 9.55298 2.59646 10.5928 3.1786 11.5001C3.76074 12.4074 4.5629 13.1527 5.51046 13.6667C6.45802 14.1808 7.52019 14.4468 8.59817 14.44C8.99003 14.4413 9.38098 14.4022 9.76484 14.3234L13.5232 18.09C13.6006 18.1681 13.6928 18.2301 13.7944 18.2724C13.8959 18.3147 14.0048 18.3365 14.1148 18.3365C14.2248 18.3365 14.3338 18.3147 14.4353 18.2724C14.5369 18.2301 14.629 18.1681 14.7065 18.09C14.7846 18.0126 14.8466 17.9204 14.8889 17.8188C14.9312 17.7173 14.953 17.6084 14.953 17.4984C14.953 17.3883 14.9312 17.2794 14.8889 17.1779C14.8466 17.0763 14.7846 16.9842 14.7065 16.9067L10.6232 12.8234C10.5211 12.722 10.3946 12.6488 10.2559 12.6108C10.1171 12.5728 9.97094 12.5714 9.8315 12.6067C9.42915 12.7144 9.0147 12.7704 8.59817 12.7734C7.97488 12.7789 7.35666 12.661 6.77912 12.4265C6.20159 12.192 5.67615 11.8456 5.23308 11.4072C4.79001 10.9688 4.43807 10.447 4.19752 9.87198C3.95697 9.29695 3.83258 8.68001 3.8315 8.05669C3.83042 7.77754 3.85272 7.49879 3.89817 7.22336L7.16484 10.4984C7.24231 10.5765 7.33447 10.6385 7.43602 10.6808C7.53757 10.7231 7.64649 10.7449 7.7565 10.7449C7.86651 10.7449 7.97544 10.7231 8.07698 10.6808C8.17853 10.6385 8.2707 10.5765 8.34817 10.4984L10.9982 7.82336C11.1484 7.66797 11.2323 7.4603 11.2323 7.24419C11.2323 7.02807 11.1484 6.82041 10.9982 6.66502L7.7565 3.39836C8.03199 3.35337 8.3107 3.33107 8.58984 3.33169C9.84154 3.3339 11.0412 3.83268 11.9255 4.71855C12.8098 5.60442 13.3065 6.80498 13.3065 8.05669C13.3036 8.47321 13.2476 8.88767 13.1398 9.29002C13.1046 9.42946 13.106 9.57565 13.1439 9.71438C13.1819 9.85311 13.2551 9.97965 13.3565 10.0817L17.4398 14.165C17.5968 14.3219 17.8096 14.4101 18.0315 14.4101C18.2534 14.4101 18.4663 14.3219 18.6232 14.165C18.7801 14.0081 18.8682 13.7953 18.8682 13.5734C18.8682 13.3514 18.7801 13.1386 18.6232 12.9817H18.5898Z" fill="#E0E4E7"/>
</g>
</svg>
