<svg width="29" height="44" viewBox="0 0 29 44" fill="none" xmlns="http://www.w3.org/2000/svg">
<g id="Group 427318921">
<path id="Vector" fillRule="evenodd" clipRule="evenodd" d="M14.1865 42.1959L15.5855 40.7756L19.9892 36.3007L22.8459 33.4033L26.4494 29.7432V27.4671L26.4519 27.4592V9.21218H27.7336V1.13623H15.5855H12.7824H0.720703V9.21218H1.91601V29.7432L5.51955 33.4033L8.37626 36.3032L12.7824 40.7731L14.1865 42.1959Z" fill="black"/>
<path id="Vector_2" fillRule="evenodd" clipRule="evenodd" d="M14.1865 42.1959L15.5855 40.7756L19.9892 36.3007L22.8459 33.4033L26.4494 29.7432V27.4671L26.4519 27.4592V9.21218H27.7336V1.13623H15.5855H12.7824H0.720703V9.21218H1.91601V29.7432L5.51955 33.4033L8.37626 36.3032L12.7824 40.7731L14.1865 42.1959Z" fill="url(#paint0_radial_1346_4783)" fill-opacity="0.2"/>
<g id="Mask group">
<mask id="mask0_1346_4783" style="mask-type:luminance" maskUnits="userSpaceOnUse" x="0" y="0" width="29" height="44">
<g id="Group">
<path id="Vector_3" d="M28.4339 0.416504H0V43.2473H28.4339V0.416504Z" fill="white"/>
<path id="Vector_4" fillRule="evenodd" clipRule="evenodd" d="M14.1865 42.1959L15.5855 40.7756L19.9892 36.3007L22.8459 33.4033L26.4494 29.7432V27.4671L26.4519 27.4592V9.21218H27.7336V1.13623H15.5855H12.7824H0.720703V9.21218H1.91601V29.7432L5.51955 33.4033L8.37626 36.3032L12.7824 40.7731L14.1865 42.1959Z" fill="black"/>
</g>
</mask>
<g mask="url(#mask0_1346_4783)">
<path id="Vector_5" d="M15.5854 40.7757L15.9701 41.1547V41.1543L15.5854 40.7757ZM14.1863 42.1959L13.8023 42.5753L14.1867 42.9647L14.5711 42.5749L14.1863 42.1959ZM19.989 36.3008L19.6046 35.9218L19.6042 35.9221L19.989 36.3008ZM22.8457 33.4034L23.2301 33.7824H23.2305L22.8457 33.4034ZM26.4493 29.7433L26.834 30.122L26.9891 29.9643V29.7433H26.4493ZM26.4493 27.4672L25.9364 27.2987L25.9094 27.3808V27.4672H26.4493ZM26.4518 27.4593L26.9647 27.6277L26.9917 27.5456V27.4593H26.4518ZM26.4518 9.21227V8.67238H25.9119V9.21227H26.4518ZM27.7335 9.21227V9.75215H28.2733V9.21227H27.7335ZM27.7335 1.13632H28.2733V0.596436H27.7335V1.13632ZM0.720548 1.13632V0.596436H0.180664V1.13632H0.720548ZM0.720548 9.21227H0.180664V9.75215H0.720548V9.21227ZM1.91585 9.21227H2.45574V8.67238H1.91585V9.21227ZM1.91585 29.7433H1.37597V29.9643L1.53109 30.122L1.91585 29.7433ZM8.3761 36.3033L7.99134 36.6823H7.99171L8.3761 36.3033ZM12.7823 40.7732L12.3979 41.1522V41.1525L12.7823 40.7732ZM15.201 40.397L13.8019 41.8169L14.5711 42.5749L15.9701 41.1547L15.201 40.397ZM19.6042 35.9221L15.2006 40.397L15.9701 41.1543L20.3738 36.6794L19.6042 35.9221ZM22.4613 33.0244L19.6046 35.9218L20.3734 36.6798L23.2301 33.7824L22.4613 33.0244ZM26.0645 29.3643L22.461 33.0247L23.2305 33.7824L26.834 30.122L26.0645 29.3643ZM25.9094 27.4672V29.7433H26.9891V27.4672H25.9094ZM25.9389 27.2908L25.9364 27.2987L26.9621 27.6356L26.9647 27.6277L25.9389 27.2908ZM25.9119 9.21227V27.4593H26.9917V9.21227H25.9119ZM27.7335 8.67238H26.4518V9.75215H27.7335V8.67238ZM27.1936 1.13632V9.21227H28.2733V1.13632H27.1936ZM15.5854 1.6762H27.7335V0.596436H15.5854V1.6762ZM12.7823 1.6762H15.5854V0.596436H12.7823V1.6762ZM0.720548 1.6762H12.7823V0.596436H0.720548V1.6762ZM1.26043 9.21227V1.13632H0.180664V9.21227H1.26043ZM1.91585 8.67238H0.720548V9.75215H1.91585V8.67238ZM2.45574 29.7433V9.21227H1.37597V29.7433H2.45574ZM5.90415 33.0247L2.30061 29.3643L1.53109 30.122L5.13464 33.7824L5.90415 33.0247ZM8.7605 35.9243L5.90379 33.0247L5.13464 33.7824L7.99134 36.6823L8.7605 35.9243ZM13.1667 40.3942L8.7605 35.9243L7.99171 36.6823L12.3979 41.1522L13.1667 40.3942ZM14.5707 41.8166L13.1663 40.3938L12.3979 41.1525L13.8023 42.5753L14.5707 41.8166Z" fill="black"/>
</g>
</g>
<g id="Mask group_2">
<mask id="mask1_1346_4783" style="mask-type:luminance" maskUnits="userSpaceOnUse" x="0" y="0" width="29" height="44">
<g id="Group_2">
<path id="Vector_6" d="M28.4339 0.752686H0V43.5835H28.4339V0.752686Z" fill="white"/>
<path id="Vector_7" fillRule="evenodd" clipRule="evenodd" d="M14.1865 42.5318L15.5855 41.1115L19.9892 36.6366L22.8459 33.7392L26.4494 30.0792V27.803L26.4519 27.7951V9.54811H27.7336V1.47217H15.5855H12.7824H0.720703V9.54811H1.91601V30.0792L5.51955 33.7392L8.37626 36.6391L12.7824 41.109L14.1865 42.5318Z" fill="url(#paint1_radial_1346_4783)"/>
</g>
</mask>
<g mask="url(#mask1_1346_4783)">
<path id="Vector_8" d="M15.5854 41.1116L15.9701 41.4906V41.4903L15.5854 41.1116ZM14.1863 42.5319L13.8023 42.9112L14.1867 43.3007L14.5711 42.9109L14.1863 42.5319ZM19.989 36.6367L19.6046 36.2577L19.6042 36.2581L19.989 36.6367ZM22.8457 33.7393L23.2301 34.1183H23.2305L22.8457 33.7393ZM26.4493 30.0793L26.834 30.4579L26.9891 30.3003V30.0793H26.4493ZM26.4493 27.8031L25.9364 27.6347L25.9094 27.7167V27.8031H26.4493ZM26.4518 27.7952L26.9647 27.9636L26.9917 27.8816V27.7952H26.4518ZM26.4518 9.5482V9.00832H25.9119V9.5482H26.4518ZM27.7335 9.5482V10.0881H28.2733V9.5482H27.7335ZM27.7335 1.47226H28.2733V0.932373H27.7335V1.47226ZM0.720548 1.47226V0.932373H0.180664V1.47226H0.720548ZM0.720548 9.5482H0.180664V10.0881H0.720548V9.5482ZM1.91585 9.5482H2.45574V9.00832H1.91585V9.5482ZM1.91585 30.0793H1.37597V30.3003L1.53109 30.4579L1.91585 30.0793ZM8.3761 36.6392L7.99134 37.0182H7.99171L8.3761 36.6392ZM12.7823 41.1091L12.3979 41.4881V41.4885L12.7823 41.1091ZM15.201 40.733L13.8019 42.1529L14.5711 42.9109L15.9701 41.4906L15.201 40.733ZM19.6042 36.2581L15.2006 40.733L15.9701 41.4903L20.3738 37.0153L19.6042 36.2581ZM22.4613 33.3603L19.6046 36.2577L20.3734 37.0157L23.2301 34.1183L22.4613 33.3603ZM26.0645 29.7003L22.461 33.3607L23.2305 34.1183L26.834 30.4579L26.0645 29.7003ZM25.9094 27.8031V30.0793H26.9891V27.8031H25.9094ZM25.9389 27.6268L25.9364 27.6347L26.9621 27.9716L26.9647 27.9636L25.9389 27.6268ZM25.9119 9.5482V27.7952H26.9917V9.5482H25.9119ZM27.7335 9.00832H26.4518V10.0881H27.7335V9.00832ZM27.1936 1.47226V9.5482H28.2733V1.47226H27.1936ZM15.5854 2.01214H27.7335V0.932373H15.5854V2.01214ZM12.7823 2.01214H15.5854V0.932373H12.7823V2.01214ZM0.720548 2.01214H12.7823V0.932373H0.720548V2.01214ZM1.26043 9.5482V1.47226H0.180664V9.5482H1.26043ZM1.91585 9.00832H0.720548V10.0881H1.91585V9.00832ZM2.45574 30.0793V9.5482H1.37597V30.0793H2.45574ZM5.90415 33.3607L2.30061 29.7003L1.53109 30.4579L5.13464 34.1183L5.90415 33.3607ZM8.7605 36.2602L5.90379 33.3607L5.13464 34.1183L7.99134 37.0182L8.7605 36.2602ZM13.1667 40.7301L8.7605 36.2602L7.99171 37.0182L12.3979 41.4881L13.1667 40.7301ZM14.5707 42.1525L13.1663 40.7297L12.3979 41.4885L13.8023 42.9112L14.5707 42.1525Z" fill="url(#paint2_radial_1346_4783)"/>
</g>
</g>
<path id="Vector_9" d="M15.3076 38.4118V36.6788H16.1678V36.293L15.3076 38.4118Z" fill="#585858"/>
<path id="Vector_10" d="M17.6691 34.762L18.2752 35.3828L15.3076 38.4123L16.1678 36.2931L17.6691 34.762Z" fill="#6B6B6B"/>
<path id="Vector_11" d="M16.1678 34.1287H15.3076V36.6798H16.1678V34.1287Z" fill="#AFAFAF"/>
<path id="Vector_12" d="M16.1678 36.293L15.3076 38.4118V36.6788H16.1678V36.293Z" fill="#AFAFAF"/>
<path id="Vector_13" d="M20.7021 31.6711L17.6406 34.7967L18.2489 35.4169L21.3104 32.2913L20.7021 31.6711Z" fill="#6B6B6B"/>
<path id="Vector_14" d="M23.3516 28.9626L24.2118 29.3244L21.2421 32.356L20.6338 31.7373L23.3516 28.9626Z" fill="#6B6B6B"/>
<path id="Vector_15" d="M17.415 33.2175L18.2749 31.0986L21.2425 28.0713L22.1027 28.4355L17.415 33.2175Z" fill="#AFAFAF"/>
<path id="Vector_16" d="M23.3525 28.0713H24.2128V29.3238L23.3525 28.9617V28.0713Z" fill="#585858"/>
<path id="Vector_17" d="M22.1024 28.4362L21.2422 28.0719L21.2444 25.0425L22.1046 25.4067L22.1024 28.4362Z" fill="#AFAFAF"/>
<path id="Vector_18" d="M24.2137 25.0408H23.3535V28.0702H24.2137V25.0408Z" fill="#585858"/>
<path id="Vector_19" d="M23.3525 24.1317L24.2128 22.0125V25.0398H23.3525V24.1317Z" fill="#585858"/>
<path id="Vector_20" d="M22.1053 25.4062L21.2451 25.0419L24.2127 22.0125L23.3525 24.1317L22.1053 25.4062Z" fill="#AFAFAF"/>
<path id="Vector_21" d="M16.1678 8.19263H15.3076V34.1283H16.1678V8.19263Z" fill="#AFAFAF"/>
<path id="Vector_22" d="M17.415 8.19067H18.2749V31.099L17.415 33.2179V8.19067Z" fill="#585858"/>
<path id="Vector_23" d="M22.1048 5.98999L21.2446 6.86748H18.2749L17.415 5.98999H22.1048Z" fill="#AFAFAF"/>
<path id="Vector_24" d="M17.415 5.98999L18.2749 6.86748V8.1902H17.415V5.98999Z" fill="#585858"/>
<path id="Vector_25" d="M22.1053 7.77809L21.2451 9.89695V6.86748L22.1053 5.98999V7.77809Z" fill="#AFAFAF"/>
<path id="Vector_26" d="M23.8578 5.98999L24.2127 6.86748L21.2451 9.89695L22.1053 7.77809L23.8578 5.98999Z" fill="#6B6B6B"/>
<path id="Vector_27" d="M24.6868 5.98999L25.5466 6.86748H24.2113L23.8564 5.98999H24.6868Z" fill="#AFAFAF"/>
<path id="Vector_28" d="M24.6885 4.71587L25.5483 3.83838V6.86785L24.6885 5.99036V4.71587Z" fill="#585858"/>
<path id="Vector_29" d="M24.6871 4.71533V5.98982H23.8567L22.1043 7.77792V5.98982H17.4145V8.19039V33.2176L22.1021 28.4357L22.1043 25.4062L23.3514 24.1317V25.0398V28.0714V28.9619L20.6336 31.7369L17.6682 34.762L16.167 36.2932V36.6794V34.1282V8.19039V4.71533H24.6871Z" fill="#FEFEFE"/>
<path id="Vector_30" d="M16.1678 8.19057H15.3076V3.83838L16.1678 4.71587V8.19057Z" fill="#AFAFAF"/>
<path id="Vector_31" d="M16.1678 4.71587L15.3076 3.83838H25.5478L24.6879 4.71587H16.1678Z" fill="#C4C4C4"/>
<g id="Clip path group">
<mask id="mask2_1346_4783" style="mask-type:luminance" maskUnits="userSpaceOnUse" x="2" y="3" width="12" height="36">
<g id="clip0_123_3751">
<path id="Vector_32" d="M13.1468 3.83813H2.88184V38.4146H13.1468V3.83813Z" fill="white"/>
</g>
</mask>
<g mask="url(#mask2_1346_4783)">
<g id="Group_3">
<path id="Vector_33" d="M13.0301 36.6798V38.415L12.1699 36.2961V36.6798H13.0301Z" fill="#AFAFAF"/>
<path id="Vector_34" d="M12.1699 36.6798H13.0301V38.415L12.1699 36.2961V36.6798Z" fill="#585858"/>
<path id="Vector_35" d="M13.0301 34.1282H12.1699V36.6793H13.0301V34.1282Z" fill="#585858"/>
<path id="Vector_36" d="M12.1701 36.2948L13.0303 38.4137L10.0605 35.3845L10.6692 34.7637L12.1701 36.2948Z" fill="#AFAFAF"/>
<path id="Vector_37" d="M7.70397 31.7334L7.0957 32.3535L10.064 35.3816L10.6723 34.7611L7.70397 31.7334Z" fill="#AFAFAF"/>
<path id="Vector_38" d="M13.0301 30.072H12.1699V34.128H13.0301V30.072Z" fill="#585858"/>
<path id="Vector_39" d="M10.9208 33.2177L10.0605 31.0985V30.072H10.9208V33.2177Z" fill="#AFAFAF"/>
<path id="Vector_40" d="M7.69924 31.7377L7.09061 32.356L4.12305 29.3265L4.98326 28.9626L7.69924 31.7377Z" fill="#AFAFAF"/>
<path id="Vector_41" d="M6.23047 28.4331L7.09068 28.071L10.0604 31.0984L10.9206 33.2172L6.23047 28.4331Z" fill="#AFAFAF"/>
<path id="Vector_42" d="M4.98326 28.9615L4.12305 29.3257V28.071H4.98326V28.9615Z" fill="#AFAFAF"/>
<path id="Vector_43" d="M12.1699 25.4062L13.0301 25.042V30.0719H12.1699V25.4062Z" fill="#585858"/>
<path id="Vector_44" d="M4.98326 25.042H4.12305V28.0715H4.98326V25.042Z" fill="#AFAFAF"/>
<path id="Vector_45" d="M10.9208 24.1312L10.0605 22.012L13.0303 25.0414L12.1701 25.4057L10.9208 24.1312Z" fill="#AFAFAF"/>
<path id="Vector_46" d="M10.9208 30.0714H10.0605V22.012L10.9208 24.1312V30.0714Z" fill="#AFAFAF"/>
<path id="Vector_47" d="M4.98326 21.0183H4.12305V25.0415H4.98326V21.0183Z" fill="#AFAFAF"/>
<path id="Vector_48" d="M6.23047 21.0183H7.09068V28.071L6.23047 28.4331V21.0183Z" fill="#585858"/>
<path id="Vector_49" d="M9.70336 15.0759L10.0604 15.9534H7.09068L6.23047 15.0759H9.70336Z" fill="#AFAFAF"/>
<path id="Vector_50" d="M6.23047 15.0759L7.09068 15.9534V21.0186H6.23047V15.0759Z" fill="#585858"/>
<path id="Vector_51" d="M10.9524 13.8035L13.0299 12.926L10.0602 15.9533L9.70312 15.0758L10.9524 13.8035Z" fill="#6B6B6B"/>
<path id="Vector_52" d="M6.23047 13.8035L7.09068 12.926H13.0301L10.9527 13.8035H6.23047Z" fill="#C4C4C4"/>
<path id="Vector_53" d="M12.1701 6.50366L13.0303 6.86791L10.0605 9.89737L10.9208 7.77815L12.1701 6.50366Z" fill="#6B6B6B"/>
<path id="Vector_54" d="M4.98326 21.0187H4.12305V6.86724L4.98326 5.98975V21.0187Z" fill="#AFAFAF"/>
<path id="Vector_55" d="M10.9206 5.98975L10.0604 6.86724H7.09068L6.23047 5.98975H10.9206Z" fill="#AFAFAF"/>
<path id="Vector_56" d="M6.23047 5.98975L7.09068 6.86724V12.9262L6.23047 13.8037V5.98975Z" fill="#585858"/>
<path id="Vector_57" d="M10.9208 7.77784L10.0605 9.89671V6.86724L10.9208 5.98975V7.77784Z" fill="#AFAFAF"/>
<path id="Vector_58" d="M4.98271 5.98975L4.12249 6.86724H2.88184L3.74169 5.98975H4.98271Z" fill="#AFAFAF"/>
<path id="Vector_59" d="M12.1699 4.71562L13.0301 3.83813V6.8676L12.1699 6.50336V4.71562Z" fill="#585858"/>
<path id="Vector_60" d="M12.1698 4.71533V6.50343L10.9205 7.77792V5.98982H6.23033V13.8037H10.9525L9.70323 15.0761H6.23033V21.0188V28.4335L10.9205 33.2176V30.0719V24.1317L12.1698 25.4062V30.0719V34.1282V36.6794V36.2953L10.6685 34.7642L7.69917 31.7369L4.9832 28.9619V28.0714V25.042V21.0188V5.98982H3.74219V4.71533H12.1698Z" fill="#FEFEFE"/>
<path id="Vector_61" d="M3.74169 5.99011L2.88184 6.8676V3.83813L3.74169 4.71562V5.99011Z" fill="#AFAFAF"/>
<path id="Vector_62" d="M3.74169 4.71562L2.88184 3.83813H13.0295L12.1693 4.71562H3.74169Z" fill="#C4C4C4"/>
</g>
</g>
</g>
</g>
<defs>
<radialGradient id="paint0_radial_1346_4783" cx="0" cy="0" r="1" gradientUnits="userSpaceOnUse" gradientTransform="translate(14.2272 16.5337) rotate(90) scale(25.6623 16.8831)">
<stop stop-color="white"/>
<stop offset="1"/>
</radialGradient>
<radialGradient id="paint1_radial_1346_4783" cx="0" cy="0" r="1" gradientUnits="userSpaceOnUse" gradientTransform="translate(14.2272 16.8697) rotate(90) scale(29.413 26.4354)">
<stop stop-color="white"/>
<stop offset="1"/>
</radialGradient>
<radialGradient id="paint2_radial_1346_4783" cx="0" cy="0" r="1" gradientUnits="userSpaceOnUse" gradientTransform="translate(14.227 16.8697) rotate(90) scale(29.413 26.4354)">
<stop stop-color="white"/>
<stop offset="1"/>
</radialGradient>
</defs>
</svg>
