<svg width="165" height="20" viewBox="0 0 165 20" fill="none" xmlns="http://www.w3.org/2000/svg">
<g id="Group 427318920">
<path id="Vector" fillRule="evenodd" clipRule="evenodd" d="M81.3224 18.7725C76.9728 18.9993 70.6562 17.3627 70.3249 11.8009C69.8924 7.43122 70.7701 3.31323 75.2833 1.95636C81.1587 0.226348 91.9328 0.158705 92.4894 8.53594C93.4824 16.258 87.9634 18.9616 81.3224 18.7725ZM81.6295 13.4384C84.0802 13.3998 86.4807 12.734 86.1621 9.56337C86.0618 5.82635 81.2269 6.13923 78.7019 6.75992C76.8466 7.15838 76.3938 8.96293 76.6345 10.7031C76.9121 13.2544 79.4987 13.4081 81.6295 13.4384ZM162.848 18.3823C162.408 18.3823 161.972 18.3828 161.542 18.3828H161.541C159.77 18.3837 158.069 18.3846 156.368 18.3708C156.192 18.3501 156.032 18.2581 155.921 18.1154C155.437 17.4764 155.043 16.9399 154.713 16.4899L154.712 16.4885V16.488C153.736 15.1592 153.315 14.5855 152.762 14.3531C152.342 14.1769 151.847 14.1976 150.974 14.2344C150.231 14.2662 149.214 14.309 147.738 14.251C147.403 14.251 147.291 14.3407 147.299 14.7005C147.316 15.4822 147.312 16.2649 147.308 17.0471V17.0475C147.307 17.3526 147.306 17.6586 147.305 17.9636C147.305 17.976 147.305 17.9885 147.305 18.0004C147.306 18.1992 147.307 18.3708 147.005 18.3699C146.171 18.351 145.333 18.3625 144.495 18.3736C143.326 18.3897 142.158 18.4053 141.002 18.3395V1.53261C144.753 1.47693 148.508 1.4889 152.263 1.50086C153.76 1.50592 155.256 1.51051 156.753 1.51143C159.501 1.52478 161.943 3.48853 162.645 6.15395C163.47 9.1847 161.993 12.2118 159.313 13.6722L162.848 18.3823ZM148.573 6.39552C147.909 6.35963 147.585 6.34213 147.43 6.50317C147.282 6.65731 147.29 6.97524 147.305 7.59777C147.313 7.92997 147.324 8.34868 147.314 8.8755C147.3 9.26108 147.445 9.35817 147.786 9.35449C148.868 9.34482 149.95 9.33884 151.031 9.33286C152.383 9.3255 153.736 9.31767 155.088 9.3034C155.997 9.31215 156.712 8.35973 156.439 7.46205C156.353 7.15792 156.174 6.89106 155.929 6.70287C155.683 6.51468 155.385 6.4153 155.08 6.41944C154.212 6.41116 153.343 6.41253 152.474 6.41437C152.118 6.41483 151.763 6.41575 151.407 6.41575C150.085 6.4774 149.185 6.42864 148.573 6.39552ZM15.1648 14.0881C12.5219 14.1033 9.88083 14.1189 7.23378 14.0435C7.23378 13.8792 7.23448 13.7177 7.23519 13.5585C7.23721 13.1154 7.2391 12.6898 7.22511 12.2647C7.21473 11.9573 7.34105 11.8667 7.60833 11.8855C8.93282 11.8855 10.2576 11.8842 11.5825 11.8823H11.5831H11.5837C14.2344 11.8791 16.8858 11.8759 19.5357 11.8855C19.9335 11.8865 20.0219 11.7572 20.0122 11.3767C19.9876 10.4081 19.9858 9.43915 20.0074 8.47016C20.0157 8.09102 19.8965 8.0013 19.541 8.0013C18.0992 7.99624 16.6561 8.00314 15.2122 8.01005C12.5765 8.02247 9.93957 8.03488 7.3099 7.97691C7.22881 7.69808 7.23607 7.4165 7.24337 7.13261C7.24729 6.97985 7.25125 6.82617 7.24157 6.67203C7.24311 6.50962 7.23695 6.37757 7.23198 6.27036C7.22291 6.0762 7.21763 5.96301 7.26845 5.89675C7.33981 5.80427 7.5217 5.80472 7.9589 5.80518H7.95943C8.00254 5.80564 8.04808 5.80565 8.09626 5.80565C11.914 5.79184 15.7315 5.78955 19.5489 5.79829C19.9154 5.79921 20.0166 5.68142 20.0096 5.31747C19.9915 4.77822 19.9951 4.23759 19.9981 3.69742C20.0025 2.97735 20.0069 2.25774 19.9603 1.54273H0.90332C0.903716 4.00938 0.905211 6.47097 0.906707 8.93164C0.908467 11.8032 0.910185 14.6738 0.910185 17.5504C0.910185 18.3943 0.912823 18.3943 1.73984 18.3855H1.74239C5.8395 18.3501 9.93706 18.3593 14.0345 18.3681C15.8862 18.3722 17.7384 18.3763 19.5903 18.3763C19.9277 18.3773 20.0096 18.2613 20.0096 17.9438C19.9959 16.8115 19.9889 15.6782 20.0096 14.5459C20.0166 14.1677 19.8983 14.0775 19.5419 14.0775C18.0812 14.0711 16.6227 14.0794 15.1648 14.0881ZM53.2302 15.3313V15.3322C53.2262 16.1798 53.2227 17.0015 53.2416 17.8233C53.2521 18.2576 53.1628 18.4076 52.7026 18.4003C50.9859 18.3722 49.2686 18.3855 47.5558 18.3984L47.258 18.4003C46.9759 18.4003 46.88 18.323 46.8809 18.0285C46.8967 15.7675 46.8915 13.5056 46.8862 11.2442V11.2437C46.8791 8.01096 46.8717 4.77822 46.9249 1.54962C50.2273 1.47187 53.5386 1.48889 56.8498 1.50591C58.7813 1.51558 60.7123 1.5257 62.6416 1.5165C64.7658 1.52386 66.4478 2.49101 67.6771 4.25231C69.5963 6.99641 68.9812 10.877 66.355 12.9512C65.2088 13.8571 63.925 14.2698 62.4986 14.2689C61.4594 14.2694 60.4241 14.2694 59.3907 14.2698H59.3898H59.3889H59.388C57.3395 14.2708 55.2958 14.2717 53.2332 14.2717C53.2332 14.6301 53.2315 14.9825 53.2302 15.3304V15.3309V15.3313ZM57.3699 9.35817V9.32412C57.7276 9.32412 58.0848 9.32181 58.4425 9.31951C59.2811 9.31399 60.1197 9.30848 60.957 9.33286C61.8488 9.35909 62.4278 8.53227 62.4163 7.89502C62.4001 7.06544 61.8307 6.4337 60.9873 6.42818C59.6045 6.42035 58.2199 6.42127 56.8366 6.42219C55.7556 6.42312 54.6755 6.42358 53.5962 6.42036C53.3142 6.42036 53.2183 6.52158 53.228 6.81283C53.2416 7.31343 53.2385 7.71971 53.2363 8.04869C53.231 8.74852 53.2284 9.09867 53.3943 9.26523C53.561 9.43179 53.8967 9.41384 54.5699 9.37749C55.1823 9.34436 56.0733 9.29605 57.3699 9.35817ZM112.608 8.47107H116.346C116.14 2.13581 109.109 0.75272 104.198 1.1024C100.117 1.16728 94.9453 2.62951 94.2435 7.49242C93.4115 12.6875 94.8533 16.9293 100.166 18.1877C105.875 19.5275 115.737 19.3739 116.342 11.4705C115.082 11.3666 113.777 11.3845 112.475 11.402C111.677 11.413 110.88 11.4236 110.093 11.4066C110.02 11.4181 109.951 11.4466 109.889 11.4899C109.829 11.5326 109.778 11.5892 109.74 11.6555C108.464 13.8737 105.281 13.5286 103.16 13.2328C101.327 12.913 100.222 11.6205 100.469 9.67104C100.554 7.80897 101.471 6.85102 103.263 6.58554C103.401 6.57358 103.541 6.56069 103.684 6.54781C105.822 6.35042 108.567 6.09691 109.772 8.25989C110.072 8.54745 110.908 8.5088 111.642 8.47475C112.021 8.4568 112.372 8.4407 112.608 8.47107ZM115.393 18.3897C116.888 15.3939 118.432 12.445 119.976 9.49573C121.268 7.02862 122.559 4.56151 123.823 2.06587C124.023 1.66512 124.237 1.47969 124.71 1.48706C126.928 1.5211 129.147 1.51235 131.365 1.49763C131.661 1.49763 131.771 1.65776 131.884 1.87355C132.961 3.96751 134.05 6.05319 135.139 8.13888C136.916 11.5442 138.694 14.949 140.419 18.3869C138.137 18.3869 135.938 18.3869 133.671 18.3952C133.412 18.3952 133.261 18.3432 133.152 18.0681C132.981 17.6438 132.794 17.227 132.607 16.8097C132.461 16.4844 132.315 16.1591 132.177 15.8301C132.076 15.5885 131.936 15.4974 131.686 15.4983C129.165 15.5089 126.644 15.5112 124.123 15.5066C123.859 15.5066 123.744 15.6235 123.646 15.8536C123.485 16.2318 123.316 16.6081 123.147 16.9854L123.147 16.9873C122.994 17.3268 122.842 17.6678 122.694 18.0105C122.578 18.2802 122.435 18.4067 122.113 18.4039C120.352 18.3869 118.592 18.3878 116.778 18.3892C116.32 18.3897 115.859 18.3897 115.393 18.3897ZM127.919 6.34674L125.67 11.3707H130.157L127.919 6.34674ZM46.0177 18.3957C43.1103 15.525 40.3016 12.7524 37.4536 9.94204L45.982 1.5234C40.8841 1.67477 39.4744 1.16589 38.3872 1.58091C37.3753 1.9674 36.6432 3.1545 33.4771 6.41944C33.1546 6.0739 32.8339 5.72927 32.5145 5.38557C31.3987 4.18606 30.2961 3.00127 29.1821 1.82891C29.0039 1.64901 28.7703 1.54043 28.5226 1.52248C26.5594 1.50362 24.6332 1.50546 22.6811 1.50684C22.114 1.5073 21.5446 1.50822 20.9718 1.50822L29.5253 9.94986L21.0541 18.2995C26.0715 18.2466 27.5076 18.7233 28.6115 18.2852C29.6454 17.8753 30.3881 16.6638 33.5044 13.467C33.841 13.8268 34.1754 14.1856 34.5084 14.5427C35.6449 15.7611 36.7664 16.9633 37.8949 18.1582C38.0207 18.2894 38.1884 18.3685 38.3661 18.3819C40.4775 18.3975 42.5111 18.3966 44.604 18.3957C45.0717 18.3957 45.5425 18.3957 46.0177 18.3957Z" fill="black"/>
<g id="Mask group">
<mask id="mask0_1346_4853" style="mask-type:luminance" maskUnits="userSpaceOnUse" x="0" y="0" width="165" height="20">
<g id="Group">
<path id="Vector_2" d="M164.574 0.107666H0.0244141V19.8924H164.574V0.107666Z" fill="white"/>
<path id="Vector_3" fillRule="evenodd" clipRule="evenodd" d="M81.3224 18.7725C76.9728 18.9993 70.6562 17.3627 70.3249 11.8009C69.8924 7.43122 70.7701 3.31323 75.2833 1.95636C81.1587 0.226348 91.9328 0.158705 92.4894 8.53594C93.4824 16.258 87.9634 18.9616 81.3224 18.7725ZM81.6295 13.4384C84.0802 13.3998 86.4807 12.734 86.1621 9.56337C86.0618 5.82635 81.2269 6.13923 78.7019 6.75992C76.8466 7.15838 76.3938 8.96293 76.6345 10.7031C76.9121 13.2544 79.4987 13.4081 81.6295 13.4384ZM162.848 18.3823C162.408 18.3823 161.972 18.3828 161.542 18.3828H161.541C159.77 18.3837 158.069 18.3846 156.368 18.3708C156.192 18.3501 156.032 18.2581 155.921 18.1154C155.437 17.4764 155.043 16.9399 154.713 16.4899L154.712 16.4885V16.488C153.736 15.1592 153.315 14.5855 152.762 14.3531C152.342 14.1769 151.847 14.1976 150.974 14.2344C150.231 14.2662 149.214 14.309 147.738 14.251C147.403 14.251 147.291 14.3407 147.299 14.7005C147.316 15.4822 147.312 16.2649 147.308 17.0471V17.0475C147.307 17.3526 147.306 17.6586 147.305 17.9636C147.305 17.976 147.305 17.9885 147.305 18.0004C147.306 18.1992 147.307 18.3708 147.005 18.3699C146.171 18.351 145.333 18.3625 144.495 18.3736C143.326 18.3897 142.158 18.4053 141.002 18.3395V1.53261C144.753 1.47693 148.508 1.4889 152.263 1.50086C153.76 1.50592 155.256 1.51051 156.753 1.51143C159.501 1.52478 161.943 3.48853 162.645 6.15395C163.47 9.1847 161.993 12.2118 159.313 13.6722L162.848 18.3823ZM148.573 6.39552C147.909 6.35963 147.585 6.34213 147.43 6.50317C147.282 6.65731 147.29 6.97524 147.305 7.59777C147.313 7.92997 147.324 8.34868 147.314 8.8755C147.3 9.26108 147.445 9.35817 147.786 9.35449C148.868 9.34482 149.95 9.33884 151.031 9.33286C152.383 9.3255 153.736 9.31767 155.088 9.3034C155.997 9.31215 156.712 8.35973 156.439 7.46205C156.353 7.15792 156.174 6.89106 155.929 6.70287C155.683 6.51468 155.385 6.4153 155.08 6.41944C154.212 6.41116 153.343 6.41253 152.474 6.41437C152.118 6.41483 151.763 6.41575 151.407 6.41575C150.085 6.4774 149.185 6.42864 148.573 6.39552ZM15.1648 14.0881C12.5219 14.1033 9.88083 14.1189 7.23378 14.0435C7.23378 13.8792 7.23448 13.7177 7.23519 13.5585C7.23721 13.1154 7.2391 12.6898 7.22511 12.2647C7.21473 11.9573 7.34105 11.8667 7.60833 11.8855C8.93282 11.8855 10.2576 11.8842 11.5825 11.8823H11.5831H11.5837C14.2344 11.8791 16.8858 11.8759 19.5357 11.8855C19.9335 11.8865 20.0219 11.7572 20.0122 11.3767C19.9876 10.4081 19.9858 9.43915 20.0074 8.47016C20.0157 8.09102 19.8965 8.0013 19.541 8.0013C18.0992 7.99624 16.6561 8.00314 15.2122 8.01005C12.5765 8.02247 9.93957 8.03488 7.3099 7.97691C7.22881 7.69808 7.23607 7.4165 7.24337 7.13261C7.24729 6.97985 7.25125 6.82617 7.24157 6.67203C7.24311 6.50962 7.23695 6.37757 7.23198 6.27036C7.22291 6.0762 7.21763 5.96301 7.26845 5.89675C7.33981 5.80427 7.5217 5.80472 7.9589 5.80518H7.95943C8.00254 5.80564 8.04808 5.80565 8.09626 5.80565C11.914 5.79184 15.7315 5.78955 19.5489 5.79829C19.9154 5.79921 20.0166 5.68142 20.0096 5.31747C19.9915 4.77822 19.9951 4.23759 19.9981 3.69742C20.0025 2.97735 20.0069 2.25774 19.9603 1.54273H0.90332C0.903716 4.00938 0.905211 6.47097 0.906707 8.93164C0.908467 11.8032 0.910185 14.6738 0.910185 17.5504C0.910185 18.3943 0.912823 18.3943 1.73984 18.3855H1.74239C5.8395 18.3501 9.93706 18.3593 14.0345 18.3681C15.8862 18.3722 17.7384 18.3763 19.5903 18.3763C19.9277 18.3773 20.0096 18.2613 20.0096 17.9438C19.9959 16.8115 19.9889 15.6782 20.0096 14.5459C20.0166 14.1677 19.8983 14.0775 19.5419 14.0775C18.0812 14.0711 16.6227 14.0794 15.1648 14.0881ZM53.2302 15.3313V15.3322C53.2262 16.1798 53.2227 17.0015 53.2416 17.8233C53.2521 18.2576 53.1628 18.4076 52.7026 18.4003C50.9859 18.3722 49.2686 18.3855 47.5558 18.3984L47.258 18.4003C46.9759 18.4003 46.88 18.323 46.8809 18.0285C46.8967 15.7675 46.8915 13.5056 46.8862 11.2442V11.2437C46.8791 8.01096 46.8717 4.77822 46.9249 1.54962C50.2273 1.47187 53.5386 1.48889 56.8498 1.50591C58.7813 1.51558 60.7123 1.5257 62.6416 1.5165C64.7658 1.52386 66.4478 2.49101 67.6771 4.25231C69.5963 6.99641 68.9812 10.877 66.355 12.9512C65.2088 13.8571 63.925 14.2698 62.4986 14.2689C61.4594 14.2694 60.4241 14.2694 59.3907 14.2698H59.3898H59.3889H59.388C57.3395 14.2708 55.2958 14.2717 53.2332 14.2717C53.2332 14.6301 53.2315 14.9825 53.2302 15.3304V15.3309V15.3313ZM57.3699 9.35817V9.32412C57.7276 9.32412 58.0848 9.32181 58.4425 9.31951C59.2811 9.31399 60.1197 9.30848 60.957 9.33286C61.8488 9.35909 62.4278 8.53227 62.4163 7.89502C62.4001 7.06544 61.8307 6.4337 60.9873 6.42818C59.6045 6.42035 58.2199 6.42127 56.8366 6.42219C55.7556 6.42312 54.6755 6.42358 53.5962 6.42036C53.3142 6.42036 53.2183 6.52158 53.228 6.81283C53.2416 7.31343 53.2385 7.71971 53.2363 8.04869C53.231 8.74852 53.2284 9.09867 53.3943 9.26523C53.561 9.43179 53.8967 9.41384 54.5699 9.37749C55.1823 9.34436 56.0733 9.29605 57.3699 9.35817ZM112.608 8.47107H116.346C116.14 2.13581 109.109 0.75272 104.198 1.1024C100.117 1.16728 94.9453 2.62951 94.2435 7.49242C93.4115 12.6875 94.8533 16.9293 100.166 18.1877C105.875 19.5275 115.737 19.3739 116.342 11.4705C115.082 11.3666 113.777 11.3845 112.475 11.402C111.677 11.413 110.88 11.4236 110.093 11.4066C110.02 11.4181 109.951 11.4466 109.889 11.4899C109.829 11.5326 109.778 11.5892 109.74 11.6555C108.464 13.8737 105.281 13.5286 103.16 13.2328C101.327 12.913 100.222 11.6205 100.469 9.67104C100.554 7.80897 101.471 6.85102 103.263 6.58554C103.401 6.57358 103.541 6.56069 103.684 6.54781C105.822 6.35042 108.567 6.09691 109.772 8.25989C110.072 8.54745 110.908 8.5088 111.642 8.47475C112.021 8.4568 112.372 8.4407 112.608 8.47107ZM115.393 18.3897C116.888 15.3939 118.432 12.445 119.976 9.49573C121.268 7.02862 122.559 4.56151 123.823 2.06587C124.023 1.66512 124.237 1.47969 124.71 1.48706C126.928 1.5211 129.147 1.51235 131.365 1.49763C131.661 1.49763 131.771 1.65776 131.884 1.87355C132.961 3.96751 134.05 6.05319 135.139 8.13888C136.916 11.5442 138.694 14.949 140.419 18.3869C138.137 18.3869 135.938 18.3869 133.671 18.3952C133.412 18.3952 133.261 18.3432 133.152 18.0681C132.981 17.6438 132.794 17.227 132.607 16.8097C132.461 16.4844 132.315 16.1591 132.177 15.8301C132.076 15.5885 131.936 15.4974 131.686 15.4983C129.165 15.5089 126.644 15.5112 124.123 15.5066C123.859 15.5066 123.744 15.6235 123.646 15.8536C123.485 16.2318 123.316 16.6081 123.147 16.9854L123.147 16.9873C122.994 17.3268 122.842 17.6678 122.694 18.0105C122.578 18.2802 122.435 18.4067 122.113 18.4039C120.352 18.3869 118.592 18.3878 116.778 18.3892C116.32 18.3897 115.859 18.3897 115.393 18.3897ZM127.919 6.34674L125.67 11.3707H130.157L127.919 6.34674ZM46.0177 18.3957C43.1103 15.525 40.3016 12.7524 37.4536 9.94204L45.982 1.5234C40.8841 1.67477 39.4744 1.16589 38.3872 1.58091C37.3753 1.9674 36.6432 3.1545 33.4771 6.41944C33.1546 6.0739 32.8339 5.72927 32.5145 5.38557C31.3987 4.18606 30.2961 3.00127 29.1821 1.82891C29.0039 1.64901 28.7703 1.54043 28.5226 1.52248C26.5594 1.50362 24.6332 1.50546 22.6811 1.50684C22.114 1.5073 21.5446 1.50822 20.9718 1.50822L29.5253 9.94986L21.0541 18.2995C26.0715 18.2466 27.5076 18.7233 28.6115 18.2852C29.6454 17.8753 30.3881 16.6638 33.5044 13.467C33.841 13.8268 34.1754 14.1856 34.5084 14.5427C35.6449 15.7611 36.7664 16.9633 37.8949 18.1582C38.0207 18.2894 38.1884 18.3685 38.3661 18.3819C40.4775 18.3975 42.5111 18.3966 44.604 18.3957C45.0717 18.3957 45.5425 18.3957 46.0177 18.3957Z" fill="black"/>
</g>
</mask>
<g mask="url(#mask0_1346_4853)">
<path id="Vector_4" d="M70.3248 11.8004L70.9834 11.7577L70.9825 11.7439L70.9812 11.7296L70.3248 11.8004ZM81.3223 18.772L81.3399 18.0823L81.3148 18.0814L81.2893 18.0828L81.3223 18.772ZM75.2833 1.95591L75.1042 1.29151L75.1007 1.29244L75.2833 1.95591ZM92.4893 8.53549L91.8306 8.58334L91.8324 8.60543L91.835 8.62752L92.4893 8.53549ZM86.162 9.56292L85.5025 9.58225L85.503 9.60847L85.5056 9.6347L86.162 9.56292ZM81.6294 13.438L81.6202 14.1281L81.6299 14.1286L81.6391 14.1281L81.6294 13.438ZM78.7019 6.75947L78.8347 7.43583L78.844 7.43353L78.8528 7.43123L78.7019 6.75947ZM76.6344 10.7026L77.29 10.6244L77.2891 10.6138L77.2878 10.6037L76.6344 10.7026ZM161.542 18.3823V19.0725H161.542L161.542 18.3823ZM162.848 18.3819V19.072H164.204L163.367 17.9558L162.848 18.3819ZM161.541 18.3823V17.6922H161.54L161.541 18.3823ZM156.368 18.3704L156.293 19.0559L156.328 19.0601L156.362 19.0605L156.368 18.3704ZM155.921 18.115L155.404 18.5438L155.406 18.547L155.408 18.5498L155.921 18.115ZM154.713 16.4894L154.189 16.909L154.189 16.91L154.713 16.4894ZM154.712 16.4881L154.162 16.8709L154.175 16.8897L154.188 16.9077L154.712 16.4881ZM154.712 16.4876L155.261 16.1048L155.248 16.0859L155.235 16.0675L154.712 16.4876ZM147.738 14.2505L147.762 13.5608L147.75 13.5604H147.738V14.2505ZM147.308 17.0466L146.648 17.0434V17.0466H147.308ZM147.308 17.0475L147.968 17.0508V17.0475H147.308ZM147.305 17.9632L146.645 17.9627V17.9632H147.305ZM147.005 18.3694L146.991 19.0596H146.997H147.003L147.005 18.3694ZM141.002 18.3391H140.342V18.9924L140.965 19.0279L141.002 18.3391ZM141.002 1.53216L140.992 0.842439L140.342 0.852113V1.53216H141.002ZM156.753 1.51098L156.756 0.820815H156.753V1.51098ZM162.645 6.1535L162.009 6.33709L162.01 6.34261L162.645 6.1535ZM159.313 13.6717L159.008 13.0598L158.303 13.444L158.794 14.0978L159.313 13.6717ZM147.314 8.87506L147.973 8.90082V8.89484L147.974 8.88886L147.314 8.87506ZM147.786 9.35404L147.781 8.66387H147.779L147.786 9.35404ZM155.088 9.30296L155.094 8.61279H155.088H155.081L155.088 9.30296ZM156.439 7.4616L155.806 7.65714L155.808 7.66359L155.81 7.67003L156.439 7.4616ZM155.08 6.41899L155.074 7.10916H155.082H155.089L155.08 6.41899ZM152.474 6.41392V7.10409H152.475L152.474 6.41392ZM152.474 6.41392V5.72376H152.473L152.474 6.41392ZM151.407 6.4153V5.72513H151.392L151.378 5.7256L151.407 6.4153ZM7.23371 14.043H6.57375V14.7148L7.21576 14.7327L7.23371 14.043ZM7.23512 13.5581L7.89508 13.5613V13.5581H7.23512ZM7.23512 13.5581L6.57516 13.5549V13.5581H7.23512ZM7.22504 12.2642L7.88461 12.2408L7.88456 12.2399L7.22504 12.2642ZM7.60826 11.8851L7.56383 12.5739L7.586 12.5753H7.60826V11.8851ZM11.5824 11.8819V11.1917H11.5817L11.5824 11.8819ZM11.5836 11.8819V12.572H11.5843L11.5836 11.8819ZM19.5357 11.8851L19.5335 12.5753H19.5343L19.5357 11.8851ZM20.0121 11.3762L20.6721 11.3583V11.3578L20.0121 11.3762ZM19.5409 8.00085L19.5387 8.69101H19.5409V8.00085ZM7.30983 7.97646L6.67838 8.17707L6.8175 8.65605L7.29588 8.66663L7.30983 7.97646ZM7.2433 7.13216L7.90304 7.15057L7.90326 7.14136V7.13216H7.2433ZM7.2433 7.13216L6.58356 7.1133L6.58335 7.1225V7.13216H7.2433ZM7.2415 6.67159L6.58158 6.66469L6.58132 6.69046L6.58295 6.71669L7.2415 6.67159ZM7.95883 5.80474L7.95764 6.4949H7.95883V5.80474ZM7.95936 5.80474L7.96055 5.11457H7.95936V5.80474ZM8.09619 5.8052V6.49536H8.09843L8.09619 5.8052ZM20.0095 5.31702L20.6695 5.30322V5.29816L20.669 5.29264L20.0095 5.31702ZM19.9602 1.54228L20.6189 1.49534L20.5771 0.852113H19.9602V1.54228ZM0.903254 1.54228V0.852113H0.243164L0.243295 1.54228H0.903254ZM1.74232 18.3851L1.73691 17.6949H1.73582L1.74232 18.3851ZM14.0344 18.3676L14.033 19.0578H14.0344V18.3676ZM14.0344 18.3676L14.0362 17.6774H14.0348L14.0344 18.3676ZM19.5902 18.3759L19.592 17.6857H19.5902V18.3759ZM20.0095 17.9434H20.6695V17.9392V17.9346L20.0095 17.9434ZM19.5418 14.0771L19.5387 14.7672H19.5418V14.0771ZM53.2301 15.3318L53.89 15.3346V15.3318H53.2301ZM53.2415 17.8228L52.582 17.8399V17.8403L53.2415 17.8228ZM47.2579 18.3998V19.09H47.2627L47.2579 18.3998ZM46.8808 18.028L46.2209 18.023V18.0257L46.8808 18.028ZM46.8861 11.2437H46.2262V11.2451L46.8861 11.2437ZM46.8861 11.2432H47.5461V11.2414L46.8861 11.2432ZM46.9248 1.54917L46.9103 0.859471L46.2763 0.874187L46.2653 1.53721L46.9248 1.54917ZM62.6415 1.51605L62.6433 0.825884H62.6385L62.6415 1.51605ZM67.677 4.25186L67.1438 4.6586L67.1442 4.65953L67.677 4.25186ZM66.3549 12.9507L65.9572 12.4V12.4004L66.3549 12.9507ZM62.4985 14.2685L62.499 13.5783H62.4985V14.2685ZM53.2332 14.2712V13.5811H52.5732V14.2712H53.2332ZM53.2301 15.3299L52.5701 15.3267V15.3299H53.2301ZM57.3698 9.32367V8.6335H56.7098V9.32367H57.3698ZM57.3698 9.35772L57.3394 10.047L58.0297 10.0801V9.35772H57.3698ZM58.4424 9.31906L58.4464 10.0092H58.4486L58.4424 9.31906ZM58.4429 9.31906V8.62889H58.4394H58.4363L58.4429 9.31906ZM58.4429 9.31906V10.0092H58.4468L58.4429 9.31906ZM62.4163 7.89457L63.0762 7.88168V7.8803L62.4163 7.89457ZM53.5961 6.41991L53.5983 5.72974H53.5961V6.41991ZM53.2279 6.81238L53.8874 6.79259V6.78892L53.2279 6.81238ZM116.345 8.47062V9.16079H117.028L117.005 8.44762L116.345 8.47062ZM112.608 8.47062L112.527 9.15573L112.567 9.16079H112.608V8.47062ZM104.198 1.10195L104.208 1.79212L104.225 1.79166L104.243 1.79073L104.198 1.10195ZM94.2434 7.49197L94.8946 7.60607L94.8955 7.60055L94.8959 7.59504L94.2434 7.49197ZM100.165 18.1872L100.02 18.8604L100.021 18.8608L100.165 18.1872ZM116.342 11.4701L117 11.5253L117.053 10.836L116.394 10.7818L116.342 11.4701ZM110.093 11.4061L110.107 10.716L110.05 10.715L109.994 10.7238L110.093 11.4061ZM109.74 11.655L110.306 12.0107L110.309 12.0061L109.74 11.655ZM103.16 13.2323L103.051 13.9133L103.062 13.9151L103.072 13.9165L103.16 13.2323ZM100.469 9.67059L101.123 9.76123L101.126 9.73271L101.128 9.70371L100.469 9.67059ZM103.263 6.58509L103.209 5.89768L103.19 5.89907L103.171 5.90182L103.263 6.58509ZM109.772 8.25944L109.202 8.60681L109.252 8.69792L109.326 8.76878L109.772 8.25944ZM115.392 18.3892L114.807 18.0699L114.303 19.0794H115.392V18.3892ZM123.823 2.06542L124.406 2.38842L124.408 2.38428L123.823 2.06542ZM131.365 1.49718V0.807012H131.36L131.365 1.49718ZM131.884 1.8731L132.465 1.54596L132.462 1.54089L131.884 1.8731ZM140.419 18.3865V19.0766H141.51L141.003 18.0658L140.419 18.3865ZM133.671 18.3947V19.0849H133.673L133.671 18.3947ZM133.152 18.0676L133.762 17.8035L133.76 17.7994L133.152 18.0676ZM132.177 15.8296L131.572 16.1066L131.573 16.1075L132.177 15.8296ZM131.686 15.4979L131.683 14.8077H131.683L131.686 15.4979ZM124.123 15.5062L124.125 14.816H124.123V15.5062ZM123.646 15.8531L124.248 16.1347L124.249 16.1333L123.646 15.8531ZM123.147 16.985L122.55 16.6928L122.548 16.6951L123.147 16.985ZM123.147 16.9868L123.744 17.279L123.745 17.2767L123.147 16.9868ZM122.694 18.0101L123.295 18.2949L123.296 18.2935L122.694 18.0101ZM122.113 18.4035L122.107 19.0937H122.108L122.113 18.4035ZM125.67 11.3702L125.072 11.0776L124.632 12.0604H125.67V11.3702ZM127.919 6.34629L128.517 6.05457L127.921 4.7152L127.321 6.05366L127.919 6.34629ZM130.157 11.3702V12.0604H131.193L130.755 11.0785L130.157 11.3702ZM37.4535 9.94159L37.0004 9.43962L36.4922 9.94159L37.0004 10.4436L37.4535 9.94159ZM46.0176 18.3952V19.0854H47.6781L46.4708 17.8932L46.0176 18.3952ZM45.982 1.52294L46.4351 2.02493L47.6943 0.78171L45.9635 0.832778L45.982 1.52294ZM33.4771 6.41899L33.0041 6.90073L33.4674 7.3981L33.9404 6.91085L33.4771 6.41899ZM29.1821 1.82846L29.6497 1.34167L29.6449 1.3366L29.6401 1.33155L29.1821 1.82846ZM28.5225 1.52203L28.5692 0.833242L28.5489 0.831866H28.5287L28.5225 1.52203ZM20.9717 1.50777V0.8176H19.3108L20.5186 2.00928L20.9717 1.50777ZM29.5252 9.94941L29.978 10.4519L30.487 9.94987L29.9784 9.44744L29.5252 9.94941ZM21.054 18.299L20.6013 17.7966L19.3733 19.0067L21.0606 18.9888L21.054 18.299ZM33.5043 13.4665L33.9769 12.9843L33.5145 12.4892L33.0424 12.9737L33.5043 13.4665ZM37.8948 18.1578L37.4254 18.6427L37.4276 18.6451L37.4298 18.6478L37.8948 18.1578ZM38.366 18.3814L38.319 19.0697L38.3401 19.0716H38.3616L38.366 18.3814ZM69.6661 11.8437C69.8509 14.9504 71.7265 16.9334 74.0333 18.08C76.3216 19.2179 79.1035 19.5786 81.3549 19.4617L81.2893 18.0828C79.1911 18.1923 76.6401 17.8477 74.6 16.8336C72.5779 15.8282 71.1295 14.2123 70.9834 11.7577L69.6661 11.8437ZM75.1007 1.29244C72.6593 2.02678 71.1546 3.53455 70.3446 5.47208C69.55 7.37326 69.4466 9.6324 69.6683 11.8718L70.9812 11.7296C70.7705 9.59927 70.8897 7.61435 71.5541 6.02513C72.2035 4.4718 73.394 3.24193 75.4654 2.61894L75.1007 1.29244ZM93.1475 8.48765C92.997 6.22391 92.1479 4.49159 90.8411 3.22398C89.5485 1.97018 87.8454 1.20547 86.0243 0.78171C82.3923 -0.0635139 78.1158 0.40488 75.1042 1.29151L75.4619 2.62031C78.3261 1.77693 82.3743 1.34627 85.7375 2.12892C87.4142 2.51955 88.8762 3.20051 89.9436 4.23622C90.9969 5.25767 91.703 6.6587 91.8306 8.58334L93.1475 8.48765ZM81.3043 19.4622C84.6916 19.5584 87.9056 18.9243 90.1614 17.175C92.4712 15.3833 93.6662 12.5109 93.1431 8.44348L91.835 8.62752C92.3049 12.2822 91.2371 14.6223 89.3752 16.0661C87.46 17.5514 84.5935 18.1748 81.3399 18.0823L81.3043 19.4622ZM85.5056 9.6347C85.576 10.3359 85.4911 10.8443 85.3309 11.2179C85.1725 11.5865 84.9213 11.869 84.5839 12.0903C83.8781 12.5523 82.8209 12.7289 81.6193 12.7483L81.6391 14.1281C82.8886 14.1084 84.2565 13.9331 85.2843 13.2599C85.8136 12.9134 86.2562 12.4326 86.5347 11.7834C86.8114 11.1388 86.9073 10.375 86.8185 9.49069L85.5056 9.6347ZM78.8528 7.43123C80.0724 7.1317 81.8085 6.91959 83.216 7.2044C83.9155 7.34612 84.4778 7.59964 84.8628 7.96956C85.2297 8.32109 85.4818 8.82169 85.5025 9.58225L86.822 9.5436C86.7921 8.43565 86.4027 7.57341 85.7555 6.95226C85.1268 6.34905 84.304 6.01915 83.4668 5.84937C81.8001 5.51165 79.8563 5.76656 78.5509 6.08771L78.8528 7.43123ZM77.2878 10.6037C77.1782 9.81369 77.2376 9.07337 77.4822 8.51526C77.7119 7.99073 78.1189 7.58905 78.8347 7.43583L78.5694 6.08357C77.4295 6.32835 76.6824 7.02772 76.2824 7.94012C75.897 8.81893 75.85 9.85095 75.9811 10.8011L77.2878 10.6037ZM81.6382 12.7483C80.5594 12.7326 79.4903 12.6825 78.6631 12.3673C78.2615 12.2141 77.9499 12.0098 77.7278 11.7457C77.5104 11.488 77.3459 11.136 77.29 10.6244L75.9789 10.7804C76.062 11.5446 76.3247 12.1685 76.7374 12.6581C77.1444 13.1417 77.6648 13.4559 78.2108 13.6639C79.2791 14.0711 80.5682 14.1134 81.6202 14.1281L81.6382 12.7483ZM161.542 19.0725C161.973 19.0725 162.408 19.072 162.848 19.072V17.6917C162.408 17.6917 161.972 17.6922 161.542 17.6922L161.542 19.0725ZM161.541 19.0725H161.542V17.6922H161.541V19.0725ZM156.362 19.0605C158.067 19.0743 159.771 19.0734 161.541 19.0725L161.54 17.6922C159.769 17.6931 158.071 17.694 156.372 17.6802L156.362 19.0605ZM155.408 18.5498C155.628 18.8337 155.947 19.015 156.293 19.0559L156.442 17.6848C156.438 17.6843 156.435 17.682 156.434 17.6802L155.408 18.5498ZM154.189 16.91C154.52 17.36 154.916 17.9001 155.404 18.5438L156.438 17.6866C155.958 17.0521 155.566 16.5193 155.236 16.0694L154.189 16.91ZM154.188 16.9077L154.189 16.909L155.237 16.0698L155.236 16.0684L154.188 16.9077ZM154.162 16.8709L155.261 16.1052V16.1048L154.162 16.8709ZM152.516 14.9931C152.662 15.0543 152.826 15.1717 153.092 15.4749C153.364 15.7864 153.693 16.2332 154.188 16.9081L155.235 16.0675C154.755 15.4137 154.386 14.9089 154.065 14.5432C153.738 14.1691 153.415 13.8834 153.008 13.7127L152.516 14.9931ZM151.001 14.9237C151.932 14.8846 152.258 14.885 152.516 14.9931L153.008 13.7127C152.426 13.4679 151.762 13.5102 150.948 13.5447L151.001 14.9237ZM147.713 14.9402C149.215 14.9991 150.252 14.9554 151.001 14.9237L150.948 13.5447C150.209 13.5756 149.213 13.6179 147.762 13.5608L147.713 14.9402ZM147.959 14.6844C147.958 14.6255 147.963 14.6232 147.956 14.6508C147.947 14.6881 147.918 14.7691 147.841 14.8441C147.767 14.9163 147.696 14.9375 147.677 14.9421C147.663 14.9458 147.675 14.9407 147.738 14.9407V13.5604C147.567 13.5604 147.212 13.5691 146.939 13.8369C146.648 14.1217 146.635 14.5077 146.639 14.7157L147.959 14.6844ZM147.968 17.0503C147.972 16.2695 147.976 15.4776 147.959 14.6844L146.639 14.7152C146.656 15.4864 146.652 16.2594 146.648 17.0434L147.968 17.0503ZM147.968 17.0475V17.0466H146.648V17.0471L147.968 17.0475ZM147.965 17.9636C147.965 17.6604 147.967 17.3563 147.968 17.0508L146.648 17.0434C146.647 17.3485 146.646 17.6558 146.645 17.9627L147.965 17.9636ZM147.965 17.9963C147.965 17.9834 147.965 17.9733 147.965 17.9632H146.645C146.645 17.9779 146.645 17.9922 146.645 18.0041L147.965 17.9963ZM147.003 19.0596C147.261 19.0605 147.631 18.9823 147.84 18.6055C147.924 18.4541 147.948 18.3069 147.958 18.2148C147.967 18.1251 147.965 18.0363 147.965 17.9958L146.645 18.0041C146.646 18.063 146.645 18.0704 146.645 18.0685C146.646 18.0644 146.652 17.9972 146.698 17.9139C146.752 17.815 146.835 17.7437 146.919 17.706C146.988 17.6751 147.029 17.6793 147.007 17.6793L147.003 19.0596ZM144.504 19.0633C145.343 19.0522 146.17 19.0412 146.991 19.0596L147.019 17.6793C146.172 17.6604 145.323 17.6719 144.487 17.6834L144.504 19.0633ZM140.965 19.0279C142.148 19.0955 143.339 19.0794 144.504 19.0633L144.487 17.6834C143.314 17.6991 142.168 17.7143 141.037 17.6498L140.965 19.0279ZM140.342 1.53216V18.3391H141.661V1.53216H140.342ZM152.265 0.810242C148.511 0.798279 144.75 0.786305 140.992 0.842439L141.011 2.22232C144.755 2.16665 148.505 2.17861 152.261 2.19057L152.265 0.810242ZM156.753 0.820815C155.258 0.819895 153.762 0.815303 152.265 0.810242L152.261 2.19057C153.758 2.19564 155.255 2.20023 156.752 2.20115L156.753 0.820815ZM163.281 5.97038C162.499 3.00129 159.794 0.835539 156.756 0.820815L156.749 2.20115C159.207 2.21311 161.386 3.97488 162.009 6.33709L163.281 5.97038ZM159.618 14.2837C162.536 12.6935 164.202 9.35312 163.28 5.96486L162.01 6.34261C162.738 9.01539 161.45 11.7291 159.008 13.0598L159.618 14.2837ZM163.367 17.9558L159.832 13.2456L158.794 14.0978L162.328 18.8079L163.367 17.9558ZM147.896 6.99183C147.793 7.09903 147.699 7.07326 147.849 7.06406C147.987 7.05532 148.19 7.06544 148.538 7.08431L148.606 5.70581C148.291 5.68879 148.001 5.67222 147.772 5.68603C147.555 5.69937 147.222 5.74493 146.964 6.01363L147.896 6.99183ZM147.965 7.57984C147.957 7.25132 147.953 7.06268 147.964 6.93385C147.975 6.79628 147.994 6.88922 147.896 6.99183L146.964 6.01363C146.718 6.26991 146.667 6.59935 146.649 6.81468C146.63 7.03922 146.638 7.3208 146.646 7.61527L147.965 7.57984ZM147.974 8.88886C147.984 8.34501 147.973 7.91296 147.965 7.57984L146.646 7.61527C146.654 7.94655 146.664 8.35145 146.654 8.86125L147.974 8.88886ZM147.779 8.66387C147.719 8.66479 147.703 8.65973 147.713 8.66203C147.727 8.66525 147.789 8.68319 147.856 8.74576C147.928 8.81248 147.958 8.88702 147.969 8.92705C147.977 8.95788 147.971 8.95742 147.973 8.90082L146.654 8.84929C146.646 9.09867 146.673 9.49115 146.977 9.77549C147.255 10.035 147.607 10.046 147.793 10.0442L147.779 8.66387ZM151.028 8.64225C149.946 8.64823 148.863 8.65421 147.781 8.66387L147.792 10.0442C148.872 10.0345 149.953 10.0286 151.035 10.0226L151.028 8.64225ZM155.081 8.61279C153.731 8.62705 152.38 8.63489 151.028 8.64225L151.035 10.0226C152.387 10.0152 153.741 10.0074 155.095 9.99312L155.081 8.61279ZM155.81 7.67003C155.937 8.08827 155.587 8.61785 155.094 8.61279L155.082 9.99312C156.407 10.006 157.486 8.63028 157.068 7.25271L155.81 7.67003ZM155.538 7.25915C155.668 7.35853 155.761 7.4984 155.806 7.65714L157.072 7.26559C156.945 6.81653 156.68 6.42313 156.319 6.14614L155.538 7.25915ZM155.089 7.10916C155.251 7.10686 155.409 7.15977 155.538 7.25915L156.319 6.14614C155.958 5.86869 155.519 5.72239 155.071 5.72883L155.089 7.10916ZM152.475 7.10409C153.345 7.10225 154.21 7.10088 155.074 7.10916L155.086 5.72883C154.213 5.72054 153.341 5.72192 152.473 5.72376L152.475 7.10409ZM151.407 7.10547C151.763 7.10547 152.12 7.10455 152.475 7.10409L152.473 5.72376C152.117 5.72422 151.762 5.72513 151.407 5.72513V7.10547ZM148.538 7.08431C149.157 7.11789 150.083 7.16805 151.436 7.10455L151.378 5.7256C150.087 5.78587 149.212 5.73848 148.606 5.70581L148.538 7.08431ZM7.21576 14.7327C9.87544 14.8087 12.5272 14.793 15.1684 14.7778L15.1611 13.3975C12.5163 13.4127 9.88613 13.4279 7.25162 13.3533L7.21576 14.7327ZM6.57516 13.5549C6.57441 13.7136 6.57375 13.8769 6.57375 14.043H7.89367C7.89367 13.8806 7.89438 13.7205 7.89508 13.5613L6.57516 13.5549ZM6.56548 12.2882C6.57894 12.6977 6.57714 13.1095 6.57516 13.5549L7.89508 13.5613C7.89706 13.121 7.89913 12.6816 7.88461 12.2408L6.56548 12.2882ZM7.65274 11.1963C7.47812 11.1844 7.14686 11.1848 6.87593 11.4347C6.58863 11.7001 6.55791 12.0641 6.56548 12.2886L7.88456 12.2399C7.88179 12.1575 7.90903 12.3227 7.7491 12.4699C7.67536 12.538 7.60241 12.5615 7.56787 12.5693C7.53795 12.5757 7.53118 12.5716 7.56383 12.5739L7.65274 11.1963ZM11.5817 11.1917C10.2567 11.1936 8.93231 11.1949 7.60826 11.1949V12.5753C8.9332 12.5753 10.2588 12.5739 11.5836 12.572L11.5817 11.1917ZM11.583 11.1917L11.5824 12.572H11.583V11.1917ZM11.5836 11.1917L11.583 12.572H11.5836V11.1917ZM19.5379 11.1949C16.8861 11.1853 14.2336 11.1885 11.583 11.1917L11.5843 12.572C14.2354 12.5688 16.8853 12.5656 19.5335 12.5753L19.5379 11.1949ZM19.3526 11.3946C19.3544 11.4682 19.3495 11.4857 19.3517 11.4747C19.3557 11.4567 19.3742 11.3822 19.4424 11.3049C19.5123 11.2262 19.5854 11.1995 19.6087 11.1926C19.6241 11.1885 19.6091 11.1949 19.537 11.1949L19.5343 12.5753C19.7504 12.5757 20.1349 12.5546 20.4112 12.2426C20.6787 11.9403 20.6769 11.5478 20.6721 11.3583L19.3526 11.3946ZM19.3473 8.4536C19.3258 9.43364 19.3275 10.4146 19.3526 11.3951L20.6721 11.3578C20.6475 10.4008 20.6457 9.44329 20.6668 8.4858L19.3473 8.4536ZM19.5409 8.69101C19.6096 8.69101 19.628 8.69607 19.6201 8.69423C19.6074 8.69101 19.5387 8.67262 19.4657 8.60268C19.3887 8.52952 19.3588 8.449 19.3495 8.41219C19.3429 8.38551 19.3487 8.38965 19.3473 8.4536L20.6668 8.48626C20.6717 8.26817 20.6571 7.87109 20.3553 7.58352C20.0773 7.31758 19.7165 7.31068 19.5409 7.31068V8.69101ZM15.2151 8.69976C16.6591 8.69286 18.1 8.68595 19.5387 8.69101L19.5431 7.31068C18.0983 7.30562 16.6525 7.31253 15.2091 7.31943L15.2151 8.69976ZM7.29588 8.66663C9.93545 8.7246 12.5808 8.71219 15.2151 8.69976L15.2091 7.31943C12.572 7.33185 9.94355 7.34427 7.32373 7.28629L7.29588 8.66663ZM6.58356 7.1133C6.5767 7.38017 6.56117 7.77401 6.67838 8.17707L7.94128 7.77585C7.89631 7.62125 7.89525 7.45194 7.90304 7.15057L6.58356 7.1133ZM6.58295 6.71669C6.5903 6.83401 6.58766 6.95594 6.58356 7.1133L7.90304 7.15057C7.90683 7.00287 7.91206 6.8179 7.90005 6.6265L6.58295 6.71669ZM6.5727 6.3035C6.57767 6.40979 6.5829 6.52436 6.58158 6.66469L7.90141 6.67849C7.90317 6.49399 7.89609 6.34445 7.89108 6.23633L6.5727 6.3035ZM6.75423 5.46379C6.60196 5.66164 6.5763 5.87835 6.56918 5.98924C6.56214 6.09875 6.56891 6.22206 6.5727 6.3035L7.89108 6.23633C7.8887 6.18572 7.88711 6.15028 7.88637 6.12084C7.88562 6.09093 7.88619 6.08081 7.88615 6.08127C7.8861 6.08265 7.88562 6.08955 7.8839 6.10059C7.88223 6.11209 7.87893 6.12957 7.87264 6.15166C7.85949 6.19813 7.83326 6.26347 7.78249 6.32927L6.75423 5.46379ZM7.95998 5.11457C7.75803 5.11457 7.56163 5.11319 7.41076 5.12884C7.28699 5.14172 6.97237 5.18037 6.75423 5.46379L7.78249 6.32927C7.70774 6.42635 7.62146 6.4719 7.57187 6.49122C7.53109 6.50687 7.51191 6.50549 7.54209 6.50227C7.56884 6.49951 7.61301 6.49721 7.68684 6.49583C7.75952 6.49491 7.84651 6.4949 7.95764 6.4949L7.95998 5.11457ZM7.95936 5.11457H7.95883V6.4949L7.95936 5.11457ZM7.95936 5.11457L7.95883 6.4949H7.95936V5.11457ZM8.09619 5.11503C8.04867 5.11503 8.00371 5.11503 7.96055 5.11457L7.95822 6.4949C8.0012 6.49536 8.04735 6.49536 8.09619 6.49536V5.11503ZM19.5502 5.10767C15.7317 5.09893 11.9129 5.10123 8.0939 5.11503L8.09843 6.49536C11.915 6.48156 15.7312 6.47926 19.5471 6.48801L19.5502 5.10767ZM19.35 5.33082C19.3509 5.39432 19.346 5.40398 19.3504 5.38512C19.3566 5.35889 19.3795 5.28436 19.4485 5.21074C19.5172 5.13758 19.5871 5.11274 19.61 5.1063C19.6263 5.10216 19.6144 5.10813 19.5502 5.10767L19.5471 6.48801C19.7512 6.48847 20.1169 6.46868 20.3901 6.17789C20.6642 5.88618 20.6734 5.50428 20.6695 5.30322L19.35 5.33082ZM19.3381 3.69237C19.335 4.23023 19.3315 4.78513 19.35 5.34141L20.669 5.29264C20.6514 4.77042 20.6549 4.24404 20.658 3.70111L19.3381 3.69237ZM19.302 1.58921C19.3465 2.27431 19.3425 2.96815 19.3381 3.69237L20.658 3.70111C20.6624 2.98564 20.6673 2.24026 20.6189 1.49534L19.302 1.58921ZM0.903254 2.23245H19.9602V0.852113H0.903254V2.23245ZM1.5666 8.93073C1.5651 6.47006 1.56361 4.00847 1.56321 1.54228H0.243295C0.243691 4.00939 0.245186 6.47098 0.246682 8.93166L1.5666 8.93073ZM1.57008 17.55C1.57008 14.6734 1.56836 11.8023 1.5666 8.93073L0.246682 8.93166C0.248442 11.8032 0.250203 14.6738 0.250203 17.55H1.57008ZM1.73326 17.6949C1.62793 17.6958 1.54429 17.6968 1.47297 17.6963C1.40108 17.6954 1.35541 17.6931 1.3255 17.6899C1.29421 17.6866 1.30059 17.6848 1.32607 17.6935C1.35665 17.7046 1.41402 17.7313 1.4717 17.7892C1.52995 17.8477 1.55947 17.9084 1.57267 17.9457C1.58367 17.9761 1.58226 17.9871 1.57901 17.9581C1.57593 17.9305 1.5732 17.8859 1.57166 17.8136C1.57017 17.7419 1.57008 17.6572 1.57008 17.55H0.250203C0.250203 17.7442 0.249278 17.9498 0.267933 18.1173C0.286148 18.2816 0.335866 18.5627 0.557964 18.7854C0.776015 19.0039 1.04334 19.0481 1.19698 19.0638C1.35761 19.0803 1.55556 19.0771 1.74664 19.0753L1.73326 17.6949ZM1.73582 17.6949H1.73326L1.74664 19.0753L1.74884 19.0748L1.73582 17.6949ZM14.0362 17.6774C9.93941 17.6687 5.83799 17.6595 1.73691 17.6949L1.74778 19.0753C5.84089 19.0398 9.93506 19.049 14.033 19.0578L14.0362 17.6774ZM19.5902 17.6857C17.7392 17.6857 15.8883 17.6816 14.0362 17.6774L14.033 19.0578C15.8848 19.0619 17.7375 19.0661 19.5902 19.0661V17.6857ZM19.3495 17.9434C19.3495 17.9986 19.3456 18.0027 19.3504 17.9811C19.357 17.9526 19.3808 17.8771 19.4494 17.8021C19.5194 17.7253 19.5929 17.6963 19.6245 17.6876C19.6492 17.6807 19.6461 17.6857 19.592 17.6857L19.5885 19.0661C19.7864 19.0665 20.1397 19.044 20.4033 18.7564C20.6598 18.4757 20.6695 18.115 20.6695 17.9434H19.3495ZM19.35 14.5321C19.3289 15.6755 19.3359 16.8179 19.35 17.9526L20.6695 17.9346C20.6558 16.8046 20.6488 15.6801 20.6695 14.5588L19.35 14.5321ZM19.5418 14.7672C19.6109 14.7672 19.6294 14.7723 19.6219 14.7705C19.6091 14.7677 19.5405 14.7493 19.4679 14.6798C19.3909 14.6067 19.361 14.5266 19.3517 14.4903C19.3451 14.464 19.3509 14.4686 19.35 14.5321L20.6695 14.5588C20.6734 14.3416 20.6576 13.9459 20.3562 13.6588C20.0777 13.3943 19.7178 13.3869 19.5418 13.3869V14.7672ZM15.1684 14.7778C16.627 14.7691 18.082 14.7608 19.5387 14.7672L19.5445 13.3869C18.0802 13.3805 16.6186 13.3887 15.1611 13.3975L15.1684 14.7778ZM53.89 15.3318V15.3309H52.5701V15.3318H53.89ZM53.9015 17.8063C53.8826 16.996 53.8861 16.1844 53.89 15.3346L52.5701 15.3286C52.5662 16.1747 52.5626 17.0061 52.582 17.8399L53.9015 17.8063ZM52.6924 19.09C52.9366 19.0941 53.3493 19.0743 53.6384 18.7394C53.9116 18.4233 53.9063 18.0087 53.9015 17.8058L52.582 17.8403C52.5829 17.8827 52.5824 17.9135 52.5811 17.9356C52.5802 17.9586 52.5785 17.9664 52.5789 17.9641C52.5798 17.9595 52.5939 17.8896 52.659 17.8146C52.6902 17.7777 52.7245 17.7511 52.7562 17.7327C52.7866 17.7152 52.809 17.7083 52.8165 17.706C52.8231 17.7041 52.8196 17.706 52.8007 17.7073C52.7822 17.7092 52.7536 17.7106 52.7127 17.7101L52.6924 19.09ZM47.5606 19.0881C49.2747 19.0748 50.984 19.0624 52.6924 19.09L52.7131 17.7101C50.9871 17.6816 49.2624 17.6949 47.5509 17.7078L47.5606 19.0881ZM47.2627 19.09L47.5606 19.0881L47.5509 17.7078L47.2535 17.7097L47.2627 19.09ZM46.2209 18.0257C46.2204 18.2093 46.2398 18.5696 46.5196 18.8355C46.7801 19.0826 47.1083 19.09 47.2579 19.09V17.7097C47.2104 17.7097 47.2082 17.706 47.2297 17.711C47.2561 17.7175 47.3309 17.7409 47.407 17.8136C47.4867 17.8891 47.5214 17.9733 47.5346 18.0211C47.5448 18.0593 47.5408 18.0713 47.5408 18.0299L46.2209 18.0257ZM46.2262 11.2451C46.2314 13.5075 46.2367 15.7661 46.2209 18.023L47.5408 18.0331C47.5566 15.7684 47.5514 13.5033 47.5461 11.2419L46.2262 11.2451ZM46.2262 11.2432V11.2437H47.5461V11.2432H46.2262ZM46.2653 1.53721C46.2116 4.77363 46.2191 8.01327 46.2262 11.2451L47.5461 11.2414C47.539 8.00729 47.5316 4.78145 47.5848 1.56114L46.2653 1.53721ZM56.8528 0.815297C53.5433 0.798273 50.2229 0.781252 46.9103 0.859471L46.9398 2.23934C50.2317 2.16204 53.5341 2.1786 56.8466 2.19563L56.8528 0.815297ZM62.6385 0.825884C60.7127 0.835086 58.7847 0.824959 56.8528 0.815297L56.8466 2.19563C58.7772 2.20529 60.7118 2.21542 62.6442 2.20622L62.6385 0.825884ZM68.2098 3.84512C66.8648 1.91726 64.991 0.833706 62.6433 0.825884L62.6393 2.20622C64.5409 2.21266 66.0306 3.0634 67.1438 4.6586L68.2098 3.84512ZM66.7526 13.5015C69.6534 11.2106 70.3516 6.90671 68.2094 3.84421L67.1442 4.65953C68.8412 7.08523 68.3093 10.5425 65.9572 12.4L66.7526 13.5015ZM62.4981 14.9586C64.0574 14.9596 65.4833 14.505 66.7531 13.5015L65.9572 12.4004C64.9342 13.2088 63.7929 13.5792 62.499 13.5783L62.4981 14.9586ZM59.3906 14.9596C60.4245 14.9591 61.4593 14.9591 62.499 14.9586L62.4985 13.5783C61.4589 13.5788 60.4241 13.5788 59.3901 13.5792L59.3906 14.9596ZM59.3897 14.9596H59.3906V13.5792H59.3901L59.3897 14.9596ZM59.3888 14.9596H59.3897L59.3901 13.5792H59.3888V14.9596ZM59.3879 14.9596H59.3888V13.5792H59.3879V14.9596ZM53.2332 14.9614C55.2962 14.9614 57.3399 14.9605 59.3884 14.9596L59.3879 13.5792C57.3394 13.5801 55.2957 13.5811 53.2332 13.5811V14.9614ZM53.89 15.3332C53.8914 14.9853 53.8931 14.6315 53.8931 14.2712H52.5732C52.5732 14.6278 52.5714 14.9784 52.5701 15.3267L53.89 15.3332ZM53.89 15.3304V15.3299H52.5701V15.3304H53.89ZM53.89 15.3309V15.3304H52.5701V15.3309H53.89ZM56.7098 9.32367V9.35772H58.0297V9.32367H56.7098ZM58.4385 8.62889C58.0803 8.6312 57.7248 8.6335 57.3698 8.6335V10.0138C57.7297 10.0138 58.0891 10.0115 58.4464 10.0092L58.4385 8.62889ZM58.4363 8.62889L58.4486 10.0092H58.449L58.4363 8.62889ZM60.9754 8.6427C60.1249 8.61785 59.2753 8.62337 58.4385 8.62889L58.4468 10.0092C59.2872 10.0037 60.1143 9.99819 60.9384 10.0226L60.9754 8.6427ZM61.7567 7.90744C61.7585 8.01925 61.7 8.21664 61.5447 8.38918C61.4012 8.54838 61.2085 8.6496 60.9754 8.6427L60.9384 10.0226C61.597 10.0414 62.14 9.74236 62.506 9.33517C62.8602 8.94131 63.0855 8.40712 63.0762 7.88168L61.7567 7.90744ZM60.9833 7.11789C61.4576 7.12111 61.7475 7.44089 61.7567 7.90882L63.0762 7.8803C63.0525 6.68908 62.2038 5.74538 60.9912 5.73756L60.9833 7.11789ZM56.837 7.11191C58.2207 7.11099 59.6031 7.11007 60.9837 7.11789L60.9912 5.73756C59.6053 5.72974 58.2194 5.73066 56.8361 5.73158L56.837 7.11191ZM53.5944 7.11007C54.6749 7.11329 55.7564 7.11283 56.837 7.11191L56.8361 5.73158C55.7551 5.7325 54.6758 5.73296 53.5983 5.72974L53.5944 7.11007ZM53.8874 6.78892C53.8861 6.75165 53.8905 6.76086 53.8821 6.79582C53.872 6.83769 53.8438 6.9159 53.7734 6.99044C53.7035 7.06498 53.6309 7.09489 53.5948 7.10502C53.5645 7.11376 53.5583 7.11007 53.5961 7.11007V5.72974C53.4166 5.72974 53.0858 5.75321 52.8319 6.02329C52.575 6.2966 52.5622 6.64582 52.5684 6.83584L53.8874 6.78892ZM53.8962 8.05331C53.8984 7.72387 53.9015 7.307 53.8874 6.79259L52.5679 6.83216C52.5816 7.31896 52.5785 7.71466 52.5763 8.04272L53.8962 8.05331ZM53.8509 8.76647C53.9446 8.85988 53.923 8.94269 53.9076 8.78533C53.8927 8.63671 53.8931 8.42048 53.8962 8.05331L52.5763 8.04272C52.5736 8.37584 52.5706 8.68458 52.5948 8.92798C52.6181 9.16218 52.6784 9.5031 52.9379 9.76307L53.8509 8.76647ZM54.5355 8.6878C54.1826 8.70666 53.9745 8.71677 53.8315 8.70803C53.6788 8.69837 53.7572 8.67261 53.8509 8.76647L52.9379 9.76307C53.198 10.0239 53.5275 10.0718 53.7528 10.0861C53.9873 10.1003 54.2838 10.0833 54.6037 10.0663L54.5355 8.6878ZM57.4001 8.66846C56.0714 8.60451 55.1545 8.65421 54.5355 8.6878L54.6037 10.0663C55.2095 10.0332 56.0754 9.98622 57.3394 10.047L57.4001 8.66846ZM116.345 7.78045H112.608V9.16079H116.345V7.78045ZM104.243 1.79073C106.637 1.62003 109.507 1.87816 111.772 2.91202C114.008 3.93209 115.594 5.66486 115.686 8.49408L117.005 8.44762C116.891 4.94158 114.86 2.81494 112.3 1.64718C109.771 0.493226 106.67 0.234183 104.153 0.413627L104.243 1.79073ZM94.8959 7.59504C95.2066 5.44356 96.4935 4.02595 98.2468 3.11585C100.019 2.19609 102.225 1.82341 104.208 1.79212L104.188 0.411787C102.09 0.445375 99.6696 0.83601 97.6603 1.87954C95.6316 2.93228 93.9821 4.67792 93.591 7.38936L94.8959 7.59504ZM100.312 17.5141C97.8125 16.9219 96.3038 15.6562 95.4868 13.9998C94.6562 12.3139 94.4912 10.1224 94.8946 7.60607L93.5927 7.37832C93.1638 10.0562 93.3037 12.5835 94.3139 14.632C95.3381 16.7098 97.2067 18.1941 100.02 18.8604L100.312 17.5141ZM115.684 11.4149C115.546 13.2277 114.884 14.5602 113.905 15.5448C112.914 16.5414 111.562 17.2155 110.006 17.6259C106.885 18.4495 103.103 18.1693 100.31 17.5136L100.021 18.8608C102.937 19.545 106.942 19.8584 110.329 18.9644C112.028 18.5158 113.613 17.7529 114.82 16.54C116.038 15.3143 116.836 13.6639 117 11.5253L115.684 11.4149ZM112.483 12.0917C113.791 12.0742 115.065 12.0572 116.29 12.158L116.394 10.7818C115.098 10.6755 113.763 10.6939 112.466 10.7114L112.483 12.0917ZM110.079 12.0963C110.879 12.1133 111.687 12.1027 112.483 12.0917L112.466 10.7114C111.666 10.7224 110.88 10.733 110.107 10.716L110.079 12.0963ZM110.258 12.0613C110.239 12.0756 110.216 12.0848 110.192 12.0885L109.994 10.7238C109.824 10.7509 109.663 10.8167 109.521 10.917L110.258 12.0613ZM110.309 12.0061C110.296 12.0282 110.279 12.0471 110.258 12.0613L109.521 10.917C109.378 11.0173 109.259 11.1498 109.172 11.3044L110.309 12.0061ZM103.072 13.9165C104.13 14.0637 105.532 14.2372 106.846 14.0715C108.162 13.9054 109.518 13.3805 110.306 12.0107L109.175 11.2994C108.686 12.1478 107.813 12.5592 106.688 12.7013C105.56 12.8435 104.31 12.6967 103.247 12.5481L103.072 13.9165ZM99.8144 9.58041C99.6705 10.7155 99.9173 11.7245 100.523 12.4994C101.122 13.2654 102.017 13.7325 103.051 13.9133L103.268 12.5518C102.469 12.4124 101.895 12.0733 101.545 11.6256C101.202 11.1871 101.02 10.5752 101.123 9.76123L99.8144 9.58041ZM103.171 5.90182C102.187 6.04767 101.351 6.39644 100.75 7.05118C100.144 7.71098 99.8571 8.59439 99.8091 9.63747L101.128 9.70371C101.165 8.88472 101.38 8.35789 101.702 8.00683C102.029 7.6507 102.547 7.38844 103.356 7.26881L103.171 5.90182ZM103.626 5.8595C103.483 5.87284 103.344 5.88571 103.209 5.89768L103.318 7.27295C103.457 7.26099 103.599 7.24764 103.742 7.23476L103.626 5.8595ZM110.342 7.91251C109.606 6.58924 108.401 6.03801 107.181 5.83648C105.982 5.63864 104.678 5.76241 103.626 5.8595L103.742 7.23476C104.828 7.13446 105.965 7.03324 106.975 7.20026C107.964 7.36314 108.734 7.76711 109.202 8.60681L110.342 7.91251ZM111.612 7.7846C111.237 7.80208 110.881 7.81772 110.585 7.7984C110.439 7.7892 110.33 7.77218 110.255 7.75147C110.173 7.72939 110.181 7.71558 110.218 7.75055L109.326 8.76878C109.513 8.9473 109.738 9.03655 109.92 9.0867C110.11 9.1387 110.312 9.16401 110.504 9.17643C110.884 9.20081 111.314 9.18012 111.671 9.16355L111.612 7.7846ZM112.689 7.78597C112.384 7.7464 111.966 7.76849 111.612 7.7846L111.671 9.16355C112.076 9.14469 112.359 9.13411 112.527 9.15573L112.689 7.78597ZM119.397 9.16402C117.854 12.1124 116.307 15.0668 114.807 18.0699L115.977 18.709C117.47 15.7197 119.01 12.7768 120.555 9.82656L119.397 9.16402ZM123.24 1.74243C121.978 4.23301 120.689 6.69598 119.397 9.16402L120.555 9.82656C121.846 7.36037 123.14 4.88866 124.406 2.38842L123.24 1.74243ZM124.719 0.796439C124.399 0.791838 124.082 0.851191 123.799 1.04812C123.526 1.23768 123.359 1.50409 123.238 1.74611L124.408 2.38428C124.487 2.226 124.527 2.19931 124.529 2.19793C124.53 2.19747 124.531 2.19655 124.534 2.19517C124.537 2.19379 124.543 2.1915 124.554 2.18873C124.578 2.18275 124.623 2.17539 124.7 2.17677L124.719 0.796439ZM131.36 0.807012C129.143 0.821736 126.93 0.830487 124.719 0.796439L124.7 2.17677C126.925 2.21082 129.15 2.20207 131.369 2.18734L131.36 0.807012ZM132.462 1.54089C132.404 1.43092 132.297 1.22894 132.11 1.06928C131.896 0.886615 131.64 0.807012 131.365 0.807012V2.18734C131.382 2.18734 131.374 2.18965 131.35 2.18183C131.338 2.17769 131.325 2.1717 131.311 2.16388C131.298 2.15606 131.286 2.14732 131.276 2.13904C131.257 2.12294 131.251 2.11281 131.258 2.12294C131.262 2.128 131.268 2.13674 131.276 2.15101C131.284 2.16527 131.294 2.18274 131.305 2.20529L132.462 1.54089ZM135.717 7.8076C134.629 5.72145 133.541 3.63762 132.465 1.54596L131.302 2.19977C132.381 4.29604 133.471 6.38356 134.559 8.46878L135.717 7.8076ZM141.003 18.0658C139.275 14.6218 137.495 11.2124 135.717 7.8076L134.559 8.46878C136.337 11.8754 138.112 15.2752 139.834 18.7072L141.003 18.0658ZM133.673 19.0849C135.939 19.0766 138.137 19.0766 140.419 19.0766V17.6963C138.137 17.6963 135.937 17.6963 133.669 17.7046L133.673 19.0849ZM132.542 18.3317C132.633 18.5609 132.781 18.7941 133.041 18.9414C133.276 19.0743 133.518 19.0849 133.671 19.0849V17.7046C133.649 17.7046 133.632 17.7041 133.621 17.7032C133.61 17.7023 133.605 17.7018 133.605 17.7018C133.606 17.7018 133.633 17.7069 133.669 17.7276C133.709 17.7497 133.738 17.7782 133.757 17.8021C133.772 17.8224 133.772 17.8288 133.762 17.8035L132.542 18.3317ZM132.009 17.1023C132.197 17.5215 132.379 17.9264 132.544 18.3359L133.76 17.7994C133.583 17.3609 133.39 16.9316 133.205 16.5166L132.009 17.1023ZM131.573 16.1075C131.715 16.4453 131.864 16.7779 132.009 17.1023L133.205 16.5166C133.058 16.1899 132.916 15.872 132.781 15.5517L131.573 16.1075ZM131.688 16.1881C131.741 16.1881 131.697 16.1982 131.631 16.154C131.6 16.1333 131.58 16.1103 131.569 16.096C131.561 16.0841 131.563 16.0836 131.572 16.1066L132.782 15.5531C132.699 15.3566 132.569 15.1427 132.343 14.9918C132.12 14.8418 131.881 14.8073 131.683 14.8077L131.688 16.1881ZM124.122 16.1963C126.644 16.2009 129.166 16.1986 131.688 16.1881L131.683 14.8077C129.164 14.8183 126.644 14.8206 124.125 14.816L124.122 16.1963ZM124.249 16.1333C124.263 16.1002 124.269 16.0914 124.267 16.0951C124.263 16.1011 124.247 16.1227 124.217 16.1462C124.186 16.1706 124.154 16.1853 124.13 16.1922C124.108 16.1986 124.103 16.1963 124.123 16.1963V14.816C123.895 14.816 123.648 14.868 123.427 15.0405C123.22 15.2025 123.11 15.4155 123.043 15.5729L124.249 16.1333ZM123.745 17.2776C123.913 16.9008 124.084 16.5189 124.248 16.1347L123.043 15.5715C122.884 15.9433 122.718 16.3141 122.55 16.6928L123.745 17.2776ZM123.745 17.2767L123.746 17.2748L122.548 16.6951L122.548 16.6965L123.745 17.2767ZM123.296 18.2935C123.441 17.9558 123.592 17.6195 123.744 17.279L122.549 16.6942C122.397 17.0333 122.243 17.3784 122.093 17.7262L123.296 18.2935ZM122.108 19.0937C122.35 19.096 122.615 19.0495 122.854 18.8779C123.087 18.7104 123.215 18.4812 123.295 18.2949L122.093 17.7253C122.085 17.7446 122.078 17.758 122.073 17.7667C122.069 17.7754 122.066 17.7787 122.067 17.7782C122.068 17.7773 122.071 17.7722 122.078 17.7649C122.085 17.7575 122.095 17.7488 122.107 17.74C122.119 17.7317 122.131 17.7248 122.142 17.7198C122.152 17.7147 122.16 17.7124 122.164 17.7115C122.167 17.7106 122.166 17.711 122.158 17.7119C122.151 17.7129 122.138 17.7138 122.118 17.7138L122.108 19.0937ZM116.779 19.0789C118.593 19.0776 120.35 19.0766 122.107 19.0937L122.119 17.7138C120.354 17.6963 118.592 17.6972 116.778 17.6986L116.779 19.0789ZM115.392 19.0794C115.859 19.0794 116.32 19.0794 116.779 19.0789L116.778 17.6986C116.32 17.6991 115.858 17.6991 115.392 17.6991V19.0794ZM126.268 11.6629L128.517 6.63892L127.321 6.05366L125.072 11.0776L126.268 11.6629ZM130.157 10.6801H125.67V12.0604H130.157V10.6801ZM127.321 6.63753L129.559 11.6615L130.755 11.0785L128.517 6.05457L127.321 6.63753ZM37.0004 10.4436C39.8483 13.2535 42.6571 16.0261 45.5644 18.8967L46.4708 17.8932C43.563 15.0226 40.7542 12.25 37.9063 9.43962L37.0004 10.4436ZM45.5292 1.02096L37.0004 9.43962L37.9067 10.4431L46.4351 2.02493L45.5292 1.02096ZM38.6137 2.22875C39.0049 2.07922 39.4761 2.08336 40.6491 2.14226C41.7785 2.19885 43.4257 2.28904 46.0009 2.21266L45.9635 0.832778C43.4403 0.907776 41.8335 0.819435 40.712 0.763301C39.6336 0.709468 38.8566 0.66668 38.1606 0.932164L38.6137 2.22875ZM33.9404 6.91085C35.5256 5.27562 36.5265 4.135 37.2116 3.40342C37.9239 2.6424 38.2657 2.36172 38.6137 2.22875L38.1606 0.932164C37.4971 1.18568 36.9665 1.69181 36.2687 2.43765C35.5432 3.21201 34.5946 4.29741 33.0133 5.92758L33.9404 6.91085ZM32.0414 5.86639C32.3609 6.21009 32.6816 6.55472 33.0041 6.90073L33.9496 5.93771C33.6275 5.5917 33.3068 5.24755 32.9874 4.90385L32.0414 5.86639ZM28.7139 2.3148C29.8253 3.4844 30.9252 4.66642 32.0414 5.86639L32.9874 4.90385C31.872 3.7048 30.7673 2.51725 29.6497 1.34167L28.7139 2.3148ZM28.4763 2.21036C28.5701 2.21726 28.6576 2.25821 28.7236 2.32492L29.6401 1.33155C29.3501 1.03891 28.9709 0.863149 28.5692 0.833242L28.4763 2.21036ZM22.6819 2.19656C24.6341 2.19518 26.5572 2.19333 28.5168 2.2122L28.5287 0.831866C26.5616 0.813001 24.6319 0.814843 22.6806 0.816223L22.6819 2.19656ZM20.9717 2.19793C21.545 2.19793 22.1148 2.19702 22.6819 2.19656L22.6806 0.816223C22.1135 0.816684 21.5441 0.8176 20.9717 0.8176V2.19793ZM29.9784 9.44744L21.4245 1.00578L20.5186 2.00928L29.0725 10.4514L29.9784 9.44744ZM21.5063 18.801L29.978 10.4519L29.0725 9.44744L20.6013 17.7966L21.5063 18.801ZM28.3778 17.6392C27.9787 17.7975 27.4917 17.8063 26.3328 17.7469C25.2113 17.6889 23.5786 17.5822 21.047 17.6089L21.0606 18.9888C23.5464 18.963 25.1409 19.0674 26.2677 19.1254C27.3575 19.1815 28.1402 19.2096 28.8455 18.9299L28.3778 17.6392ZM33.0424 12.9737C31.4792 14.5772 30.4914 15.7036 29.8051 16.4384C29.0936 17.1994 28.7412 17.4952 28.3778 17.6392L28.8455 18.9299C29.5156 18.6644 30.051 18.1495 30.7488 17.4032C31.4712 16.6302 32.4132 15.5526 33.9668 13.9588L33.0424 12.9737ZM34.9809 14.0605C34.6478 13.703 34.313 13.3446 33.9769 12.9843L33.0323 13.9482C33.3684 14.3085 33.7028 14.6669 34.0358 15.024L34.9809 14.0605ZM38.3643 17.6728C37.2375 16.4798 36.1173 15.2793 34.9809 14.0605L34.0358 15.024C35.1723 16.2424 36.2951 17.446 37.4254 18.6427L38.3643 17.6728ZM38.4136 17.6931C38.3924 17.6917 38.3735 17.682 38.3594 17.6678L37.4298 18.6478C37.6683 18.8954 37.9841 19.0449 38.319 19.0697L38.4136 17.6931ZM44.6035 17.705C42.5106 17.706 40.4792 17.7069 38.3709 17.6912L38.3616 19.0716C40.4757 19.0872 42.5119 19.0863 44.6044 19.0854L44.6035 17.705ZM46.0176 17.705C45.5424 17.705 45.0717 17.705 44.6035 17.705L44.6044 19.0854C45.0721 19.0854 45.5424 19.0854 46.0176 19.0854V17.705Z" fill="black"/>
</g>
</g>
<g id="Mask group_2">
<mask id="mask1_1346_4853" style="mask-type:luminance" maskUnits="userSpaceOnUse" x="0" y="0" width="165" height="20">
<g id="Group_2">
<path id="Vector_5" d="M164.574 0.107666H0.0244141V19.8924H164.574V0.107666Z" fill="white"/>
<path id="Vector_6" fillRule="evenodd" clipRule="evenodd" d="M81.3224 18.7725C76.9728 18.9993 70.6562 17.3627 70.3249 11.8009C69.8924 7.43122 70.7701 3.31323 75.2833 1.95636C81.1587 0.226348 91.9328 0.158705 92.4894 8.53594C93.4824 16.258 87.9634 18.9616 81.3224 18.7725ZM81.6295 13.4384C84.0802 13.3998 86.4807 12.734 86.1621 9.56337C86.0618 5.82635 81.2269 6.13923 78.7019 6.75992C76.8466 7.15838 76.3938 8.96293 76.6345 10.7031C76.9121 13.2544 79.4987 13.4081 81.6295 13.4384ZM162.848 18.3823C162.408 18.3823 161.972 18.3828 161.542 18.3828H161.541C159.77 18.3837 158.069 18.3846 156.368 18.3708C156.192 18.3501 156.032 18.2581 155.921 18.1154C155.437 17.4764 155.043 16.9399 154.713 16.4899L154.712 16.4885V16.488C153.736 15.1592 153.315 14.5855 152.762 14.3531C152.342 14.1769 151.847 14.1976 150.974 14.2344C150.231 14.2662 149.214 14.309 147.738 14.251C147.403 14.251 147.291 14.3407 147.299 14.7005C147.316 15.4822 147.312 16.2649 147.308 17.0471V17.0475C147.307 17.3526 147.306 17.6586 147.305 17.9636C147.305 17.976 147.305 17.9885 147.305 18.0004C147.306 18.1992 147.307 18.3708 147.005 18.3699C146.171 18.351 145.333 18.3625 144.495 18.3736C143.326 18.3897 142.158 18.4053 141.002 18.3395V1.53261C144.753 1.47693 148.508 1.4889 152.263 1.50086C153.76 1.50592 155.256 1.51051 156.753 1.51143C159.501 1.52478 161.943 3.48853 162.645 6.15395C163.47 9.1847 161.993 12.2118 159.313 13.6722L162.848 18.3823ZM148.573 6.39552C147.909 6.35963 147.585 6.34213 147.43 6.50317C147.282 6.65731 147.29 6.97524 147.305 7.59777C147.313 7.92997 147.324 8.34868 147.314 8.8755C147.3 9.26108 147.445 9.35817 147.786 9.35449C148.868 9.34482 149.95 9.33884 151.031 9.33286C152.383 9.3255 153.736 9.31767 155.088 9.3034C155.997 9.31215 156.712 8.35973 156.439 7.46205C156.353 7.15792 156.174 6.89106 155.929 6.70287C155.683 6.51468 155.385 6.4153 155.08 6.41944C154.212 6.41116 153.343 6.41253 152.474 6.41437C152.118 6.41483 151.763 6.41575 151.407 6.41575C150.085 6.4774 149.185 6.42864 148.573 6.39552ZM15.1648 14.0881C12.5219 14.1033 9.88083 14.1189 7.23378 14.0435C7.23378 13.8792 7.23448 13.7177 7.23519 13.5585C7.23721 13.1154 7.2391 12.6898 7.22511 12.2647C7.21473 11.9573 7.34105 11.8667 7.60833 11.8855C8.93282 11.8855 10.2576 11.8842 11.5825 11.8823H11.5831H11.5837C14.2344 11.8791 16.8858 11.8759 19.5357 11.8855C19.9335 11.8865 20.0219 11.7572 20.0122 11.3767C19.9876 10.4081 19.9858 9.43915 20.0074 8.47016C20.0157 8.09102 19.8965 8.0013 19.541 8.0013C18.0992 7.99624 16.6561 8.00314 15.2122 8.01005C12.5765 8.02247 9.93957 8.03488 7.3099 7.97691C7.22881 7.69808 7.23607 7.4165 7.24337 7.13261C7.24729 6.97985 7.25125 6.82617 7.24157 6.67203C7.24311 6.50962 7.23695 6.37757 7.23198 6.27036C7.22291 6.0762 7.21763 5.96301 7.26845 5.89675C7.33981 5.80427 7.5217 5.80472 7.9589 5.80518H7.95943C8.00254 5.80564 8.04808 5.80565 8.09626 5.80565C11.914 5.79184 15.7315 5.78955 19.5489 5.79829C19.9154 5.79921 20.0166 5.68142 20.0096 5.31747C19.9915 4.77822 19.9951 4.23759 19.9981 3.69742C20.0025 2.97735 20.0069 2.25774 19.9603 1.54273H0.90332C0.903716 4.00938 0.905211 6.47097 0.906707 8.93164C0.908467 11.8032 0.910185 14.6738 0.910185 17.5504C0.910185 18.3943 0.912823 18.3943 1.73984 18.3855H1.74239C5.8395 18.3501 9.93706 18.3593 14.0345 18.3681C15.8862 18.3722 17.7384 18.3763 19.5903 18.3763C19.9277 18.3773 20.0096 18.2613 20.0096 17.9438C19.9959 16.8115 19.9889 15.6782 20.0096 14.5459C20.0166 14.1677 19.8983 14.0775 19.5419 14.0775C18.0812 14.0711 16.6227 14.0794 15.1648 14.0881ZM53.2302 15.3313V15.3322C53.2262 16.1798 53.2227 17.0015 53.2416 17.8233C53.2521 18.2576 53.1628 18.4076 52.7026 18.4003C50.9859 18.3722 49.2686 18.3855 47.5558 18.3984L47.258 18.4003C46.9759 18.4003 46.88 18.323 46.8809 18.0285C46.8967 15.7675 46.8915 13.5056 46.8862 11.2442V11.2437C46.8791 8.01096 46.8717 4.77822 46.9249 1.54962C50.2273 1.47187 53.5386 1.48889 56.8498 1.50591C58.7813 1.51558 60.7123 1.5257 62.6416 1.5165C64.7658 1.52386 66.4478 2.49101 67.6771 4.25231C69.5963 6.99641 68.9812 10.877 66.355 12.9512C65.2088 13.8571 63.925 14.2698 62.4986 14.2689C61.4594 14.2694 60.4241 14.2694 59.3907 14.2698H59.3898H59.3889H59.388C57.3395 14.2708 55.2958 14.2717 53.2332 14.2717C53.2332 14.6301 53.2315 14.9825 53.2302 15.3304V15.3309V15.3313ZM57.3699 9.35817V9.32412C57.7276 9.32412 58.0848 9.32181 58.4425 9.31951C59.2811 9.31399 60.1197 9.30848 60.957 9.33286C61.8488 9.35909 62.4278 8.53227 62.4163 7.89502C62.4001 7.06544 61.8307 6.4337 60.9873 6.42818C59.6045 6.42035 58.2199 6.42127 56.8366 6.42219C55.7556 6.42312 54.6755 6.42358 53.5962 6.42036C53.3142 6.42036 53.2183 6.52158 53.228 6.81283C53.2416 7.31343 53.2385 7.71971 53.2363 8.04869C53.231 8.74852 53.2284 9.09867 53.3943 9.26523C53.561 9.43179 53.8967 9.41384 54.5699 9.37749C55.1823 9.34436 56.0733 9.29605 57.3699 9.35817ZM112.608 8.47107H116.346C116.14 2.13581 109.109 0.75272 104.198 1.1024C100.117 1.16728 94.9453 2.62951 94.2435 7.49242C93.4115 12.6875 94.8533 16.9293 100.166 18.1877C105.875 19.5275 115.737 19.3739 116.342 11.4705C115.082 11.3666 113.777 11.3845 112.475 11.402C111.677 11.413 110.88 11.4236 110.093 11.4066C110.02 11.4181 109.951 11.4466 109.889 11.4899C109.829 11.5326 109.778 11.5892 109.74 11.6555C108.464 13.8737 105.281 13.5286 103.16 13.2328C101.327 12.913 100.222 11.6205 100.469 9.67104C100.554 7.80897 101.471 6.85102 103.263 6.58554C103.401 6.57358 103.541 6.56069 103.684 6.54781C105.822 6.35042 108.567 6.09691 109.772 8.25989C110.072 8.54745 110.908 8.5088 111.642 8.47475C112.021 8.4568 112.372 8.4407 112.608 8.47107ZM115.393 18.3897C116.888 15.3939 118.432 12.445 119.976 9.49573C121.268 7.02862 122.559 4.56151 123.823 2.06587C124.023 1.66512 124.237 1.47969 124.71 1.48706C126.928 1.5211 129.147 1.51235 131.365 1.49763C131.661 1.49763 131.771 1.65776 131.884 1.87355C132.961 3.96751 134.05 6.05319 135.139 8.13888C136.916 11.5442 138.694 14.949 140.419 18.3869C138.137 18.3869 135.938 18.3869 133.671 18.3952C133.412 18.3952 133.261 18.3432 133.152 18.0681C132.981 17.6438 132.794 17.227 132.607 16.8097C132.461 16.4844 132.315 16.1591 132.177 15.8301C132.076 15.5885 131.936 15.4974 131.686 15.4983C129.165 15.5089 126.644 15.5112 124.123 15.5066C123.859 15.5066 123.744 15.6235 123.646 15.8536C123.485 16.2318 123.316 16.6081 123.147 16.9854L123.147 16.9873C122.994 17.3268 122.842 17.6678 122.694 18.0105C122.578 18.2802 122.435 18.4067 122.113 18.4039C120.352 18.3869 118.592 18.3878 116.778 18.3892C116.32 18.3897 115.859 18.3897 115.393 18.3897ZM127.919 6.34674L125.67 11.3707H130.157L127.919 6.34674ZM46.0177 18.3957C43.1103 15.525 40.3016 12.7524 37.4536 9.94204L45.982 1.5234C40.8841 1.67477 39.4744 1.16589 38.3872 1.58091C37.3753 1.9674 36.6432 3.1545 33.4771 6.41944C33.1546 6.0739 32.8339 5.72927 32.5145 5.38557C31.3987 4.18606 30.2961 3.00127 29.1821 1.82891C29.0039 1.64901 28.7703 1.54043 28.5226 1.52248C26.5594 1.50362 24.6332 1.50546 22.6811 1.50684C22.114 1.5073 21.5446 1.50822 20.9718 1.50822L29.5253 9.94986L21.0541 18.2995C26.0715 18.2466 27.5076 18.7233 28.6115 18.2852C29.6454 17.8753 30.3881 16.6638 33.5044 13.467C33.841 13.8268 34.1754 14.1856 34.5084 14.5427C35.6449 15.7611 36.7664 16.9633 37.8949 18.1582C38.0207 18.2894 38.1884 18.3685 38.3661 18.3819C40.4775 18.3975 42.5111 18.3966 44.604 18.3957C45.0717 18.3957 45.5425 18.3957 46.0177 18.3957Z" fill="url(#paint0_radial_1346_4853)"/>
</g>
</mask>
<g mask="url(#mask1_1346_4853)">
<path id="Vector_7" d="M70.3248 11.8004L70.9834 11.7577L70.9825 11.7439L70.9812 11.7296L70.3248 11.8004ZM81.3223 18.772L81.3399 18.0823L81.3148 18.0814L81.2893 18.0828L81.3223 18.772ZM75.2833 1.95591L75.1042 1.29151L75.1007 1.29244L75.2833 1.95591ZM92.4893 8.53549L91.8306 8.58334L91.8324 8.60543L91.835 8.62752L92.4893 8.53549ZM86.162 9.56292L85.5025 9.58225L85.503 9.60847L85.5056 9.6347L86.162 9.56292ZM81.6294 13.438L81.6202 14.1281L81.6299 14.1286L81.6391 14.1281L81.6294 13.438ZM78.7019 6.75947L78.8347 7.43583L78.844 7.43353L78.8528 7.43123L78.7019 6.75947ZM76.6344 10.7026L77.29 10.6244L77.2891 10.6138L77.2878 10.6037L76.6344 10.7026ZM161.542 18.3823V19.0725H161.542L161.542 18.3823ZM162.848 18.3819V19.072H164.204L163.367 17.9558L162.848 18.3819ZM161.541 18.3823V17.6922H161.54L161.541 18.3823ZM156.368 18.3704L156.293 19.0559L156.328 19.0601L156.362 19.0605L156.368 18.3704ZM155.921 18.115L155.404 18.5438L155.406 18.547L155.408 18.5498L155.921 18.115ZM154.713 16.4894L154.189 16.909L154.189 16.91L154.713 16.4894ZM154.712 16.4881L154.162 16.8709L154.175 16.8897L154.188 16.9077L154.712 16.4881ZM154.712 16.4876L155.261 16.1048L155.248 16.0859L155.235 16.0675L154.712 16.4876ZM147.738 14.2505L147.762 13.5608L147.75 13.5604H147.738V14.2505ZM147.308 17.0466L146.648 17.0434V17.0466H147.308ZM147.308 17.0475L147.968 17.0508V17.0475H147.308ZM147.305 17.9632L146.645 17.9627V17.9632H147.305ZM147.005 18.3694L146.991 19.0596H146.997H147.003L147.005 18.3694ZM141.002 18.3391H140.342V18.9924L140.965 19.0279L141.002 18.3391ZM141.002 1.53216L140.992 0.842439L140.342 0.852113V1.53216H141.002ZM156.753 1.51098L156.756 0.820815H156.753V1.51098ZM162.645 6.1535L162.009 6.33709L162.01 6.34261L162.645 6.1535ZM159.313 13.6717L159.008 13.0598L158.303 13.444L158.794 14.0978L159.313 13.6717ZM147.314 8.87506L147.973 8.90082V8.89484L147.974 8.88886L147.314 8.87506ZM147.786 9.35404L147.781 8.66387H147.779L147.786 9.35404ZM155.088 9.30296L155.094 8.61279H155.088H155.081L155.088 9.30296ZM156.439 7.4616L155.806 7.65714L155.808 7.66359L155.81 7.67003L156.439 7.4616ZM155.08 6.41899L155.074 7.10916H155.082H155.089L155.08 6.41899ZM152.474 6.41392V7.10409H152.475L152.474 6.41392ZM152.474 6.41392V5.72376H152.473L152.474 6.41392ZM151.407 6.4153V5.72513H151.392L151.378 5.7256L151.407 6.4153ZM7.23371 14.043H6.57375V14.7148L7.21576 14.7327L7.23371 14.043ZM7.23512 13.5581L7.89508 13.5613V13.5581H7.23512ZM7.23512 13.5581L6.57516 13.5549V13.5581H7.23512ZM7.22504 12.2642L7.88461 12.2408L7.88456 12.2399L7.22504 12.2642ZM7.60826 11.8851L7.56383 12.5739L7.586 12.5753H7.60826V11.8851ZM11.5824 11.8819V11.1917H11.5817L11.5824 11.8819ZM11.5836 11.8819V12.572H11.5843L11.5836 11.8819ZM19.5357 11.8851L19.5335 12.5753H19.5343L19.5357 11.8851ZM20.0121 11.3762L20.6721 11.3583V11.3578L20.0121 11.3762ZM19.5409 8.00085L19.5387 8.69101H19.5409V8.00085ZM7.30983 7.97646L6.67838 8.17707L6.8175 8.65605L7.29588 8.66663L7.30983 7.97646ZM7.2433 7.13216L7.90304 7.15057L7.90326 7.14136V7.13216H7.2433ZM7.2433 7.13216L6.58356 7.1133L6.58335 7.1225V7.13216H7.2433ZM7.2415 6.67159L6.58158 6.66469L6.58132 6.69046L6.58295 6.71669L7.2415 6.67159ZM7.95883 5.80474L7.95764 6.4949H7.95883V5.80474ZM7.95936 5.80474L7.96055 5.11457H7.95936V5.80474ZM8.09619 5.8052V6.49536H8.09843L8.09619 5.8052ZM20.0095 5.31702L20.6695 5.30322V5.29816L20.669 5.29264L20.0095 5.31702ZM19.9602 1.54228L20.6189 1.49534L20.5771 0.852113H19.9602V1.54228ZM0.903254 1.54228V0.852113H0.243164L0.243295 1.54228H0.903254ZM1.74232 18.3851L1.73691 17.6949H1.73582L1.74232 18.3851ZM14.0344 18.3676L14.033 19.0578H14.0344V18.3676ZM14.0344 18.3676L14.0362 17.6774H14.0348L14.0344 18.3676ZM19.5902 18.3759L19.592 17.6857H19.5902V18.3759ZM20.0095 17.9434H20.6695V17.9392V17.9346L20.0095 17.9434ZM19.5418 14.0771L19.5387 14.7672H19.5418V14.0771ZM53.2301 15.3318L53.89 15.3346V15.3318H53.2301ZM53.2415 17.8228L52.582 17.8399V17.8403L53.2415 17.8228ZM47.2579 18.3998V19.09H47.2627L47.2579 18.3998ZM46.8808 18.028L46.2209 18.023V18.0257L46.8808 18.028ZM46.8861 11.2437H46.2262V11.2451L46.8861 11.2437ZM46.8861 11.2432H47.5461V11.2414L46.8861 11.2432ZM46.9248 1.54917L46.9103 0.859471L46.2763 0.874187L46.2653 1.53721L46.9248 1.54917ZM62.6415 1.51605L62.6433 0.825884H62.6385L62.6415 1.51605ZM67.677 4.25186L67.1438 4.6586L67.1442 4.65953L67.677 4.25186ZM66.3549 12.9507L65.9572 12.4V12.4004L66.3549 12.9507ZM62.4985 14.2685L62.499 13.5783H62.4985V14.2685ZM53.2332 14.2712V13.5811H52.5732V14.2712H53.2332ZM53.2301 15.3299L52.5701 15.3267V15.3299H53.2301ZM57.3698 9.32367V8.6335H56.7098V9.32367H57.3698ZM57.3698 9.35772L57.3394 10.047L58.0297 10.0801V9.35772H57.3698ZM58.4424 9.31906L58.4464 10.0092H58.4486L58.4424 9.31906ZM58.4429 9.31906V8.62889H58.4394H58.4363L58.4429 9.31906ZM58.4429 9.31906V10.0092H58.4468L58.4429 9.31906ZM62.4163 7.89457L63.0762 7.88168V7.8803L62.4163 7.89457ZM53.5961 6.41991L53.5983 5.72974H53.5961V6.41991ZM53.2279 6.81238L53.8874 6.79259V6.78892L53.2279 6.81238ZM116.345 8.47062V9.16079H117.028L117.005 8.44762L116.345 8.47062ZM112.608 8.47062L112.527 9.15573L112.567 9.16079H112.608V8.47062ZM104.198 1.10195L104.208 1.79212L104.225 1.79166L104.243 1.79073L104.198 1.10195ZM94.2434 7.49197L94.8946 7.60607L94.8955 7.60055L94.8959 7.59504L94.2434 7.49197ZM100.165 18.1872L100.02 18.8604L100.021 18.8608L100.165 18.1872ZM116.342 11.4701L117 11.5253L117.053 10.836L116.394 10.7818L116.342 11.4701ZM110.093 11.4061L110.107 10.716L110.05 10.715L109.994 10.7238L110.093 11.4061ZM109.74 11.655L110.306 12.0107L110.309 12.0061L109.74 11.655ZM103.16 13.2323L103.051 13.9133L103.062 13.9151L103.072 13.9165L103.16 13.2323ZM100.469 9.67059L101.123 9.76123L101.126 9.73271L101.128 9.70371L100.469 9.67059ZM103.263 6.58509L103.209 5.89768L103.19 5.89907L103.171 5.90182L103.263 6.58509ZM109.772 8.25944L109.202 8.60681L109.252 8.69792L109.326 8.76878L109.772 8.25944ZM115.392 18.3892L114.807 18.0699L114.303 19.0794H115.392V18.3892ZM123.823 2.06542L124.406 2.38842L124.408 2.38428L123.823 2.06542ZM131.365 1.49718V0.807012H131.36L131.365 1.49718ZM131.884 1.8731L132.465 1.54596L132.462 1.54089L131.884 1.8731ZM140.419 18.3865V19.0766H141.51L141.003 18.0658L140.419 18.3865ZM133.671 18.3947V19.0849H133.673L133.671 18.3947ZM133.152 18.0676L133.762 17.8035L133.76 17.7994L133.152 18.0676ZM132.177 15.8296L131.572 16.1066L131.573 16.1075L132.177 15.8296ZM131.686 15.4979L131.683 14.8077H131.683L131.686 15.4979ZM124.123 15.5062L124.125 14.816H124.123V15.5062ZM123.646 15.8531L124.248 16.1347L124.249 16.1333L123.646 15.8531ZM123.147 16.985L122.55 16.6928L122.548 16.6951L123.147 16.985ZM123.147 16.9868L123.744 17.279L123.745 17.2767L123.147 16.9868ZM122.694 18.0101L123.295 18.2949L123.296 18.2935L122.694 18.0101ZM122.113 18.4035L122.107 19.0937H122.108L122.113 18.4035ZM125.67 11.3702L125.072 11.0776L124.632 12.0604H125.67V11.3702ZM127.919 6.34629L128.517 6.05457L127.921 4.7152L127.321 6.05366L127.919 6.34629ZM130.157 11.3702V12.0604H131.193L130.755 11.0785L130.157 11.3702ZM37.4535 9.94159L37.0004 9.43962L36.4922 9.94159L37.0004 10.4436L37.4535 9.94159ZM46.0176 18.3952V19.0854H47.6781L46.4708 17.8932L46.0176 18.3952ZM45.982 1.52294L46.4351 2.02493L47.6943 0.78171L45.9635 0.832778L45.982 1.52294ZM33.4771 6.41899L33.0041 6.90073L33.4674 7.3981L33.9404 6.91085L33.4771 6.41899ZM29.1821 1.82846L29.6497 1.34167L29.6449 1.3366L29.6401 1.33155L29.1821 1.82846ZM28.5225 1.52203L28.5692 0.833242L28.5489 0.831866H28.5287L28.5225 1.52203ZM20.9717 1.50777V0.8176H19.3108L20.5186 2.00928L20.9717 1.50777ZM29.5252 9.94941L29.978 10.4519L30.487 9.94987L29.9784 9.44744L29.5252 9.94941ZM21.054 18.299L20.6013 17.7966L19.3733 19.0067L21.0606 18.9888L21.054 18.299ZM33.5043 13.4665L33.9769 12.9843L33.5145 12.4892L33.0424 12.9737L33.5043 13.4665ZM37.8948 18.1578L37.4254 18.6427L37.4276 18.6451L37.4298 18.6478L37.8948 18.1578ZM38.366 18.3814L38.319 19.0697L38.3401 19.0716H38.3616L38.366 18.3814ZM69.6661 11.8437C69.8509 14.9504 71.7265 16.9334 74.0333 18.08C76.3216 19.2179 79.1035 19.5786 81.3549 19.4617L81.2893 18.0828C79.1911 18.1923 76.6401 17.8477 74.6 16.8336C72.5779 15.8282 71.1295 14.2123 70.9834 11.7577L69.6661 11.8437ZM75.1007 1.29244C72.6593 2.02678 71.1546 3.53455 70.3446 5.47208C69.55 7.37326 69.4466 9.6324 69.6683 11.8718L70.9812 11.7296C70.7705 9.59927 70.8897 7.61435 71.5541 6.02513C72.2035 4.4718 73.394 3.24193 75.4654 2.61894L75.1007 1.29244ZM93.1475 8.48765C92.997 6.22391 92.1479 4.49159 90.8411 3.22398C89.5485 1.97018 87.8454 1.20547 86.0243 0.78171C82.3923 -0.0635139 78.1158 0.40488 75.1042 1.29151L75.4619 2.62031C78.3261 1.77693 82.3743 1.34627 85.7375 2.12892C87.4142 2.51955 88.8762 3.20051 89.9436 4.23622C90.9969 5.25767 91.703 6.6587 91.8306 8.58334L93.1475 8.48765ZM81.3043 19.4622C84.6916 19.5584 87.9056 18.9243 90.1614 17.175C92.4712 15.3833 93.6662 12.5109 93.1431 8.44348L91.835 8.62752C92.3049 12.2822 91.2371 14.6223 89.3752 16.0661C87.46 17.5514 84.5935 18.1748 81.3399 18.0823L81.3043 19.4622ZM85.5056 9.6347C85.576 10.3359 85.4911 10.8443 85.3309 11.2179C85.1725 11.5865 84.9213 11.869 84.5839 12.0903C83.8781 12.5523 82.8209 12.7289 81.6193 12.7483L81.6391 14.1281C82.8886 14.1084 84.2565 13.9331 85.2843 13.2599C85.8136 12.9134 86.2562 12.4326 86.5347 11.7834C86.8114 11.1388 86.9073 10.375 86.8185 9.49069L85.5056 9.6347ZM78.8528 7.43123C80.0724 7.1317 81.8085 6.91959 83.216 7.2044C83.9155 7.34612 84.4778 7.59964 84.8628 7.96956C85.2297 8.32109 85.4818 8.82169 85.5025 9.58225L86.822 9.5436C86.7921 8.43565 86.4027 7.57341 85.7555 6.95226C85.1268 6.34905 84.304 6.01915 83.4668 5.84937C81.8001 5.51165 79.8563 5.76656 78.5509 6.08771L78.8528 7.43123ZM77.2878 10.6037C77.1782 9.81369 77.2376 9.07337 77.4822 8.51526C77.7119 7.99073 78.1189 7.58905 78.8347 7.43583L78.5694 6.08357C77.4295 6.32835 76.6824 7.02772 76.2824 7.94012C75.897 8.81893 75.85 9.85095 75.9811 10.8011L77.2878 10.6037ZM81.6382 12.7483C80.5594 12.7326 79.4903 12.6825 78.6631 12.3673C78.2615 12.2141 77.9499 12.0098 77.7278 11.7457C77.5104 11.488 77.3459 11.136 77.29 10.6244L75.9789 10.7804C76.062 11.5446 76.3247 12.1685 76.7374 12.6581C77.1444 13.1417 77.6648 13.4559 78.2108 13.6639C79.2791 14.0711 80.5682 14.1134 81.6202 14.1281L81.6382 12.7483ZM161.542 19.0725C161.973 19.0725 162.408 19.072 162.848 19.072V17.6917C162.408 17.6917 161.972 17.6922 161.542 17.6922L161.542 19.0725ZM161.541 19.0725H161.542V17.6922H161.541V19.0725ZM156.362 19.0605C158.067 19.0743 159.771 19.0734 161.541 19.0725L161.54 17.6922C159.769 17.6931 158.071 17.694 156.372 17.6802L156.362 19.0605ZM155.408 18.5498C155.628 18.8337 155.947 19.015 156.293 19.0559L156.442 17.6848C156.438 17.6843 156.435 17.682 156.434 17.6802L155.408 18.5498ZM154.189 16.91C154.52 17.36 154.916 17.9001 155.404 18.5438L156.438 17.6866C155.958 17.0521 155.566 16.5193 155.236 16.0694L154.189 16.91ZM154.188 16.9077L154.189 16.909L155.237 16.0698L155.236 16.0684L154.188 16.9077ZM154.162 16.8709L155.261 16.1052V16.1048L154.162 16.8709ZM152.516 14.9931C152.662 15.0543 152.826 15.1717 153.092 15.4749C153.364 15.7864 153.693 16.2332 154.188 16.9081L155.235 16.0675C154.755 15.4137 154.386 14.9089 154.065 14.5432C153.738 14.1691 153.415 13.8834 153.008 13.7127L152.516 14.9931ZM151.001 14.9237C151.932 14.8846 152.258 14.885 152.516 14.9931L153.008 13.7127C152.426 13.4679 151.762 13.5102 150.948 13.5447L151.001 14.9237ZM147.713 14.9402C149.215 14.9991 150.252 14.9554 151.001 14.9237L150.948 13.5447C150.209 13.5756 149.213 13.6179 147.762 13.5608L147.713 14.9402ZM147.959 14.6844C147.958 14.6255 147.963 14.6232 147.956 14.6508C147.947 14.6881 147.918 14.7691 147.841 14.8441C147.767 14.9163 147.696 14.9375 147.677 14.9421C147.663 14.9458 147.675 14.9407 147.738 14.9407V13.5604C147.567 13.5604 147.212 13.5691 146.939 13.8369C146.648 14.1217 146.635 14.5077 146.639 14.7157L147.959 14.6844ZM147.968 17.0503C147.972 16.2695 147.976 15.4776 147.959 14.6844L146.639 14.7152C146.656 15.4864 146.652 16.2594 146.648 17.0434L147.968 17.0503ZM147.968 17.0475V17.0466H146.648V17.0471L147.968 17.0475ZM147.965 17.9636C147.965 17.6604 147.967 17.3563 147.968 17.0508L146.648 17.0434C146.647 17.3485 146.646 17.6558 146.645 17.9627L147.965 17.9636ZM147.965 17.9963C147.965 17.9834 147.965 17.9733 147.965 17.9632H146.645C146.645 17.9779 146.645 17.9922 146.645 18.0041L147.965 17.9963ZM147.003 19.0596C147.261 19.0605 147.631 18.9823 147.84 18.6055C147.924 18.4541 147.948 18.3069 147.958 18.2148C147.967 18.1251 147.965 18.0363 147.965 17.9958L146.645 18.0041C146.646 18.063 146.645 18.0704 146.645 18.0685C146.646 18.0644 146.652 17.9972 146.698 17.9139C146.752 17.815 146.835 17.7437 146.919 17.706C146.988 17.6751 147.029 17.6793 147.007 17.6793L147.003 19.0596ZM144.504 19.0633C145.343 19.0522 146.17 19.0412 146.991 19.0596L147.019 17.6793C146.172 17.6604 145.323 17.6719 144.487 17.6834L144.504 19.0633ZM140.965 19.0279C142.148 19.0955 143.339 19.0794 144.504 19.0633L144.487 17.6834C143.314 17.6991 142.168 17.7143 141.037 17.6498L140.965 19.0279ZM140.342 1.53216V18.3391H141.661V1.53216H140.342ZM152.265 0.810242C148.511 0.798279 144.75 0.786305 140.992 0.842439L141.011 2.22232C144.755 2.16665 148.505 2.17861 152.261 2.19057L152.265 0.810242ZM156.753 0.820815C155.258 0.819895 153.762 0.815303 152.265 0.810242L152.261 2.19057C153.758 2.19564 155.255 2.20023 156.752 2.20115L156.753 0.820815ZM163.281 5.97038C162.499 3.00129 159.794 0.835539 156.756 0.820815L156.749 2.20115C159.207 2.21311 161.386 3.97488 162.009 6.33709L163.281 5.97038ZM159.618 14.2837C162.536 12.6935 164.202 9.35312 163.28 5.96486L162.01 6.34261C162.738 9.01539 161.45 11.7291 159.008 13.0598L159.618 14.2837ZM163.367 17.9558L159.832 13.2456L158.794 14.0978L162.328 18.8079L163.367 17.9558ZM147.896 6.99183C147.793 7.09903 147.699 7.07326 147.849 7.06406C147.987 7.05532 148.19 7.06544 148.538 7.08431L148.606 5.70581C148.291 5.68879 148.001 5.67222 147.772 5.68603C147.555 5.69937 147.222 5.74493 146.964 6.01363L147.896 6.99183ZM147.965 7.57984C147.957 7.25132 147.953 7.06268 147.964 6.93385C147.975 6.79628 147.994 6.88922 147.896 6.99183L146.964 6.01363C146.718 6.26991 146.667 6.59935 146.649 6.81468C146.63 7.03922 146.638 7.3208 146.646 7.61527L147.965 7.57984ZM147.974 8.88886C147.984 8.34501 147.973 7.91296 147.965 7.57984L146.646 7.61527C146.654 7.94655 146.664 8.35145 146.654 8.86125L147.974 8.88886ZM147.779 8.66387C147.719 8.66479 147.703 8.65973 147.713 8.66203C147.727 8.66525 147.789 8.68319 147.856 8.74576C147.928 8.81248 147.958 8.88702 147.969 8.92705C147.977 8.95788 147.971 8.95742 147.973 8.90082L146.654 8.84929C146.646 9.09867 146.673 9.49115 146.977 9.77549C147.255 10.035 147.607 10.046 147.793 10.0442L147.779 8.66387ZM151.028 8.64225C149.946 8.64823 148.863 8.65421 147.781 8.66387L147.792 10.0442C148.872 10.0345 149.953 10.0286 151.035 10.0226L151.028 8.64225ZM155.081 8.61279C153.731 8.62705 152.38 8.63489 151.028 8.64225L151.035 10.0226C152.387 10.0152 153.741 10.0074 155.095 9.99312L155.081 8.61279ZM155.81 7.67003C155.937 8.08827 155.587 8.61785 155.094 8.61279L155.082 9.99312C156.407 10.006 157.486 8.63028 157.068 7.25271L155.81 7.67003ZM155.538 7.25915C155.668 7.35853 155.761 7.4984 155.806 7.65714L157.072 7.26559C156.945 6.81653 156.68 6.42313 156.319 6.14614L155.538 7.25915ZM155.089 7.10916C155.251 7.10686 155.409 7.15977 155.538 7.25915L156.319 6.14614C155.958 5.86869 155.519 5.72239 155.071 5.72883L155.089 7.10916ZM152.475 7.10409C153.345 7.10225 154.21 7.10088 155.074 7.10916L155.086 5.72883C154.213 5.72054 153.341 5.72192 152.473 5.72376L152.475 7.10409ZM151.407 7.10547C151.763 7.10547 152.12 7.10455 152.475 7.10409L152.473 5.72376C152.117 5.72422 151.762 5.72513 151.407 5.72513V7.10547ZM148.538 7.08431C149.157 7.11789 150.083 7.16805 151.436 7.10455L151.378 5.7256C150.087 5.78587 149.212 5.73848 148.606 5.70581L148.538 7.08431ZM7.21576 14.7327C9.87544 14.8087 12.5272 14.793 15.1684 14.7778L15.1611 13.3975C12.5163 13.4127 9.88613 13.4279 7.25162 13.3533L7.21576 14.7327ZM6.57516 13.5549C6.57441 13.7136 6.57375 13.8769 6.57375 14.043H7.89367C7.89367 13.8806 7.89438 13.7205 7.89508 13.5613L6.57516 13.5549ZM6.56548 12.2882C6.57894 12.6977 6.57714 13.1095 6.57516 13.5549L7.89508 13.5613C7.89706 13.121 7.89913 12.6816 7.88461 12.2408L6.56548 12.2882ZM7.65274 11.1963C7.47812 11.1844 7.14686 11.1848 6.87593 11.4347C6.58863 11.7001 6.55791 12.0641 6.56548 12.2886L7.88456 12.2399C7.88179 12.1575 7.90903 12.3227 7.7491 12.4699C7.67536 12.538 7.60241 12.5615 7.56787 12.5693C7.53795 12.5757 7.53118 12.5716 7.56383 12.5739L7.65274 11.1963ZM11.5817 11.1917C10.2567 11.1936 8.93231 11.1949 7.60826 11.1949V12.5753C8.9332 12.5753 10.2588 12.5739 11.5836 12.572L11.5817 11.1917ZM11.583 11.1917L11.5824 12.572H11.583V11.1917ZM11.5836 11.1917L11.583 12.572H11.5836V11.1917ZM19.5379 11.1949C16.8861 11.1853 14.2336 11.1885 11.583 11.1917L11.5843 12.572C14.2354 12.5688 16.8853 12.5656 19.5335 12.5753L19.5379 11.1949ZM19.3526 11.3946C19.3544 11.4682 19.3495 11.4857 19.3517 11.4747C19.3557 11.4567 19.3742 11.3822 19.4424 11.3049C19.5123 11.2262 19.5854 11.1995 19.6087 11.1926C19.6241 11.1885 19.6091 11.1949 19.537 11.1949L19.5343 12.5753C19.7504 12.5757 20.1349 12.5546 20.4112 12.2426C20.6787 11.9403 20.6769 11.5478 20.6721 11.3583L19.3526 11.3946ZM19.3473 8.4536C19.3258 9.43364 19.3275 10.4146 19.3526 11.3951L20.6721 11.3578C20.6475 10.4008 20.6457 9.44329 20.6668 8.4858L19.3473 8.4536ZM19.5409 8.69101C19.6096 8.69101 19.628 8.69607 19.6201 8.69423C19.6074 8.69101 19.5387 8.67262 19.4657 8.60268C19.3887 8.52952 19.3588 8.449 19.3495 8.41219C19.3429 8.38551 19.3487 8.38965 19.3473 8.4536L20.6668 8.48626C20.6717 8.26817 20.6571 7.87109 20.3553 7.58352C20.0773 7.31758 19.7165 7.31068 19.5409 7.31068V8.69101ZM15.2151 8.69976C16.6591 8.69286 18.1 8.68595 19.5387 8.69101L19.5431 7.31068C18.0983 7.30562 16.6525 7.31253 15.2091 7.31943L15.2151 8.69976ZM7.29588 8.66663C9.93545 8.7246 12.5808 8.71219 15.2151 8.69976L15.2091 7.31943C12.572 7.33185 9.94355 7.34427 7.32373 7.28629L7.29588 8.66663ZM6.58356 7.1133C6.5767 7.38017 6.56117 7.77401 6.67838 8.17707L7.94128 7.77585C7.89631 7.62125 7.89525 7.45194 7.90304 7.15057L6.58356 7.1133ZM6.58295 6.71669C6.5903 6.83401 6.58766 6.95594 6.58356 7.1133L7.90304 7.15057C7.90683 7.00287 7.91206 6.8179 7.90005 6.6265L6.58295 6.71669ZM6.5727 6.3035C6.57767 6.40979 6.5829 6.52436 6.58158 6.66469L7.90141 6.67849C7.90317 6.49399 7.89609 6.34445 7.89108 6.23633L6.5727 6.3035ZM6.75423 5.46379C6.60196 5.66164 6.5763 5.87835 6.56918 5.98924C6.56214 6.09875 6.56891 6.22206 6.5727 6.3035L7.89108 6.23633C7.8887 6.18572 7.88711 6.15028 7.88637 6.12084C7.88562 6.09093 7.88619 6.08081 7.88615 6.08127C7.8861 6.08265 7.88562 6.08955 7.8839 6.10059C7.88223 6.11209 7.87893 6.12957 7.87264 6.15166C7.85949 6.19813 7.83326 6.26347 7.78249 6.32927L6.75423 5.46379ZM7.95998 5.11457C7.75803 5.11457 7.56163 5.11319 7.41076 5.12884C7.28699 5.14172 6.97237 5.18037 6.75423 5.46379L7.78249 6.32927C7.70774 6.42635 7.62146 6.4719 7.57187 6.49122C7.53109 6.50687 7.51191 6.50549 7.54209 6.50227C7.56884 6.49951 7.61301 6.49721 7.68684 6.49583C7.75952 6.49491 7.84651 6.4949 7.95764 6.4949L7.95998 5.11457ZM7.95936 5.11457H7.95883V6.4949L7.95936 5.11457ZM7.95936 5.11457L7.95883 6.4949H7.95936V5.11457ZM8.09619 5.11503C8.04867 5.11503 8.00371 5.11503 7.96055 5.11457L7.95822 6.4949C8.0012 6.49536 8.04735 6.49536 8.09619 6.49536V5.11503ZM19.5502 5.10767C15.7317 5.09893 11.9129 5.10123 8.0939 5.11503L8.09843 6.49536C11.915 6.48156 15.7312 6.47926 19.5471 6.48801L19.5502 5.10767ZM19.35 5.33082C19.3509 5.39432 19.346 5.40398 19.3504 5.38512C19.3566 5.35889 19.3795 5.28436 19.4485 5.21074C19.5172 5.13758 19.5871 5.11274 19.61 5.1063C19.6263 5.10216 19.6144 5.10813 19.5502 5.10767L19.5471 6.48801C19.7512 6.48847 20.1169 6.46868 20.3901 6.17789C20.6642 5.88618 20.6734 5.50428 20.6695 5.30322L19.35 5.33082ZM19.3381 3.69237C19.335 4.23023 19.3315 4.78513 19.35 5.34141L20.669 5.29264C20.6514 4.77042 20.6549 4.24404 20.658 3.70111L19.3381 3.69237ZM19.302 1.58921C19.3465 2.27431 19.3425 2.96815 19.3381 3.69237L20.658 3.70111C20.6624 2.98564 20.6673 2.24026 20.6189 1.49534L19.302 1.58921ZM0.903254 2.23245H19.9602V0.852113H0.903254V2.23245ZM1.5666 8.93073C1.5651 6.47006 1.56361 4.00847 1.56321 1.54228H0.243295C0.243691 4.00939 0.245186 6.47098 0.246682 8.93166L1.5666 8.93073ZM1.57008 17.55C1.57008 14.6734 1.56836 11.8023 1.5666 8.93073L0.246682 8.93166C0.248442 11.8032 0.250203 14.6738 0.250203 17.55H1.57008ZM1.73326 17.6949C1.62793 17.6958 1.54429 17.6968 1.47297 17.6963C1.40108 17.6954 1.35541 17.6931 1.3255 17.6899C1.29421 17.6866 1.30059 17.6848 1.32607 17.6935C1.35665 17.7046 1.41402 17.7313 1.4717 17.7892C1.52995 17.8477 1.55947 17.9084 1.57267 17.9457C1.58367 17.9761 1.58226 17.9871 1.57901 17.9581C1.57593 17.9305 1.5732 17.8859 1.57166 17.8136C1.57017 17.7419 1.57008 17.6572 1.57008 17.55H0.250203C0.250203 17.7442 0.249278 17.9498 0.267933 18.1173C0.286148 18.2816 0.335866 18.5627 0.557964 18.7854C0.776015 19.0039 1.04334 19.0481 1.19698 19.0638C1.35761 19.0803 1.55556 19.0771 1.74664 19.0753L1.73326 17.6949ZM1.73582 17.6949H1.73326L1.74664 19.0753L1.74884 19.0748L1.73582 17.6949ZM14.0362 17.6774C9.93941 17.6687 5.83799 17.6595 1.73691 17.6949L1.74778 19.0753C5.84089 19.0398 9.93506 19.049 14.033 19.0578L14.0362 17.6774ZM19.5902 17.6857C17.7392 17.6857 15.8883 17.6816 14.0362 17.6774L14.033 19.0578C15.8848 19.0619 17.7375 19.0661 19.5902 19.0661V17.6857ZM19.3495 17.9434C19.3495 17.9986 19.3456 18.0027 19.3504 17.9811C19.357 17.9526 19.3808 17.8771 19.4494 17.8021C19.5194 17.7253 19.5929 17.6963 19.6245 17.6876C19.6492 17.6807 19.6461 17.6857 19.592 17.6857L19.5885 19.0661C19.7864 19.0665 20.1397 19.044 20.4033 18.7564C20.6598 18.4757 20.6695 18.115 20.6695 17.9434H19.3495ZM19.35 14.5321C19.3289 15.6755 19.3359 16.8179 19.35 17.9526L20.6695 17.9346C20.6558 16.8046 20.6488 15.6801 20.6695 14.5588L19.35 14.5321ZM19.5418 14.7672C19.6109 14.7672 19.6294 14.7723 19.6219 14.7705C19.6091 14.7677 19.5405 14.7493 19.4679 14.6798C19.3909 14.6067 19.361 14.5266 19.3517 14.4903C19.3451 14.464 19.3509 14.4686 19.35 14.5321L20.6695 14.5588C20.6734 14.3416 20.6576 13.9459 20.3562 13.6588C20.0777 13.3943 19.7178 13.3869 19.5418 13.3869V14.7672ZM15.1684 14.7778C16.627 14.7691 18.082 14.7608 19.5387 14.7672L19.5445 13.3869C18.0802 13.3805 16.6186 13.3887 15.1611 13.3975L15.1684 14.7778ZM53.89 15.3318V15.3309H52.5701V15.3318H53.89ZM53.9015 17.8063C53.8826 16.996 53.8861 16.1844 53.89 15.3346L52.5701 15.3286C52.5662 16.1747 52.5626 17.0061 52.582 17.8399L53.9015 17.8063ZM52.6924 19.09C52.9366 19.0941 53.3493 19.0743 53.6384 18.7394C53.9116 18.4233 53.9063 18.0087 53.9015 17.8058L52.582 17.8403C52.5829 17.8827 52.5824 17.9135 52.5811 17.9356C52.5802 17.9586 52.5785 17.9664 52.5789 17.9641C52.5798 17.9595 52.5939 17.8896 52.659 17.8146C52.6902 17.7777 52.7245 17.7511 52.7562 17.7327C52.7866 17.7152 52.809 17.7083 52.8165 17.706C52.8231 17.7041 52.8196 17.706 52.8007 17.7073C52.7822 17.7092 52.7536 17.7106 52.7127 17.7101L52.6924 19.09ZM47.5606 19.0881C49.2747 19.0748 50.984 19.0624 52.6924 19.09L52.7131 17.7101C50.9871 17.6816 49.2624 17.6949 47.5509 17.7078L47.5606 19.0881ZM47.2627 19.09L47.5606 19.0881L47.5509 17.7078L47.2535 17.7097L47.2627 19.09ZM46.2209 18.0257C46.2204 18.2093 46.2398 18.5696 46.5196 18.8355C46.7801 19.0826 47.1083 19.09 47.2579 19.09V17.7097C47.2104 17.7097 47.2082 17.706 47.2297 17.711C47.2561 17.7175 47.3309 17.7409 47.407 17.8136C47.4867 17.8891 47.5214 17.9733 47.5346 18.0211C47.5448 18.0593 47.5408 18.0713 47.5408 18.0299L46.2209 18.0257ZM46.2262 11.2451C46.2314 13.5075 46.2367 15.7661 46.2209 18.023L47.5408 18.0331C47.5566 15.7684 47.5514 13.5033 47.5461 11.2419L46.2262 11.2451ZM46.2262 11.2432V11.2437H47.5461V11.2432H46.2262ZM46.2653 1.53721C46.2116 4.77363 46.2191 8.01327 46.2262 11.2451L47.5461 11.2414C47.539 8.00729 47.5316 4.78145 47.5848 1.56114L46.2653 1.53721ZM56.8528 0.815297C53.5433 0.798273 50.2229 0.781252 46.9103 0.859471L46.9398 2.23934C50.2317 2.16204 53.5341 2.1786 56.8466 2.19563L56.8528 0.815297ZM62.6385 0.825884C60.7127 0.835086 58.7847 0.824959 56.8528 0.815297L56.8466 2.19563C58.7772 2.20529 60.7118 2.21542 62.6442 2.20622L62.6385 0.825884ZM68.2098 3.84512C66.8648 1.91726 64.991 0.833706 62.6433 0.825884L62.6393 2.20622C64.5409 2.21266 66.0306 3.0634 67.1438 4.6586L68.2098 3.84512ZM66.7526 13.5015C69.6534 11.2106 70.3516 6.90671 68.2094 3.84421L67.1442 4.65953C68.8412 7.08523 68.3093 10.5425 65.9572 12.4L66.7526 13.5015ZM62.4981 14.9586C64.0574 14.9596 65.4833 14.505 66.7531 13.5015L65.9572 12.4004C64.9342 13.2088 63.7929 13.5792 62.499 13.5783L62.4981 14.9586ZM59.3906 14.9596C60.4245 14.9591 61.4593 14.9591 62.499 14.9586L62.4985 13.5783C61.4589 13.5788 60.4241 13.5788 59.3901 13.5792L59.3906 14.9596ZM59.3897 14.9596H59.3906V13.5792H59.3901L59.3897 14.9596ZM59.3888 14.9596H59.3897L59.3901 13.5792H59.3888V14.9596ZM59.3879 14.9596H59.3888V13.5792H59.3879V14.9596ZM53.2332 14.9614C55.2962 14.9614 57.3399 14.9605 59.3884 14.9596L59.3879 13.5792C57.3394 13.5801 55.2957 13.5811 53.2332 13.5811V14.9614ZM53.89 15.3332C53.8914 14.9853 53.8931 14.6315 53.8931 14.2712H52.5732C52.5732 14.6278 52.5714 14.9784 52.5701 15.3267L53.89 15.3332ZM53.89 15.3304V15.3299H52.5701V15.3304H53.89ZM53.89 15.3309V15.3304H52.5701V15.3309H53.89ZM56.7098 9.32367V9.35772H58.0297V9.32367H56.7098ZM58.4385 8.62889C58.0803 8.6312 57.7248 8.6335 57.3698 8.6335V10.0138C57.7297 10.0138 58.0891 10.0115 58.4464 10.0092L58.4385 8.62889ZM58.4363 8.62889L58.4486 10.0092H58.449L58.4363 8.62889ZM60.9754 8.6427C60.1249 8.61785 59.2753 8.62337 58.4385 8.62889L58.4468 10.0092C59.2872 10.0037 60.1143 9.99819 60.9384 10.0226L60.9754 8.6427ZM61.7567 7.90744C61.7585 8.01925 61.7 8.21664 61.5447 8.38918C61.4012 8.54838 61.2085 8.6496 60.9754 8.6427L60.9384 10.0226C61.597 10.0414 62.14 9.74236 62.506 9.33517C62.8602 8.94131 63.0855 8.40712 63.0762 7.88168L61.7567 7.90744ZM60.9833 7.11789C61.4576 7.12111 61.7475 7.44089 61.7567 7.90882L63.0762 7.8803C63.0525 6.68908 62.2038 5.74538 60.9912 5.73756L60.9833 7.11789ZM56.837 7.11191C58.2207 7.11099 59.6031 7.11007 60.9837 7.11789L60.9912 5.73756C59.6053 5.72974 58.2194 5.73066 56.8361 5.73158L56.837 7.11191ZM53.5944 7.11007C54.6749 7.11329 55.7564 7.11283 56.837 7.11191L56.8361 5.73158C55.7551 5.7325 54.6758 5.73296 53.5983 5.72974L53.5944 7.11007ZM53.8874 6.78892C53.8861 6.75165 53.8905 6.76086 53.8821 6.79582C53.872 6.83769 53.8438 6.9159 53.7734 6.99044C53.7035 7.06498 53.6309 7.09489 53.5948 7.10502C53.5645 7.11376 53.5583 7.11007 53.5961 7.11007V5.72974C53.4166 5.72974 53.0858 5.75321 52.8319 6.02329C52.575 6.2966 52.5622 6.64582 52.5684 6.83584L53.8874 6.78892ZM53.8962 8.05331C53.8984 7.72387 53.9015 7.307 53.8874 6.79259L52.5679 6.83216C52.5816 7.31896 52.5785 7.71466 52.5763 8.04272L53.8962 8.05331ZM53.8509 8.76647C53.9446 8.85988 53.923 8.94269 53.9076 8.78533C53.8927 8.63671 53.8931 8.42048 53.8962 8.05331L52.5763 8.04272C52.5736 8.37584 52.5706 8.68458 52.5948 8.92798C52.6181 9.16218 52.6784 9.5031 52.9379 9.76307L53.8509 8.76647ZM54.5355 8.6878C54.1826 8.70666 53.9745 8.71677 53.8315 8.70803C53.6788 8.69837 53.7572 8.67261 53.8509 8.76647L52.9379 9.76307C53.198 10.0239 53.5275 10.0718 53.7528 10.0861C53.9873 10.1003 54.2838 10.0833 54.6037 10.0663L54.5355 8.6878ZM57.4001 8.66846C56.0714 8.60451 55.1545 8.65421 54.5355 8.6878L54.6037 10.0663C55.2095 10.0332 56.0754 9.98622 57.3394 10.047L57.4001 8.66846ZM116.345 7.78045H112.608V9.16079H116.345V7.78045ZM104.243 1.79073C106.637 1.62003 109.507 1.87816 111.772 2.91202C114.008 3.93209 115.594 5.66486 115.686 8.49408L117.005 8.44762C116.891 4.94158 114.86 2.81494 112.3 1.64718C109.771 0.493226 106.67 0.234183 104.153 0.413627L104.243 1.79073ZM94.8959 7.59504C95.2066 5.44356 96.4935 4.02595 98.2468 3.11585C100.019 2.19609 102.225 1.82341 104.208 1.79212L104.188 0.411787C102.09 0.445375 99.6696 0.83601 97.6603 1.87954C95.6316 2.93228 93.9821 4.67792 93.591 7.38936L94.8959 7.59504ZM100.312 17.5141C97.8125 16.9219 96.3038 15.6562 95.4868 13.9998C94.6562 12.3139 94.4912 10.1224 94.8946 7.60607L93.5927 7.37832C93.1638 10.0562 93.3037 12.5835 94.3139 14.632C95.3381 16.7098 97.2067 18.1941 100.02 18.8604L100.312 17.5141ZM115.684 11.4149C115.546 13.2277 114.884 14.5602 113.905 15.5448C112.914 16.5414 111.562 17.2155 110.006 17.6259C106.885 18.4495 103.103 18.1693 100.31 17.5136L100.021 18.8608C102.937 19.545 106.942 19.8584 110.329 18.9644C112.028 18.5158 113.613 17.7529 114.82 16.54C116.038 15.3143 116.836 13.6639 117 11.5253L115.684 11.4149ZM112.483 12.0917C113.791 12.0742 115.065 12.0572 116.29 12.158L116.394 10.7818C115.098 10.6755 113.763 10.6939 112.466 10.7114L112.483 12.0917ZM110.079 12.0963C110.879 12.1133 111.687 12.1027 112.483 12.0917L112.466 10.7114C111.666 10.7224 110.88 10.733 110.107 10.716L110.079 12.0963ZM110.258 12.0613C110.239 12.0756 110.216 12.0848 110.192 12.0885L109.994 10.7238C109.824 10.7509 109.663 10.8167 109.521 10.917L110.258 12.0613ZM110.309 12.0061C110.296 12.0282 110.279 12.0471 110.258 12.0613L109.521 10.917C109.378 11.0173 109.259 11.1498 109.172 11.3044L110.309 12.0061ZM103.072 13.9165C104.13 14.0637 105.532 14.2372 106.846 14.0715C108.162 13.9054 109.518 13.3805 110.306 12.0107L109.175 11.2994C108.686 12.1478 107.813 12.5592 106.688 12.7013C105.56 12.8435 104.31 12.6967 103.247 12.5481L103.072 13.9165ZM99.8144 9.58041C99.6705 10.7155 99.9173 11.7245 100.523 12.4994C101.122 13.2654 102.017 13.7325 103.051 13.9133L103.268 12.5518C102.469 12.4124 101.895 12.0733 101.545 11.6256C101.202 11.1871 101.02 10.5752 101.123 9.76123L99.8144 9.58041ZM103.171 5.90182C102.187 6.04767 101.351 6.39644 100.75 7.05118C100.144 7.71098 99.8571 8.59439 99.8091 9.63747L101.128 9.70371C101.165 8.88472 101.38 8.35789 101.702 8.00683C102.029 7.6507 102.547 7.38844 103.356 7.26881L103.171 5.90182ZM103.626 5.8595C103.483 5.87284 103.344 5.88571 103.209 5.89768L103.318 7.27295C103.457 7.26099 103.599 7.24764 103.742 7.23476L103.626 5.8595ZM110.342 7.91251C109.606 6.58924 108.401 6.03801 107.181 5.83648C105.982 5.63864 104.678 5.76241 103.626 5.8595L103.742 7.23476C104.828 7.13446 105.965 7.03324 106.975 7.20026C107.964 7.36314 108.734 7.76711 109.202 8.60681L110.342 7.91251ZM111.612 7.7846C111.237 7.80208 110.881 7.81772 110.585 7.7984C110.439 7.7892 110.33 7.77218 110.255 7.75147C110.173 7.72939 110.181 7.71558 110.218 7.75055L109.326 8.76878C109.513 8.9473 109.738 9.03655 109.92 9.0867C110.11 9.1387 110.312 9.16401 110.504 9.17643C110.884 9.20081 111.314 9.18012 111.671 9.16355L111.612 7.7846ZM112.689 7.78597C112.384 7.7464 111.966 7.76849 111.612 7.7846L111.671 9.16355C112.076 9.14469 112.359 9.13411 112.527 9.15573L112.689 7.78597ZM119.397 9.16402C117.854 12.1124 116.307 15.0668 114.807 18.0699L115.977 18.709C117.47 15.7197 119.01 12.7768 120.555 9.82656L119.397 9.16402ZM123.24 1.74243C121.978 4.23301 120.689 6.69598 119.397 9.16402L120.555 9.82656C121.846 7.36037 123.14 4.88866 124.406 2.38842L123.24 1.74243ZM124.719 0.796439C124.399 0.791838 124.082 0.851191 123.799 1.04812C123.526 1.23768 123.359 1.50409 123.238 1.74611L124.408 2.38428C124.487 2.226 124.527 2.19931 124.529 2.19793C124.53 2.19747 124.531 2.19655 124.534 2.19517C124.537 2.19379 124.543 2.1915 124.554 2.18873C124.578 2.18275 124.623 2.17539 124.7 2.17677L124.719 0.796439ZM131.36 0.807012C129.143 0.821736 126.93 0.830487 124.719 0.796439L124.7 2.17677C126.925 2.21082 129.15 2.20207 131.369 2.18734L131.36 0.807012ZM132.462 1.54089C132.404 1.43092 132.297 1.22894 132.11 1.06928C131.896 0.886615 131.64 0.807012 131.365 0.807012V2.18734C131.382 2.18734 131.374 2.18965 131.35 2.18183C131.338 2.17769 131.325 2.1717 131.311 2.16388C131.298 2.15606 131.286 2.14732 131.276 2.13904C131.257 2.12294 131.251 2.11281 131.258 2.12294C131.262 2.128 131.268 2.13674 131.276 2.15101C131.284 2.16527 131.294 2.18274 131.305 2.20529L132.462 1.54089ZM135.717 7.8076C134.629 5.72145 133.541 3.63762 132.465 1.54596L131.302 2.19977C132.381 4.29604 133.471 6.38356 134.559 8.46878L135.717 7.8076ZM141.003 18.0658C139.275 14.6218 137.495 11.2124 135.717 7.8076L134.559 8.46878C136.337 11.8754 138.112 15.2752 139.834 18.7072L141.003 18.0658ZM133.673 19.0849C135.939 19.0766 138.137 19.0766 140.419 19.0766V17.6963C138.137 17.6963 135.937 17.6963 133.669 17.7046L133.673 19.0849ZM132.542 18.3317C132.633 18.5609 132.781 18.7941 133.041 18.9414C133.276 19.0743 133.518 19.0849 133.671 19.0849V17.7046C133.649 17.7046 133.632 17.7041 133.621 17.7032C133.61 17.7023 133.605 17.7018 133.605 17.7018C133.606 17.7018 133.633 17.7069 133.669 17.7276C133.709 17.7497 133.738 17.7782 133.757 17.8021C133.772 17.8224 133.772 17.8288 133.762 17.8035L132.542 18.3317ZM132.009 17.1023C132.197 17.5215 132.379 17.9264 132.544 18.3359L133.76 17.7994C133.583 17.3609 133.39 16.9316 133.205 16.5166L132.009 17.1023ZM131.573 16.1075C131.715 16.4453 131.864 16.7779 132.009 17.1023L133.205 16.5166C133.058 16.1899 132.916 15.872 132.781 15.5517L131.573 16.1075ZM131.688 16.1881C131.741 16.1881 131.697 16.1982 131.631 16.154C131.6 16.1333 131.58 16.1103 131.569 16.096C131.561 16.0841 131.563 16.0836 131.572 16.1066L132.782 15.5531C132.699 15.3566 132.569 15.1427 132.343 14.9918C132.12 14.8418 131.881 14.8073 131.683 14.8077L131.688 16.1881ZM124.122 16.1963C126.644 16.2009 129.166 16.1986 131.688 16.1881L131.683 14.8077C129.164 14.8183 126.644 14.8206 124.125 14.816L124.122 16.1963ZM124.249 16.1333C124.263 16.1002 124.269 16.0914 124.267 16.0951C124.263 16.1011 124.247 16.1227 124.217 16.1462C124.186 16.1706 124.154 16.1853 124.13 16.1922C124.108 16.1986 124.103 16.1963 124.123 16.1963V14.816C123.895 14.816 123.648 14.868 123.427 15.0405C123.22 15.2025 123.11 15.4155 123.043 15.5729L124.249 16.1333ZM123.745 17.2776C123.913 16.9008 124.084 16.5189 124.248 16.1347L123.043 15.5715C122.884 15.9433 122.718 16.3141 122.55 16.6928L123.745 17.2776ZM123.745 17.2767L123.746 17.2748L122.548 16.6951L122.548 16.6965L123.745 17.2767ZM123.296 18.2935C123.441 17.9558 123.592 17.6195 123.744 17.279L122.549 16.6942C122.397 17.0333 122.243 17.3784 122.093 17.7262L123.296 18.2935ZM122.108 19.0937C122.35 19.096 122.615 19.0495 122.854 18.8779C123.087 18.7104 123.215 18.4812 123.295 18.2949L122.093 17.7253C122.085 17.7446 122.078 17.758 122.073 17.7667C122.069 17.7754 122.066 17.7787 122.067 17.7782C122.068 17.7773 122.071 17.7722 122.078 17.7649C122.085 17.7575 122.095 17.7488 122.107 17.74C122.119 17.7317 122.131 17.7248 122.142 17.7198C122.152 17.7147 122.16 17.7124 122.164 17.7115C122.167 17.7106 122.166 17.711 122.158 17.7119C122.151 17.7129 122.138 17.7138 122.118 17.7138L122.108 19.0937ZM116.779 19.0789C118.593 19.0776 120.35 19.0766 122.107 19.0937L122.119 17.7138C120.354 17.6963 118.592 17.6972 116.778 17.6986L116.779 19.0789ZM115.392 19.0794C115.859 19.0794 116.32 19.0794 116.779 19.0789L116.778 17.6986C116.32 17.6991 115.858 17.6991 115.392 17.6991V19.0794ZM126.268 11.6629L128.517 6.63892L127.321 6.05366L125.072 11.0776L126.268 11.6629ZM130.157 10.6801H125.67V12.0604H130.157V10.6801ZM127.321 6.63753L129.559 11.6615L130.755 11.0785L128.517 6.05457L127.321 6.63753ZM37.0004 10.4436C39.8483 13.2535 42.6571 16.0261 45.5644 18.8967L46.4708 17.8932C43.563 15.0226 40.7542 12.25 37.9063 9.43962L37.0004 10.4436ZM45.5292 1.02096L37.0004 9.43962L37.9067 10.4431L46.4351 2.02493L45.5292 1.02096ZM38.6137 2.22875C39.0049 2.07922 39.4761 2.08336 40.6491 2.14226C41.7785 2.19885 43.4257 2.28904 46.0009 2.21266L45.9635 0.832778C43.4403 0.907776 41.8335 0.819435 40.712 0.763301C39.6336 0.709468 38.8566 0.66668 38.1606 0.932164L38.6137 2.22875ZM33.9404 6.91085C35.5256 5.27562 36.5265 4.135 37.2116 3.40342C37.9239 2.6424 38.2657 2.36172 38.6137 2.22875L38.1606 0.932164C37.4971 1.18568 36.9665 1.69181 36.2687 2.43765C35.5432 3.21201 34.5946 4.29741 33.0133 5.92758L33.9404 6.91085ZM32.0414 5.86639C32.3609 6.21009 32.6816 6.55472 33.0041 6.90073L33.9496 5.93771C33.6275 5.5917 33.3068 5.24755 32.9874 4.90385L32.0414 5.86639ZM28.7139 2.3148C29.8253 3.4844 30.9252 4.66642 32.0414 5.86639L32.9874 4.90385C31.872 3.7048 30.7673 2.51725 29.6497 1.34167L28.7139 2.3148ZM28.4763 2.21036C28.5701 2.21726 28.6576 2.25821 28.7236 2.32492L29.6401 1.33155C29.3501 1.03891 28.9709 0.863149 28.5692 0.833242L28.4763 2.21036ZM22.6819 2.19656C24.6341 2.19518 26.5572 2.19333 28.5168 2.2122L28.5287 0.831866C26.5616 0.813001 24.6319 0.814843 22.6806 0.816223L22.6819 2.19656ZM20.9717 2.19793C21.545 2.19793 22.1148 2.19702 22.6819 2.19656L22.6806 0.816223C22.1135 0.816684 21.5441 0.8176 20.9717 0.8176V2.19793ZM29.9784 9.44744L21.4245 1.00578L20.5186 2.00928L29.0725 10.4514L29.9784 9.44744ZM21.5063 18.801L29.978 10.4519L29.0725 9.44744L20.6013 17.7966L21.5063 18.801ZM28.3778 17.6392C27.9787 17.7975 27.4917 17.8063 26.3328 17.7469C25.2113 17.6889 23.5786 17.5822 21.047 17.6089L21.0606 18.9888C23.5464 18.963 25.1409 19.0674 26.2677 19.1254C27.3575 19.1815 28.1402 19.2096 28.8455 18.9299L28.3778 17.6392ZM33.0424 12.9737C31.4792 14.5772 30.4914 15.7036 29.8051 16.4384C29.0936 17.1994 28.7412 17.4952 28.3778 17.6392L28.8455 18.9299C29.5156 18.6644 30.051 18.1495 30.7488 17.4032C31.4712 16.6302 32.4132 15.5526 33.9668 13.9588L33.0424 12.9737ZM34.9809 14.0605C34.6478 13.703 34.313 13.3446 33.9769 12.9843L33.0323 13.9482C33.3684 14.3085 33.7028 14.6669 34.0358 15.024L34.9809 14.0605ZM38.3643 17.6728C37.2375 16.4798 36.1173 15.2793 34.9809 14.0605L34.0358 15.024C35.1723 16.2424 36.2951 17.446 37.4254 18.6427L38.3643 17.6728ZM38.4136 17.6931C38.3924 17.6917 38.3735 17.682 38.3594 17.6678L37.4298 18.6478C37.6683 18.8954 37.9841 19.0449 38.319 19.0697L38.4136 17.6931ZM44.6035 17.705C42.5106 17.706 40.4792 17.7069 38.3709 17.6912L38.3616 19.0716C40.4757 19.0872 42.5119 19.0863 44.6044 19.0854L44.6035 17.705ZM46.0176 17.705C45.5424 17.705 45.0717 17.705 44.6035 17.705L44.6044 19.0854C45.0721 19.0854 45.5424 19.0854 46.0176 19.0854V17.705Z" fill="url(#paint1_radial_1346_4853)"/>
</g>
</g>
</g>
<defs>
<radialGradient id="paint0_radial_1346_4853" cx="0" cy="0" r="1" gradientUnits="userSpaceOnUse" gradientTransform="translate(81.8882 7.70177) rotate(90) scale(21.9244 272.597)">
<stop stop-color="white"/>
<stop offset="1"/>
</radialGradient>
<radialGradient id="paint1_radial_1346_4853" cx="0" cy="0" r="1" gradientUnits="userSpaceOnUse" gradientTransform="translate(81.8882 7.70132) rotate(90) scale(21.9244 272.597)">
<stop stop-color="white"/>
<stop offset="1"/>
</radialGradient>
</defs>
</svg>
