<svg width="24" height="25" viewBox="0 0 24 25" fill="none" xmlns="http://www.w3.org/2000/svg">
<path fill-rule="evenodd" clip-rule="evenodd" d="M12 3.25C7.71979 3.25 4.25 6.71979 4.25 11V14.3229L3.25 16.3229V19.25H8.25C8.25 21.3211 9.92893 23 12 23C14.0711 23 15.75 21.3211 15.75 19.25H20.75V16.3229L19.75 14.3229V11C19.75 6.71979 16.2802 3.25 12 3.25ZM14.25 19.25H9.75C9.75 20.4926 10.7574 21.5 12 21.5C13.2426 21.5 14.25 20.4926 14.25 19.25ZM5.75 11C5.75 7.54822 8.54822 4.75 12 4.75C15.4518 4.75 18.25 7.54822 18.25 11V14.6771L19.25 16.6771V17.75H4.75V16.6771L5.75 14.6771V11Z" fill="white"/>
<circle cx="17" cy="5" r="4.5" fill="#FF3939" stroke="white"/>
</svg>
