<svg width="24" height="24" viewBox="0 0 24 24" fill="none" xmlns="http://www.w3.org/2000/svg">
<g id="react-icons/ai/AiOutlinePaperClip">
<path id="Vector" d="M18.2649 4.60776C16.0571 2.39995 12.4617 2.39995 10.2563 4.60776L4.13908 10.7203C4.09924 10.7601 4.07815 10.814 4.07815 10.8703C4.07815 10.9265 4.09924 10.9804 4.13908 11.0203L5.00393 11.8851C5.04346 11.9245 5.09697 11.9466 5.15276 11.9466C5.20854 11.9466 5.26205 11.9245 5.30158 11.8851L11.4188 5.77261C12.1781 5.01323 13.1883 4.59604 14.2617 4.59604C15.3352 4.59604 16.3453 5.01323 17.1024 5.77261C17.8617 6.53198 18.2789 7.54214 18.2789 8.61323C18.2789 9.68667 17.8617 10.6945 17.1024 11.4539L10.868 17.6859L9.85783 18.696C8.9133 19.6406 7.37815 19.6406 6.43362 18.696C5.97658 18.239 5.7258 17.632 5.7258 16.9851C5.7258 16.3382 5.97658 15.7312 6.43362 15.2742L12.6188 9.09136C12.7758 8.93667 12.9821 8.84995 13.2024 8.84995H13.2047C13.425 8.84995 13.6289 8.93667 13.7836 9.09136C13.9406 9.24839 14.025 9.45464 14.025 9.67495C14.025 9.89292 13.9383 10.0992 13.7836 10.2539L8.72815 15.3046C8.6883 15.3445 8.66721 15.3984 8.66721 15.4546C8.66721 15.5109 8.6883 15.5648 8.72815 15.6046L9.59299 16.4695C9.63252 16.5088 9.68603 16.5309 9.74182 16.5309C9.7976 16.5309 9.85112 16.5088 9.89065 16.4695L14.9438 11.4164C15.4102 10.95 15.6656 10.3312 15.6656 9.67261C15.6656 9.01401 15.4078 8.39292 14.9438 7.92886C13.9805 6.96558 12.4149 6.96792 11.4516 7.92886L10.8516 8.5312L5.26877 14.1117C4.88986 14.4884 4.5895 14.9365 4.38512 15.4302C4.18074 15.9238 4.0764 16.4532 4.07815 16.9875C4.07815 18.0726 4.50237 19.0921 5.26877 19.8585C6.0633 20.6507 7.10393 21.0468 8.14455 21.0468C9.18518 21.0468 10.2258 20.6507 11.018 19.8585L18.2649 12.6164C19.3313 11.5476 19.9219 10.125 19.9219 8.61323C19.9242 7.09917 19.3336 5.67651 18.2649 4.60776Z" fill="#70777A"/>
</g>
</svg>
