<svg width="20" height="20" viewBox="0 0 20 20" fill="none" xmlns="http://www.w3.org/2000/svg">
<g id="icon">
<path id="Vector" d="M13.0387 10.5963C13.8557 9.95354 14.452 9.0721 14.7447 8.07461C15.0374 7.07713 15.012 6.01322 14.6718 5.03088C14.3317 4.04855 13.6939 3.19665 12.8471 2.59371C12.0003 1.99076 10.9866 1.66675 9.94702 1.66675C8.90748 1.66675 7.89378 1.99076 7.04696 2.59371C6.20014 3.19665 5.56231 4.04855 5.2222 5.03088C4.88209 6.01322 4.85661 7.07713 5.14932 8.07461C5.44203 9.0721 6.03836 9.95354 6.85535 10.5963C5.45542 11.1572 4.23392 12.0875 3.3211 13.2879C2.40827 14.4884 1.83832 15.9141 1.67202 17.413C1.65998 17.5224 1.66962 17.6332 1.70037 17.7389C1.73113 17.8446 1.78241 17.9432 1.85128 18.0291C1.99037 18.2026 2.19267 18.3137 2.41369 18.338C2.6347 18.3623 2.85632 18.2978 3.02979 18.1587C3.20326 18.0196 3.31437 17.8173 3.33869 17.5963C3.52167 15.9673 4.29842 14.4628 5.52053 13.3703C6.74265 12.2778 8.32444 11.6739 9.96369 11.6739C11.6029 11.6739 13.1847 12.2778 14.4068 13.3703C15.6289 14.4628 16.4057 15.9673 16.5887 17.5963C16.6113 17.8011 16.709 17.9902 16.8629 18.1272C17.0168 18.2641 17.216 18.3392 17.422 18.338H17.5137C17.7321 18.3129 17.9318 18.2024 18.0692 18.0307C18.2065 17.859 18.2704 17.64 18.247 17.4213C18.0799 15.9182 17.5069 14.4888 16.5894 13.2865C15.6719 12.0842 14.4444 11.1542 13.0387 10.5963ZM9.94702 10.0047C9.28775 10.0047 8.64328 9.80917 8.09512 9.44289C7.54695 9.07662 7.11971 8.55603 6.86742 7.94694C6.61513 7.33785 6.54912 6.66763 6.67773 6.02103C6.80635 5.37442 7.12382 4.78048 7.59 4.31431C8.05617 3.84813 8.65012 3.53066 9.29672 3.40204C9.94332 3.27343 10.6135 3.33944 11.2226 3.59173C11.8317 3.84402 12.3523 4.27126 12.7186 4.81943C13.0849 5.36759 13.2804 6.01206 13.2804 6.67133C13.2804 7.55538 12.9292 8.40323 12.304 9.02835C11.6789 9.65347 10.8311 10.0047 9.94702 10.0047Z" fill="#6666FF"/>
</g>
</svg>
