<svg width="60" height="60" viewBox="0 0 60 60" fill="none" xmlns="http://www.w3.org/2000/svg">
<circle cx="30" cy="30" r="30" fill="#B58963"/>
<path d="M28.908 39H23.2575V21.5455H29.087C30.7972 21.5455 32.266 21.8949 33.4933 22.5938C34.7205 23.2869 35.6609 24.2841 36.3143 25.5852C36.9734 26.8807 37.3029 28.4347 37.3029 30.2472C37.3029 32.0653 36.9705 33.6278 36.3058 34.9347C35.6467 36.2415 34.6921 37.2472 33.4421 37.9517C32.1921 38.6506 30.6808 39 28.908 39ZM25.891 36.6989H28.7631C30.0927 36.6989 31.1978 36.4489 32.0785 35.9489C32.9592 35.4432 33.6183 34.7131 34.0558 33.7585C34.4933 32.7983 34.712 31.6278 34.712 30.2472C34.712 28.8778 34.4933 27.7159 34.0558 26.7614C33.6239 25.8068 32.979 25.0824 32.1211 24.5881C31.2631 24.0937 30.1978 23.8466 28.9251 23.8466H25.891V36.6989Z" fill="white"/>
</svg>
