<svg width="20" height="20" viewBox="0 0 20 20" fill="none" xmlns="http://www.w3.org/2000/svg">
<g id="icon">
<path id="Vector" d="M4.58366 14.5834H3.33366V5.41675H9.83366L9.16699 6.08342C9.00033 6.25008 8.91699 6.41675 8.91699 6.66675C8.91699 7.16675 9.25033 7.50008 9.75033 7.50008C10.0003 7.50008 10.167 7.41675 10.3337 7.25008L12.417 5.16675C12.7503 4.83341 12.7503 4.33342 12.417 4.00008L10.3337 1.91675C10.0003 1.58341 9.50033 1.58341 9.16699 1.91675C8.83366 2.25008 8.83366 2.75008 9.16699 3.08341L9.83366 3.75008H2.50033C2.00033 3.75008 1.66699 4.08341 1.66699 4.58341V15.4167C1.66699 15.9167 2.00033 16.2501 2.50033 16.2501H4.58366C5.08366 16.2501 5.41699 15.9167 5.41699 15.4167C5.41699 14.9167 5.08366 14.5834 4.58366 14.5834ZM17.5003 3.75008H15.417C14.917 3.75008 14.5837 4.08341 14.5837 4.58341C14.5837 5.08341 14.917 5.41675 15.417 5.41675H16.667V14.5834H9.66699L10.3337 13.9167C10.667 13.5834 10.667 13.0834 10.3337 12.7501C10.0003 12.4167 9.50033 12.4167 9.16699 12.7501L7.08366 14.8334C6.75033 15.1667 6.75033 15.6667 7.08366 16.0001L9.16699 18.0834C9.33366 18.2501 9.50033 18.3334 9.75033 18.3334C10.0003 18.3334 10.167 18.2501 10.3337 18.0834C10.667 17.7501 10.667 17.2501 10.3337 16.9167L9.66699 16.2501H17.5003C18.0003 16.2501 18.3337 15.9167 18.3337 15.4167V4.58341C18.3337 4.08341 18.0003 3.75008 17.5003 3.75008Z" fill="#6666FF"/>
</g>
</svg>
