  <svg
            width="24"
            height="24"
            viewBox="0 0 76 76"
            fill="none"
            xmlns="http://www.w3.org/2000/svg">
            <path
              d="M1.4125 5.8375C1.12195 5.54695 0.891474 5.20202 0.73423 4.8224C0.576986 4.44277 0.496053 4.0359 0.496053 3.625C0.496053 3.2141 0.576986 2.80723 0.73423 2.4276C0.891474 2.04798 1.12195 1.70305 1.4125 1.4125C1.70305 1.12195 2.04798 0.891474 2.4276 0.73423C2.80723 0.576986 3.2141 0.496053 3.625 0.496053C4.0359 0.496053 4.44277 0.576986 4.8224 0.73423C5.20202 0.891474 5.54695 1.12195 5.8375 1.4125L38 33.5812L70.1625 1.4125C70.453 1.12195 70.798 0.891474 71.1776 0.73423C71.5572 0.576986 71.9641 0.496053 72.375 0.496053C72.7859 0.496053 73.1928 0.576986 73.5724 0.73423C73.952 0.891474 74.2969 1.12195 74.5875 1.4125C74.878 1.70305 75.1085 2.04798 75.2658 2.4276C75.423 2.80723 75.5039 3.2141 75.5039 3.625C75.5039 4.0359 75.423 4.44277 75.2658 4.8224C75.1085 5.20202 74.878 5.54695 74.5875 5.8375L42.4187 38L74.5875 70.1625C74.878 70.453 75.1085 70.798 75.2658 71.1776C75.423 71.5572 75.5039 71.9641 75.5039 72.375C75.5039 72.7859 75.423 73.1928 75.2658 73.5724C75.1085 73.952 74.878 74.2969 74.5875 74.5875C74.2969 74.878 73.952 75.1085 73.5724 75.2658C73.1928 75.423 72.7859 75.5039 72.375 75.5039C71.9641 75.5039 71.5572 75.423 71.1776 75.2658C70.798 75.1085 70.453 74.878 70.1625 74.5875L38 42.4187L5.8375 74.5875C5.54695 74.878 5.20202 75.1085 4.8224 75.2658C4.44277 75.423 4.0359 75.5039 3.625 75.5039C3.2141 75.5039 2.80723 75.423 2.4276 75.2658C2.04798 75.1085 1.70305 74.878 1.4125 74.5875C1.12195 74.2969 0.891474 73.952 0.73423 73.5724C0.576986 73.1928 0.496053 72.7859 0.496053 72.375C0.496053 71.9641 0.576986 71.5572 0.73423 71.1776C0.891474 70.798 1.12195 70.453 1.4125 70.1625L33.5812 38L1.4125 5.8375Z"
              fill="white"
            />
          </svg>